<?xml version="1.0" encoding="utf-8" standalone="no"?>
<!DOCTYPE svg PUBLIC "-//W3C//DTD SVG 1.1//EN"
  "http://www.w3.org/Graphics/SVG/1.1/DTD/svg11.dtd">
<svg xmlns:xlink="http://www.w3.org/1999/xlink" width="576pt" height="252pt" viewBox="0 0 576 252" xmlns="http://www.w3.org/2000/svg" version="1.1">
 <metadata>
  <rdf:RDF xmlns:dc="http://purl.org/dc/elements/1.1/" xmlns:cc="http://creativecommons.org/ns#" xmlns:rdf="http://www.w3.org/1999/02/22-rdf-syntax-ns#">
   <cc:Work>
    <dc:type rdf:resource="http://purl.org/dc/dcmitype/StillImage"/>
    <dc:date>2023-12-06T16:01:58.700041</dc:date>
    <dc:format>image/svg+xml</dc:format>
    <dc:creator>
     <cc:Agent>
      <dc:title>Matplotlib v3.7.4, https://matplotlib.org/</dc:title>
     </cc:Agent>
    </dc:creator>
   </cc:Work>
  </rdf:RDF>
 </metadata>
 <defs>
  <style type="text/css">*{stroke-linejoin: round; stroke-linecap: butt}</style>
 </defs>
 <g id="figure_1">
  <g id="patch_1">
   <path d="M 0 252 
L 576 252 
L 576 0 
L 0 0 
z
" style="fill: #ffffff"/>
  </g>
  <g id="axes_1">
   <g id="patch_2">
    <path d="M 56.87 210.04 
L 525.43 210.04 
L 525.43 10.8 
L 56.87 10.8 
z
" style="fill: #ffffff"/>
   </g>
   <g id="matplotlib.axis_1">
    <g id="xtick_1">
     <g id="line2d_1">
      <defs>
       <path id="mbb899b96e0" d="M 0 0 
L 0 3.5 
" style="stroke: #000000; stroke-width: 0.8"/>
      </defs>
      <g>
       <use xlink:href="#mbb899b96e0" x="78.168182" y="210.04" style="stroke: #000000; stroke-width: 0.8"/>
      </g>
     </g>
     <g id="text_1">
      <text style="font: 10px 'DejaVu Sans', 'Bitstream Vera Sans', 'Computer Modern Sans Serif', 'Lucida Grande', 'Verdana', 'Geneva', 'Lucid', 'Arial', 'Helvetica', 'Avant Garde', sans-serif; text-anchor: middle" x="78.168182" y="224.638438" transform="rotate(-0 78.168182 224.638438)">0</text>
     </g>
    </g>
    <g id="xtick_2">
     <g id="line2d_2">
      <g>
       <use xlink:href="#mbb899b96e0" x="163.703049" y="210.04" style="stroke: #000000; stroke-width: 0.8"/>
      </g>
     </g>
     <g id="text_2">
      <text style="font: 10px 'DejaVu Sans', 'Bitstream Vera Sans', 'Computer Modern Sans Serif', 'Lucida Grande', 'Verdana', 'Geneva', 'Lucid', 'Arial', 'Helvetica', 'Avant Garde', sans-serif; text-anchor: middle" x="163.703049" y="224.638438" transform="rotate(-0 163.703049 224.638438)">50</text>
     </g>
    </g>
    <g id="xtick_3">
     <g id="line2d_3">
      <g>
       <use xlink:href="#mbb899b96e0" x="249.237915" y="210.04" style="stroke: #000000; stroke-width: 0.8"/>
      </g>
     </g>
     <g id="text_3">
      <text style="font: 10px 'DejaVu Sans', 'Bitstream Vera Sans', 'Computer Modern Sans Serif', 'Lucida Grande', 'Verdana', 'Geneva', 'Lucid', 'Arial', 'Helvetica', 'Avant Garde', sans-serif; text-anchor: middle" x="249.237915" y="224.638438" transform="rotate(-0 249.237915 224.638438)">100</text>
     </g>
    </g>
    <g id="xtick_4">
     <g id="line2d_4">
      <g>
       <use xlink:href="#mbb899b96e0" x="334.772782" y="210.04" style="stroke: #000000; stroke-width: 0.8"/>
      </g>
     </g>
     <g id="text_4">
      <text style="font: 10px 'DejaVu Sans', 'Bitstream Vera Sans', 'Computer Modern Sans Serif', 'Lucida Grande', 'Verdana', 'Geneva', 'Lucid', 'Arial', 'Helvetica', 'Avant Garde', sans-serif; text-anchor: middle" x="334.772782" y="224.638438" transform="rotate(-0 334.772782 224.638438)">150</text>
     </g>
    </g>
    <g id="xtick_5">
     <g id="line2d_5">
      <g>
       <use xlink:href="#mbb899b96e0" x="420.307649" y="210.04" style="stroke: #000000; stroke-width: 0.8"/>
      </g>
     </g>
     <g id="text_5">
      <text style="font: 10px 'DejaVu Sans', 'Bitstream Vera Sans', 'Computer Modern Sans Serif', 'Lucida Grande', 'Verdana', 'Geneva', 'Lucid', 'Arial', 'Helvetica', 'Avant Garde', sans-serif; text-anchor: middle" x="420.307649" y="224.638438" transform="rotate(-0 420.307649 224.638438)">200</text>
     </g>
    </g>
    <g id="xtick_6">
     <g id="line2d_6">
      <g>
       <use xlink:href="#mbb899b96e0" x="505.842516" y="210.04" style="stroke: #000000; stroke-width: 0.8"/>
      </g>
     </g>
     <g id="text_6">
      <text style="font: 10px 'DejaVu Sans', 'Bitstream Vera Sans', 'Computer Modern Sans Serif', 'Lucida Grande', 'Verdana', 'Geneva', 'Lucid', 'Arial', 'Helvetica', 'Avant Garde', sans-serif; text-anchor: middle" x="505.842516" y="224.638438" transform="rotate(-0 505.842516 224.638438)">250</text>
     </g>
    </g>
    <g id="text_7">
     <text style="font: 10px 'DejaVu Sans', 'Bitstream Vera Sans', 'Computer Modern Sans Serif', 'Lucida Grande', 'Verdana', 'Geneva', 'Lucid', 'Arial', 'Helvetica', 'Avant Garde', sans-serif; text-anchor: middle" x="291.15" y="238.316563" transform="rotate(-0 291.15 238.316563)">Cycles</text>
    </g>
   </g>
   <g id="matplotlib.axis_2">
    <g id="ytick_1">
     <g id="line2d_7">
      <defs>
       <path id="m5166983e6c" d="M 0 0 
L -3.5 0 
" style="stroke: #000000; stroke-width: 0.8"/>
      </defs>
      <g>
       <use xlink:href="#m5166983e6c" x="56.87" y="173.216484" style="stroke: #000000; stroke-width: 0.8"/>
      </g>
     </g>
     <g id="text_8">
      <text style="font: 10px 'DejaVu Sans', 'Bitstream Vera Sans', 'Computer Modern Sans Serif', 'Lucida Grande', 'Verdana', 'Geneva', 'Lucid', 'Arial', 'Helvetica', 'Avant Garde', sans-serif; text-anchor: end" x="49.87" y="177.015702" transform="rotate(-0 49.87 177.015702)">400</text>
     </g>
    </g>
    <g id="ytick_2">
     <g id="line2d_8">
      <g>
       <use xlink:href="#m5166983e6c" x="56.87" y="130.497787" style="stroke: #000000; stroke-width: 0.8"/>
      </g>
     </g>
     <g id="text_9">
      <text style="font: 10px 'DejaVu Sans', 'Bitstream Vera Sans', 'Computer Modern Sans Serif', 'Lucida Grande', 'Verdana', 'Geneva', 'Lucid', 'Arial', 'Helvetica', 'Avant Garde', sans-serif; text-anchor: end" x="49.87" y="134.297006" transform="rotate(-0 49.87 134.297006)">500</text>
     </g>
    </g>
    <g id="ytick_3">
     <g id="line2d_9">
      <g>
       <use xlink:href="#m5166983e6c" x="56.87" y="87.779091" style="stroke: #000000; stroke-width: 0.8"/>
      </g>
     </g>
     <g id="text_10">
      <text style="font: 10px 'DejaVu Sans', 'Bitstream Vera Sans', 'Computer Modern Sans Serif', 'Lucida Grande', 'Verdana', 'Geneva', 'Lucid', 'Arial', 'Helvetica', 'Avant Garde', sans-serif; text-anchor: end" x="49.87" y="91.57831" transform="rotate(-0 49.87 91.57831)">600</text>
     </g>
    </g>
    <g id="ytick_4">
     <g id="line2d_10">
      <g>
       <use xlink:href="#m5166983e6c" x="56.87" y="45.060395" style="stroke: #000000; stroke-width: 0.8"/>
      </g>
     </g>
     <g id="text_11">
      <text style="font: 10px 'DejaVu Sans', 'Bitstream Vera Sans', 'Computer Modern Sans Serif', 'Lucida Grande', 'Verdana', 'Geneva', 'Lucid', 'Arial', 'Helvetica', 'Avant Garde', sans-serif; text-anchor: end" x="49.87" y="48.859613" transform="rotate(-0 49.87 48.859613)">700</text>
     </g>
    </g>
    <g id="text_12">
     <text style="font: 10px 'DejaVu Sans', 'Bitstream Vera Sans', 'Computer Modern Sans Serif', 'Lucida Grande', 'Verdana', 'Geneva', 'Lucid', 'Arial', 'Helvetica', 'Avant Garde', sans-serif; text-anchor: middle" x="18.702813" y="110.42" transform="rotate(-90 18.702813 110.42)">power (uW)</text>
    </g>
   </g>
   <g id="line2d_11">
    <path d="M 78.168182 78.380978 
L 79.878879 83.080034 
L 81.589576 43.778834 
L 83.300274 58.730377 
L 85.010971 36.943842 
L 86.721668 58.30319 
L 88.432366 52.74976 
L 90.143063 200.983636 
L 91.85376 77.953791 
L 93.564458 71.545986 
L 95.275155 74.109108 
L 96.985853 109.565626 
L 98.69655 35.662281 
L 100.407247 50.186638 
L 102.117945 85.215969 
L 103.828642 56.594443 
L 105.539339 65.565369 
L 107.250037 57.876003 
L 108.960734 130.497787 
L 110.671431 34.38072 
L 112.382129 87.779091 
L 114.092826 73.681921 
L 115.803523 76.67223 
L 117.514221 44.206021 
L 119.224918 102.730635 
L 120.935615 78.808165 
L 122.646313 135.196844 
L 124.35701 112.983122 
L 126.067707 61.720686 
L 127.778405 52.74976 
L 129.489102 77.099417 
L 131.199799 71.973173 
L 132.910497 75.390669 
L 134.621194 57.02163 
L 136.331891 43.778834 
L 138.042589 73.254734 
L 139.753286 53.176947 
L 141.463983 44.633208 
L 143.174681 105.293756 
L 144.885378 86.924717 
L 146.596075 86.070343 
L 148.306773 120.2453 
L 150.01747 83.934408 
L 151.728167 133.915283 
L 153.438865 62.57506 
L 155.149562 48.050703 
L 156.860259 93.332521 
L 158.570957 68.555678 
L 160.281654 95.041269 
L 161.992351 67.274117 
L 163.703049 19.856364 
L 165.413746 40.788525 
L 167.124443 59.584751 
L 168.835141 127.934666 
L 170.545838 33.953533 
L 172.256535 114.264683 
L 173.967233 115.546244 
L 175.67793 82.22566 
L 177.388627 101.876261 
L 179.099325 48.905077 
L 180.810022 90.7694 
L 182.520719 120.2453 
L 184.231417 93.759708 
L 185.942114 81.798473 
L 187.652811 49.332264 
L 189.363509 92.050961 
L 191.074206 115.973431 
L 192.784903 64.710995 
L 194.495601 46.769142 
L 196.206298 140.750274 
L 197.916995 129.216226 
L 199.627693 98.031578 
L 201.33839 93.759708 
L 203.049087 62.147873 
L 204.759785 83.934408 
L 206.470482 144.16777 
L 208.181179 46.341955 
L 209.891877 112.128748 
L 211.602574 59.157564 
L 213.313271 108.284065 
L 215.023969 30.536038 
L 216.734666 48.050703 
L 218.445363 28.400103 
L 220.156061 62.147873 
L 221.866758 71.118799 
L 223.577455 139.468714 
L 225.288153 128.361852 
L 226.99885 137.332779 
L 228.709547 76.67223 
L 230.420245 74.109108 
L 232.130942 116.827804 
L 233.841639 39.934151 
L 235.552337 53.176947 
L 237.263034 76.67223 
L 238.973731 84.788782 
L 240.684429 117.254991 
L 242.395126 57.448816 
L 244.105823 103.157822 
L 245.816521 75.390669 
L 247.527218 63.002247 
L 249.237915 79.662539 
L 250.948613 66.84693 
L 252.65931 74.963482 
L 254.370007 76.67223 
L 256.080705 115.546244 
L 257.791402 61.720686 
L 259.502099 71.118799 
L 261.212797 77.099417 
L 262.923494 84.361595 
L 264.634191 82.22566 
L 266.344889 28.400103 
L 268.055586 79.662539 
L 269.766283 63.429434 
L 271.476981 30.108851 
L 273.187678 58.730377 
L 274.898375 60.866312 
L 276.609073 86.924717 
L 278.31977 47.623516 
L 280.030467 97.177204 
L 281.741165 150.575575 
L 283.451862 126.653105 
L 285.162559 65.992556 
L 286.873257 168.944614 
L 288.583954 76.245043 
L 292.005349 27.118542 
L 293.716046 159.973688 
L 295.426743 48.050703 
L 297.137441 93.759708 
L 298.848138 58.730377 
L 300.558835 82.22566 
L 302.269533 36.516655 
L 303.98023 137.759966 
L 305.690927 81.371286 
L 307.401625 36.516655 
L 309.112322 132.206535 
L 310.823019 86.924717 
L 312.533717 48.905077 
L 314.244414 71.545986 
L 315.955111 161.255249 
L 317.665809 72.827547 
L 319.376506 152.711509 
L 321.087203 169.798988 
L 322.797901 59.584751 
L 324.508598 74.536295 
L 326.219295 107.429691 
L 327.929993 62.147873 
L 329.64069 78.380978 
L 331.351387 78.380978 
L 333.062085 93.759708 
L 334.772782 87.351904 
L 336.483479 57.876003 
L 338.194177 73.681921 
L 339.904874 63.429434 
L 341.615571 71.973173 
L 343.326269 54.031321 
L 345.036966 110.847187 
L 346.747663 42.070086 
L 348.458361 65.565369 
L 350.169058 79.662539 
L 351.879755 98.031578 
L 353.590453 54.031321 
L 355.30115 84.788782 
L 357.011847 60.439125 
L 358.722545 56.594443 
L 360.433242 118.536552 
L 362.143939 105.720943 
L 363.854637 42.497273 
L 365.565334 72.827547 
L 367.276031 85.215969 
L 368.986729 59.157564 
L 370.697426 56.167256 
L 372.408123 97.604391 
L 374.118821 151.002762 
L 375.829518 83.080034 
L 377.540215 57.02163 
L 379.250913 41.642899 
L 380.96161 79.662539 
L 382.672307 136.905592 
L 384.383005 93.759708 
L 386.093702 127.934666 
L 387.804399 107.856878 
L 389.515097 54.458508 
L 391.225794 86.49753 
L 392.936491 30.108851 
L 394.647189 168.517427 
L 396.357886 130.924974 
L 398.068583 85.643156 
L 399.779281 89.060652 
L 401.489978 69.410051 
L 403.200675 185.177719 
L 404.911373 83.934408 
L 406.62207 75.817856 
L 408.332767 60.866312 
L 410.043465 48.47789 
L 411.754162 44.206021 
L 413.464859 113.410309 
L 415.175557 112.555935 
L 416.886254 35.662281 
L 418.596951 49.332264 
L 420.307649 132.206535 
L 422.018346 106.14813 
L 423.729043 57.02163 
L 425.439741 77.526604 
L 427.150438 78.380978 
L 428.861135 83.507221 
L 430.571833 79.235352 
L 432.28253 60.011938 
L 433.993227 72.40036 
L 435.703925 71.118799 
L 437.414622 105.293756 
L 439.125319 57.876003 
L 440.836017 107.856878 
L 442.546714 121.526861 
L 444.257411 130.924974 
L 445.968109 32.244786 
L 447.678806 95.041269 
L 449.389503 95.041269 
L 451.100201 98.458765 
L 452.810898 77.526604 
L 454.521595 86.924717 
L 456.232293 30.536038 
L 457.94299 96.750017 
L 459.653687 27.545729 
L 463.075082 93.332521 
L 464.785779 135.624031 
L 466.496477 85.215969 
L 468.207174 127.080292 
L 469.917871 54.458508 
L 471.628569 58.30319 
L 473.339266 100.5947 
L 475.049963 113.837496 
L 476.760661 63.856621 
L 478.471358 90.7694 
L 480.182055 58.730377 
L 481.892753 124.51717 
L 483.60345 95.468456 
L 487.024845 42.070086 
L 488.735542 156.556192 
L 490.44624 112.555935 
L 492.156937 178.769914 
L 493.867634 68.982864 
L 495.578332 72.40036 
L 497.289029 44.633208 
L 498.999726 118.963739 
L 500.710424 59.157564 
L 502.421121 48.050703 
L 504.131818 43.351647 
L 504.131818 43.351647 
" clip-path="url(#p3557255f22)" style="fill: none; stroke: #99004d; stroke-width: 0.8; stroke-linecap: square"/>
   </g>
   <g id="patch_3">
    <path d="M 56.87 210.04 
L 56.87 10.8 
" style="fill: none; stroke: #000000; stroke-width: 0.8; stroke-linejoin: miter; stroke-linecap: square"/>
   </g>
   <g id="patch_4">
    <path d="M 525.43 210.04 
L 525.43 10.8 
" style="fill: none; stroke: #000000; stroke-width: 0.8; stroke-linejoin: miter; stroke-linecap: square"/>
   </g>
   <g id="patch_5">
    <path d="M 56.87 210.04 
L 525.43 210.04 
" style="fill: none; stroke: #000000; stroke-width: 0.8; stroke-linejoin: miter; stroke-linecap: square"/>
   </g>
   <g id="patch_6">
    <path d="M 56.87 10.8 
L 525.43 10.8 
" style="fill: none; stroke: #000000; stroke-width: 0.8; stroke-linejoin: miter; stroke-linecap: square"/>
   </g>
  </g>
  <g id="axes_2">
   <g id="matplotlib.axis_3">
    <g id="ytick_5">
     <g id="line2d_12">
      <defs>
       <path id="mecf2ea0ada" d="M 0 0 
L 3.5 0 
" style="stroke: #000000; stroke-width: 0.8"/>
      </defs>
      <g>
       <use xlink:href="#mecf2ea0ada" x="525.43" y="206.158701" style="stroke: #000000; stroke-width: 0.8"/>
      </g>
     </g>
     <g id="text_13">
      <text style="font: 10px 'DejaVu Sans', 'Bitstream Vera Sans', 'Computer Modern Sans Serif', 'Lucida Grande', 'Verdana', 'Geneva', 'Lucid', 'Arial', 'Helvetica', 'Avant Garde', sans-serif; text-anchor: start" x="532.43" y="209.95792" transform="rotate(-0 532.43 209.95792)">0</text>
     </g>
    </g>
    <g id="ytick_6">
     <g id="line2d_13">
      <g>
       <use xlink:href="#mecf2ea0ada" x="525.43" y="180.283377" style="stroke: #000000; stroke-width: 0.8"/>
      </g>
     </g>
     <g id="text_14">
      <text style="font: 10px 'DejaVu Sans', 'Bitstream Vera Sans', 'Computer Modern Sans Serif', 'Lucida Grande', 'Verdana', 'Geneva', 'Lucid', 'Arial', 'Helvetica', 'Avant Garde', sans-serif; text-anchor: start" x="532.43" y="184.082595" transform="rotate(-0 532.43 184.082595)">5</text>
     </g>
    </g>
    <g id="ytick_7">
     <g id="line2d_14">
      <g>
       <use xlink:href="#mecf2ea0ada" x="525.43" y="154.408052" style="stroke: #000000; stroke-width: 0.8"/>
      </g>
     </g>
     <g id="text_15">
      <text style="font: 10px 'DejaVu Sans', 'Bitstream Vera Sans', 'Computer Modern Sans Serif', 'Lucida Grande', 'Verdana', 'Geneva', 'Lucid', 'Arial', 'Helvetica', 'Avant Garde', sans-serif; text-anchor: start" x="532.43" y="158.207271" transform="rotate(-0 532.43 158.207271)">10</text>
     </g>
    </g>
    <g id="ytick_8">
     <g id="line2d_15">
      <g>
       <use xlink:href="#mecf2ea0ada" x="525.43" y="128.532727" style="stroke: #000000; stroke-width: 0.8"/>
      </g>
     </g>
     <g id="text_16">
      <text style="font: 10px 'DejaVu Sans', 'Bitstream Vera Sans', 'Computer Modern Sans Serif', 'Lucida Grande', 'Verdana', 'Geneva', 'Lucid', 'Arial', 'Helvetica', 'Avant Garde', sans-serif; text-anchor: start" x="532.43" y="132.331946" transform="rotate(-0 532.43 132.331946)">15</text>
     </g>
    </g>
    <g id="ytick_9">
     <g id="line2d_16">
      <g>
       <use xlink:href="#mecf2ea0ada" x="525.43" y="102.657403" style="stroke: #000000; stroke-width: 0.8"/>
      </g>
     </g>
     <g id="text_17">
      <text style="font: 10px 'DejaVu Sans', 'Bitstream Vera Sans', 'Computer Modern Sans Serif', 'Lucida Grande', 'Verdana', 'Geneva', 'Lucid', 'Arial', 'Helvetica', 'Avant Garde', sans-serif; text-anchor: start" x="532.43" y="106.456621" transform="rotate(-0 532.43 106.456621)">20</text>
     </g>
    </g>
    <g id="ytick_10">
     <g id="line2d_17">
      <g>
       <use xlink:href="#mecf2ea0ada" x="525.43" y="76.782078" style="stroke: #000000; stroke-width: 0.8"/>
      </g>
     </g>
     <g id="text_18">
      <text style="font: 10px 'DejaVu Sans', 'Bitstream Vera Sans', 'Computer Modern Sans Serif', 'Lucida Grande', 'Verdana', 'Geneva', 'Lucid', 'Arial', 'Helvetica', 'Avant Garde', sans-serif; text-anchor: start" x="532.43" y="80.581297" transform="rotate(-0 532.43 80.581297)">25</text>
     </g>
    </g>
    <g id="ytick_11">
     <g id="line2d_18">
      <g>
       <use xlink:href="#mecf2ea0ada" x="525.43" y="50.906753" style="stroke: #000000; stroke-width: 0.8"/>
      </g>
     </g>
     <g id="text_19">
      <text style="font: 10px 'DejaVu Sans', 'Bitstream Vera Sans', 'Computer Modern Sans Serif', 'Lucida Grande', 'Verdana', 'Geneva', 'Lucid', 'Arial', 'Helvetica', 'Avant Garde', sans-serif; text-anchor: start" x="532.43" y="54.705972" transform="rotate(-0 532.43 54.705972)">30</text>
     </g>
    </g>
    <g id="ytick_12">
     <g id="line2d_19">
      <g>
       <use xlink:href="#mecf2ea0ada" x="525.43" y="25.031429" style="stroke: #000000; stroke-width: 0.8"/>
      </g>
     </g>
     <g id="text_20">
      <text style="font: 10px 'DejaVu Sans', 'Bitstream Vera Sans', 'Computer Modern Sans Serif', 'Lucida Grande', 'Verdana', 'Geneva', 'Lucid', 'Arial', 'Helvetica', 'Avant Garde', sans-serif; text-anchor: start" x="532.43" y="28.830647" transform="rotate(-0 532.43 28.830647)">35</text>
     </g>
    </g>
    <g id="text_21">
     <text style="font: 10px 'DejaVu Sans', 'Bitstream Vera Sans', 'Computer Modern Sans Serif', 'Lucida Grande', 'Verdana', 'Geneva', 'Lucid', 'Arial', 'Helvetica', 'Avant Garde', sans-serif; text-anchor: middle" x="562.753438" y="110.42" transform="rotate(-90 562.753438 110.42)">hw(data)</text>
    </g>
   </g>
   <g id="line2d_20">
    <path d="M 78.168182 97.482338 
L 79.878879 76.782078 
L 81.589576 66.431948 
L 83.300274 118.182597 
L 85.010971 45.731688 
L 86.721668 81.957143 
L 88.432366 35.381558 
L 90.143063 200.983636 
L 91.85376 76.782078 
L 93.564458 164.758182 
L 95.275155 81.957143 
L 96.985853 113.007532 
L 98.69655 56.081818 
L 100.407247 71.607013 
L 102.117945 102.657403 
L 103.828642 66.431948 
L 105.539339 71.607013 
L 107.250037 45.731688 
L 108.960734 128.532727 
L 110.671431 76.782078 
L 112.382129 87.132208 
L 114.092826 56.081818 
L 115.803523 113.007532 
L 117.514221 76.782078 
L 119.224918 118.182597 
L 120.935615 102.657403 
L 122.646313 102.657403 
L 124.35701 128.532727 
L 126.067707 92.307273 
L 127.778405 35.381558 
L 129.489102 113.007532 
L 131.199799 87.132208 
L 132.910497 66.431948 
L 134.621194 76.782078 
L 136.331891 61.256883 
L 138.042589 92.307273 
L 139.753286 40.556623 
L 141.463983 107.832468 
L 143.174681 133.707792 
L 144.885378 92.307273 
L 146.596075 92.307273 
L 148.306773 164.758182 
L 150.01747 87.132208 
L 151.728167 118.182597 
L 153.438865 107.832468 
L 155.149562 50.906753 
L 156.860259 102.657403 
L 158.570957 87.132208 
L 160.281654 138.882857 
L 161.992351 113.007532 
L 163.703049 61.256883 
L 165.413746 71.607013 
L 167.124443 35.381558 
L 168.835141 144.057922 
L 170.545838 40.556623 
L 172.256535 123.357662 
L 173.967233 107.832468 
L 175.67793 61.256883 
L 177.388627 159.583117 
L 179.099325 92.307273 
L 180.810022 128.532727 
L 182.520719 138.882857 
L 184.231417 76.782078 
L 185.942114 35.381558 
L 187.652811 66.431948 
L 189.363509 128.532727 
L 191.074206 87.132208 
L 192.784903 102.657403 
L 194.495601 35.381558 
L 196.206298 149.232987 
L 197.916995 149.232987 
L 199.627693 123.357662 
L 201.33839 87.132208 
L 203.049087 61.256883 
L 204.759785 56.081818 
L 206.470482 149.232987 
L 208.181179 35.381558 
L 209.891877 107.832468 
L 211.602574 40.556623 
L 213.313271 76.782078 
L 215.023969 40.556623 
L 216.734666 66.431948 
L 218.445363 35.381558 
L 220.156061 66.431948 
L 221.866758 113.007532 
L 223.577455 185.458442 
L 225.288153 164.758182 
L 226.99885 123.357662 
L 228.709547 102.657403 
L 230.420245 118.182597 
L 232.130942 128.532727 
L 233.841639 97.482338 
L 235.552337 56.081818 
L 237.263034 92.307273 
L 238.973731 133.707792 
L 240.684429 128.532727 
L 242.395126 50.906753 
L 244.105823 149.232987 
L 245.816521 107.832468 
L 247.527218 19.856364 
L 249.237915 123.357662 
L 250.948613 113.007532 
L 252.65931 123.357662 
L 257.791402 107.832468 
L 261.212797 45.731688 
L 262.923494 87.132208 
L 264.634191 92.307273 
L 266.344889 56.081818 
L 268.055586 92.307273 
L 269.766283 56.081818 
L 271.476981 56.081818 
L 273.187678 61.256883 
L 274.898375 45.731688 
L 276.609073 76.782078 
L 278.31977 87.132208 
L 281.741165 190.633506 
L 283.451862 133.707792 
L 285.162559 66.431948 
L 286.873257 164.758182 
L 288.583954 45.731688 
L 290.294651 81.957143 
L 292.005349 56.081818 
L 293.716046 128.532727 
L 295.426743 81.957143 
L 297.137441 138.882857 
L 298.848138 81.957143 
L 300.558835 71.607013 
L 302.269533 71.607013 
L 303.98023 128.532727 
L 305.690927 149.232987 
L 307.401625 61.256883 
L 309.112322 113.007532 
L 312.533717 40.556623 
L 314.244414 92.307273 
L 315.955111 133.707792 
L 317.665809 92.307273 
L 319.376506 154.408052 
L 321.087203 175.108312 
L 322.797901 87.132208 
L 324.508598 30.206494 
L 326.219295 144.057922 
L 327.929993 87.132208 
L 329.64069 76.782078 
L 331.351387 123.357662 
L 333.062085 61.256883 
L 334.772782 66.431948 
L 336.483479 61.256883 
L 338.194177 92.307273 
L 341.615571 92.307273 
L 343.326269 56.081818 
L 345.036966 154.408052 
L 346.747663 66.431948 
L 348.458361 71.607013 
L 350.169058 138.882857 
L 351.879755 118.182597 
L 353.590453 87.132208 
L 355.30115 45.731688 
L 358.722545 35.381558 
L 360.433242 133.707792 
L 362.143939 169.933247 
L 363.854637 25.031429 
L 365.565334 128.532727 
L 367.276031 87.132208 
L 368.986729 71.607013 
L 370.697426 71.607013 
L 372.408123 66.431948 
L 374.118821 175.108312 
L 375.829518 71.607013 
L 377.540215 87.132208 
L 379.250913 71.607013 
L 380.96161 87.132208 
L 382.672307 144.057922 
L 384.383005 81.957143 
L 386.093702 138.882857 
L 387.804399 118.182597 
L 389.515097 66.431948 
L 391.225794 102.657403 
L 392.936491 50.906753 
L 394.647189 169.933247 
L 396.357886 118.182597 
L 398.068583 61.256883 
L 399.779281 92.307273 
L 401.489978 113.007532 
L 403.200675 190.633506 
L 404.911373 138.882857 
L 406.62207 56.081818 
L 408.332767 45.731688 
L 410.043465 25.031429 
L 411.754162 87.132208 
L 413.464859 107.832468 
L 415.175557 102.657403 
L 416.886254 61.256883 
L 418.596951 66.431948 
L 420.307649 113.007532 
L 422.018346 123.357662 
L 423.729043 81.957143 
L 425.439741 71.607013 
L 427.150438 71.607013 
L 428.861135 113.007532 
L 430.571833 102.657403 
L 432.28253 66.431948 
L 433.993227 87.132208 
L 435.703925 118.182597 
L 437.414622 154.408052 
L 439.125319 92.307273 
L 440.836017 118.182597 
L 442.546714 102.657403 
L 444.257411 144.057922 
L 445.968109 45.731688 
L 447.678806 71.607013 
L 449.389503 133.707792 
L 451.100201 97.482338 
L 452.810898 87.132208 
L 454.521595 87.132208 
L 456.232293 56.081818 
L 457.94299 133.707792 
L 459.653687 50.906753 
L 461.364385 81.957143 
L 463.075082 92.307273 
L 464.785779 128.532727 
L 466.496477 118.182597 
L 468.207174 118.182597 
L 469.917871 71.607013 
L 471.628569 87.132208 
L 473.339266 87.132208 
L 475.049963 107.832468 
L 476.760661 56.081818 
L 478.471358 97.482338 
L 480.182055 45.731688 
L 481.892753 144.057922 
L 483.60345 118.182597 
L 485.314147 97.482338 
L 487.024845 35.381558 
L 488.735542 185.458442 
L 490.44624 113.007532 
L 492.156937 195.808571 
L 493.867634 56.081818 
L 495.578332 45.731688 
L 497.289029 56.081818 
L 498.999726 164.758182 
L 500.710424 61.256883 
L 502.421121 71.607013 
L 504.131818 40.556623 
L 504.131818 40.556623 
" clip-path="url(#p3557255f22)" style="fill: none; stroke: #235996; stroke-width: 0.8; stroke-linecap: square"/>
   </g>
   <g id="patch_7">
    <path d="M 56.87 210.04 
L 56.87 10.8 
" style="fill: none; stroke: #000000; stroke-width: 0.8; stroke-linejoin: miter; stroke-linecap: square"/>
   </g>
   <g id="patch_8">
    <path d="M 525.43 210.04 
L 525.43 10.8 
" style="fill: none; stroke: #000000; stroke-width: 0.8; stroke-linejoin: miter; stroke-linecap: square"/>
   </g>
   <g id="patch_9">
    <path d="M 56.87 210.04 
L 525.43 210.04 
" style="fill: none; stroke: #000000; stroke-width: 0.8; stroke-linejoin: miter; stroke-linecap: square"/>
   </g>
   <g id="patch_10">
    <path d="M 56.87 10.8 
L 525.43 10.8 
" style="fill: none; stroke: #000000; stroke-width: 0.8; stroke-linejoin: miter; stroke-linecap: square"/>
   </g>
   <g id="legend_1">
    <g id="patch_11">
     <path d="M 150.539625 43.4565 
L 431.760375 43.4565 
Q 434.640375 43.4565 434.640375 40.5765 
L 434.640375 20.88 
Q 434.640375 18 431.760375 18 
L 150.539625 18 
Q 147.659625 18 147.659625 20.88 
L 147.659625 40.5765 
Q 147.659625 43.4565 150.539625 43.4565 
z
" style="fill: #ffffff; opacity: 0.8; stroke: #000000; stroke-linejoin: miter"/>
    </g>
    <g id="line2d_21">
     <path d="M 153.419625 29.66175 
L 167.819625 29.66175 
L 182.219625 29.66175 
" style="fill: none; stroke: #99004d; stroke-width: 0.8; stroke-linecap: square"/>
    </g>
    <g id="text_22">
     <text style="font: 14.4px 'DejaVu Sans', 'Bitstream Vera Sans', 'Computer Modern Sans Serif', 'Lucida Grande', 'Verdana', 'Geneva', 'Lucid', 'Arial', 'Helvetica', 'Avant Garde', sans-serif; text-anchor: start" x="193.739625" y="34.70175" transform="rotate(-0 193.739625 34.70175)">power</text>
    </g>
    <g id="line2d_22">
     <path d="M 267.049125 29.66175 
L 281.449125 29.66175 
L 295.849125 29.66175 
" style="fill: none; stroke: #235996; stroke-width: 0.8; stroke-linecap: square"/>
    </g>
    <g id="text_23">
     <text style="font: 14.4px 'DejaVu Sans', 'Bitstream Vera Sans', 'Computer Modern Sans Serif', 'Lucida Grande', 'Verdana', 'Geneva', 'Lucid', 'Arial', 'Helvetica', 'Avant Garde', sans-serif; text-anchor: start" x="307.369125" y="34.70175" transform="rotate(-0 307.369125 34.70175)">hw(rs1)+hw(rs2)</text>
    </g>
   </g>
  </g>
 </g>
 <defs>
  <clipPath id="p3557255f22">
   <rect x="56.87" y="10.8" width="468.56" height="199.24"/>
  </clipPath>
 </defs>
</svg>
