<?xml version="1.0" encoding="utf-8" standalone="no"?>
<!DOCTYPE svg PUBLIC "-//W3C//DTD SVG 1.1//EN"
  "http://www.w3.org/Graphics/SVG/1.1/DTD/svg11.dtd">
<svg xmlns:xlink="http://www.w3.org/1999/xlink" width="576pt" height="252pt" viewBox="0 0 576 252" xmlns="http://www.w3.org/2000/svg" version="1.1">
 <metadata>
  <rdf:RDF xmlns:dc="http://purl.org/dc/elements/1.1/" xmlns:cc="http://creativecommons.org/ns#" xmlns:rdf="http://www.w3.org/1999/02/22-rdf-syntax-ns#">
   <cc:Work>
    <dc:type rdf:resource="http://purl.org/dc/dcmitype/StillImage"/>
    <dc:date>2023-12-05T19:41:32.538375</dc:date>
    <dc:format>image/svg+xml</dc:format>
    <dc:creator>
     <cc:Agent>
      <dc:title>Matplotlib v3.7.4, https://matplotlib.org/</dc:title>
     </cc:Agent>
    </dc:creator>
   </cc:Work>
  </rdf:RDF>
 </metadata>
 <defs>
  <style type="text/css">*{stroke-linejoin: round; stroke-linecap: butt}</style>
 </defs>
 <g id="figure_1">
  <g id="patch_1">
   <path d="M 0 252 
L 576 252 
L 576 0 
L 0 0 
z
" style="fill: #ffffff"/>
  </g>
  <g id="axes_1">
   <g id="patch_2">
    <path d="M 44.57 210.04 
L 565.2 210.04 
L 565.2 10.8 
L 44.57 10.8 
z
" style="fill: #ffffff"/>
   </g>
   <g id="matplotlib.axis_1">
    <g id="xtick_1">
     <g id="line2d_1">
      <defs>
       <path id="m8e655b9890" d="M 0 0 
L 0 3.5 
" style="stroke: #000000; stroke-width: 0.8"/>
      </defs>
      <g>
       <use xlink:href="#m8e655b9890" x="68.235" y="210.04" style="stroke: #000000; stroke-width: 0.8"/>
      </g>
     </g>
     <g id="text_1">
      <text style="font: 10px 'DejaVu Sans', 'Bitstream Vera Sans', 'Computer Modern Sans Serif', 'Lucida Grande', 'Verdana', 'Geneva', 'Lucid', 'Arial', 'Helvetica', 'Avant Garde', sans-serif; text-anchor: middle" x="68.235" y="224.638438" transform="rotate(-0 68.235 224.638438)">0</text>
     </g>
    </g>
    <g id="xtick_2">
     <g id="line2d_2">
      <g>
       <use xlink:href="#m8e655b9890" x="165.024366" y="210.04" style="stroke: #000000; stroke-width: 0.8"/>
      </g>
     </g>
     <g id="text_2">
      <text style="font: 10px 'DejaVu Sans', 'Bitstream Vera Sans', 'Computer Modern Sans Serif', 'Lucida Grande', 'Verdana', 'Geneva', 'Lucid', 'Arial', 'Helvetica', 'Avant Garde', sans-serif; text-anchor: middle" x="165.024366" y="224.638438" transform="rotate(-0 165.024366 224.638438)">100</text>
     </g>
    </g>
    <g id="xtick_3">
     <g id="line2d_3">
      <g>
       <use xlink:href="#m8e655b9890" x="261.813732" y="210.04" style="stroke: #000000; stroke-width: 0.8"/>
      </g>
     </g>
     <g id="text_3">
      <text style="font: 10px 'DejaVu Sans', 'Bitstream Vera Sans', 'Computer Modern Sans Serif', 'Lucida Grande', 'Verdana', 'Geneva', 'Lucid', 'Arial', 'Helvetica', 'Avant Garde', sans-serif; text-anchor: middle" x="261.813732" y="224.638438" transform="rotate(-0 261.813732 224.638438)">200</text>
     </g>
    </g>
    <g id="xtick_4">
     <g id="line2d_4">
      <g>
       <use xlink:href="#m8e655b9890" x="358.603098" y="210.04" style="stroke: #000000; stroke-width: 0.8"/>
      </g>
     </g>
     <g id="text_4">
      <text style="font: 10px 'DejaVu Sans', 'Bitstream Vera Sans', 'Computer Modern Sans Serif', 'Lucida Grande', 'Verdana', 'Geneva', 'Lucid', 'Arial', 'Helvetica', 'Avant Garde', sans-serif; text-anchor: middle" x="358.603098" y="224.638438" transform="rotate(-0 358.603098 224.638438)">300</text>
     </g>
    </g>
    <g id="xtick_5">
     <g id="line2d_5">
      <g>
       <use xlink:href="#m8e655b9890" x="455.392464" y="210.04" style="stroke: #000000; stroke-width: 0.8"/>
      </g>
     </g>
     <g id="text_5">
      <text style="font: 10px 'DejaVu Sans', 'Bitstream Vera Sans', 'Computer Modern Sans Serif', 'Lucida Grande', 'Verdana', 'Geneva', 'Lucid', 'Arial', 'Helvetica', 'Avant Garde', sans-serif; text-anchor: middle" x="455.392464" y="224.638438" transform="rotate(-0 455.392464 224.638438)">400</text>
     </g>
    </g>
    <g id="xtick_6">
     <g id="line2d_6">
      <g>
       <use xlink:href="#m8e655b9890" x="552.18183" y="210.04" style="stroke: #000000; stroke-width: 0.8"/>
      </g>
     </g>
     <g id="text_6">
      <text style="font: 10px 'DejaVu Sans', 'Bitstream Vera Sans', 'Computer Modern Sans Serif', 'Lucida Grande', 'Verdana', 'Geneva', 'Lucid', 'Arial', 'Helvetica', 'Avant Garde', sans-serif; text-anchor: middle" x="552.18183" y="224.638438" transform="rotate(-0 552.18183 224.638438)">500</text>
     </g>
    </g>
    <g id="text_7">
     <text style="font: 10px 'DejaVu Sans', 'Bitstream Vera Sans', 'Computer Modern Sans Serif', 'Lucida Grande', 'Verdana', 'Geneva', 'Lucid', 'Arial', 'Helvetica', 'Avant Garde', sans-serif; text-anchor: middle" x="304.885" y="238.316563" transform="rotate(-0 304.885 238.316563)">Iterations</text>
    </g>
   </g>
   <g id="matplotlib.axis_2">
    <g id="ytick_1">
     <g id="line2d_7">
      <defs>
       <path id="mbcadd9820e" d="M 0 0 
L -3.5 0 
" style="stroke: #000000; stroke-width: 0.8"/>
      </defs>
      <g>
       <use xlink:href="#mbcadd9820e" x="44.57" y="200.983636" style="stroke: #000000; stroke-width: 0.8"/>
      </g>
     </g>
     <g id="text_8">
      <text style="font: 10px 'DejaVu Sans', 'Bitstream Vera Sans', 'Computer Modern Sans Serif', 'Lucida Grande', 'Verdana', 'Geneva', 'Lucid', 'Arial', 'Helvetica', 'Avant Garde', sans-serif; text-anchor: end" x="37.57" y="204.782855" transform="rotate(-0 37.57 204.782855)">0</text>
     </g>
    </g>
    <g id="ytick_2">
     <g id="line2d_8">
      <g>
       <use xlink:href="#mbcadd9820e" x="44.57" y="159.818347" style="stroke: #000000; stroke-width: 0.8"/>
      </g>
     </g>
     <g id="text_9">
      <text style="font: 10px 'DejaVu Sans', 'Bitstream Vera Sans', 'Computer Modern Sans Serif', 'Lucida Grande', 'Verdana', 'Geneva', 'Lucid', 'Arial', 'Helvetica', 'Avant Garde', sans-serif; text-anchor: end" x="37.57" y="163.617566" transform="rotate(-0 37.57 163.617566)">10</text>
     </g>
    </g>
    <g id="ytick_3">
     <g id="line2d_9">
      <g>
       <use xlink:href="#mbcadd9820e" x="44.57" y="118.653058" style="stroke: #000000; stroke-width: 0.8"/>
      </g>
     </g>
     <g id="text_10">
      <text style="font: 10px 'DejaVu Sans', 'Bitstream Vera Sans', 'Computer Modern Sans Serif', 'Lucida Grande', 'Verdana', 'Geneva', 'Lucid', 'Arial', 'Helvetica', 'Avant Garde', sans-serif; text-anchor: end" x="37.57" y="122.452277" transform="rotate(-0 37.57 122.452277)">20</text>
     </g>
    </g>
    <g id="ytick_4">
     <g id="line2d_10">
      <g>
       <use xlink:href="#mbcadd9820e" x="44.57" y="77.487769" style="stroke: #000000; stroke-width: 0.8"/>
      </g>
     </g>
     <g id="text_11">
      <text style="font: 10px 'DejaVu Sans', 'Bitstream Vera Sans', 'Computer Modern Sans Serif', 'Lucida Grande', 'Verdana', 'Geneva', 'Lucid', 'Arial', 'Helvetica', 'Avant Garde', sans-serif; text-anchor: end" x="37.57" y="81.286987" transform="rotate(-0 37.57 81.286987)">30</text>
     </g>
    </g>
    <g id="ytick_5">
     <g id="line2d_11">
      <g>
       <use xlink:href="#mbcadd9820e" x="44.57" y="36.322479" style="stroke: #000000; stroke-width: 0.8"/>
      </g>
     </g>
     <g id="text_12">
      <text style="font: 10px 'DejaVu Sans', 'Bitstream Vera Sans', 'Computer Modern Sans Serif', 'Lucida Grande', 'Verdana', 'Geneva', 'Lucid', 'Arial', 'Helvetica', 'Avant Garde', sans-serif; text-anchor: end" x="37.57" y="40.121698" transform="rotate(-0 37.57 40.121698)">40</text>
     </g>
    </g>
    <g id="text_13">
     <text style="font: 10px 'DejaVu Sans', 'Bitstream Vera Sans', 'Computer Modern Sans Serif', 'Lucida Grande', 'Verdana', 'Geneva', 'Lucid', 'Arial', 'Helvetica', 'Avant Garde', sans-serif; text-anchor: middle" x="18.765313" y="110.42" transform="rotate(-90 18.765313 110.42)">Randomness</text>
    </g>
   </g>
   <g id="line2d_12">
    <path d="M 68.235 36.322479 
L 69.202894 69.254711 
L 70.170787 69.254711 
L 71.138681 77.487769 
L 72.106575 106.303471 
L 73.074468 81.604298 
L 74.042362 44.555537 
L 75.010256 65.138182 
L 75.978149 77.487769 
L 76.946043 36.322479 
L 77.913937 65.138182 
L 78.88183 81.604298 
L 79.849724 85.720826 
L 80.817618 61.021653 
L 81.785511 89.837355 
L 82.753405 61.021653 
L 83.721299 81.604298 
L 84.689192 56.905124 
L 85.657086 69.254711 
L 86.62498 36.322479 
L 87.592873 81.604298 
L 88.560767 69.254711 
L 89.528661 73.37124 
L 90.496554 85.720826 
L 91.464448 81.604298 
L 92.432342 73.37124 
L 93.400235 73.37124 
L 94.368129 98.070413 
L 95.336022 81.604298 
L 96.303916 52.788595 
L 98.239703 52.788595 
L 99.207597 28.089421 
L 100.175491 77.487769 
L 101.143384 85.720826 
L 102.111278 32.20595 
L 103.079172 56.905124 
L 105.982853 44.555537 
L 106.950746 52.788595 
L 107.91864 89.837355 
L 108.886534 61.021653 
L 109.854427 81.604298 
L 110.822321 65.138182 
L 111.790215 85.720826 
L 112.758108 85.720826 
L 113.726002 19.856364 
L 114.693896 77.487769 
L 115.661789 32.20595 
L 116.629683 65.138182 
L 117.597577 61.021653 
L 118.56547 73.37124 
L 119.533364 69.254711 
L 120.501258 61.021653 
L 121.469151 93.953884 
L 122.437045 48.672066 
L 123.404939 98.070413 
L 124.372832 56.905124 
L 125.340726 85.720826 
L 126.30862 85.720826 
L 127.276513 102.186942 
L 128.244407 77.487769 
L 129.212301 110.42 
L 130.180194 81.604298 
L 131.148088 73.37124 
L 132.115982 85.720826 
L 133.083875 56.905124 
L 134.051769 81.604298 
L 135.019663 69.254711 
L 135.987556 77.487769 
L 136.95545 52.788595 
L 137.923344 69.254711 
L 138.891237 77.487769 
L 139.859131 65.138182 
L 140.827025 65.138182 
L 141.794918 52.788595 
L 143.730706 102.186942 
L 144.698599 56.905124 
L 145.666493 102.186942 
L 146.634387 48.672066 
L 147.60228 98.070413 
L 148.570174 85.720826 
L 149.538067 69.254711 
L 150.505961 81.604298 
L 151.473855 85.720826 
L 152.441748 52.788595 
L 153.409642 65.138182 
L 154.377536 65.138182 
L 155.345429 77.487769 
L 156.313323 52.788595 
L 157.281217 81.604298 
L 158.24911 89.837355 
L 159.217004 81.604298 
L 160.184898 36.322479 
L 161.152791 73.37124 
L 162.120685 48.672066 
L 163.088579 56.905124 
L 164.056472 73.37124 
L 165.024366 56.905124 
L 165.99226 98.070413 
L 166.960153 69.254711 
L 167.928047 69.254711 
L 168.895941 73.37124 
L 169.863834 52.788595 
L 171.799622 69.254711 
L 172.767515 56.905124 
L 173.735409 56.905124 
L 174.703303 52.788595 
L 175.671196 89.837355 
L 176.63909 85.720826 
L 177.606984 61.021653 
L 178.574877 69.254711 
L 179.542771 73.37124 
L 180.510665 98.070413 
L 181.478558 36.322479 
L 182.446452 61.021653 
L 183.414346 102.186942 
L 184.382239 48.672066 
L 185.350133 69.254711 
L 187.28592 85.720826 
L 188.253814 89.837355 
L 189.221708 44.555537 
L 190.189601 56.905124 
L 191.157495 77.487769 
L 192.125389 69.254711 
L 193.093282 93.953884 
L 194.061176 48.672066 
L 195.02907 77.487769 
L 195.996963 73.37124 
L 196.964857 106.303471 
L 197.932751 73.37124 
L 198.900644 65.138182 
L 199.868538 52.788595 
L 200.836431 65.138182 
L 201.804325 89.837355 
L 202.772219 69.254711 
L 203.740112 69.254711 
L 205.6759 85.720826 
L 206.643793 73.37124 
L 207.611687 85.720826 
L 208.579581 48.672066 
L 209.547474 52.788595 
L 211.483262 77.487769 
L 212.451155 56.905124 
L 213.419049 85.720826 
L 214.386943 69.254711 
L 215.354836 73.37124 
L 216.32273 52.788595 
L 217.290624 85.720826 
L 218.258517 73.37124 
L 219.226411 69.254711 
L 220.194305 81.604298 
L 221.162198 65.138182 
L 222.130092 77.487769 
L 223.097986 61.021653 
L 224.065879 61.021653 
L 226.001667 69.254711 
L 226.96956 69.254711 
L 227.937454 73.37124 
L 228.905348 73.37124 
L 229.873241 85.720826 
L 230.841135 114.536529 
L 231.809029 69.254711 
L 232.776922 61.021653 
L 233.744816 81.604298 
L 234.71271 61.021653 
L 235.680603 32.20595 
L 236.648497 93.953884 
L 237.616391 61.021653 
L 238.584284 61.021653 
L 240.520072 36.322479 
L 241.487965 65.138182 
L 242.455859 73.37124 
L 243.423753 77.487769 
L 244.391646 73.37124 
L 245.35954 61.021653 
L 247.295327 93.953884 
L 248.263221 69.254711 
L 249.231115 48.672066 
L 250.199008 61.021653 
L 252.134796 69.254711 
L 253.102689 56.905124 
L 254.070583 61.021653 
L 255.038476 81.604298 
L 256.00637 73.37124 
L 256.974264 89.837355 
L 257.942157 69.254711 
L 258.910051 93.953884 
L 259.877945 77.487769 
L 260.845838 77.487769 
L 261.813732 85.720826 
L 262.781626 61.021653 
L 263.749519 65.138182 
L 264.717413 73.37124 
L 265.685307 89.837355 
L 266.6532 48.672066 
L 267.621094 77.487769 
L 268.588988 81.604298 
L 269.556881 65.138182 
L 270.524775 69.254711 
L 271.492669 77.487769 
L 272.460562 44.555537 
L 273.428456 73.37124 
L 274.39635 93.953884 
L 275.364243 61.021653 
L 277.300031 69.254711 
L 278.267924 77.487769 
L 279.235818 48.672066 
L 280.203712 61.021653 
L 281.171605 69.254711 
L 282.139499 93.953884 
L 284.075286 52.788595 
L 285.04318 77.487769 
L 286.011074 48.672066 
L 286.978967 69.254711 
L 288.914755 52.788595 
L 289.882648 56.905124 
L 291.818436 73.37124 
L 292.786329 48.672066 
L 293.754223 81.604298 
L 294.722117 85.720826 
L 295.69001 81.604298 
L 296.657904 85.720826 
L 297.625798 69.254711 
L 298.593691 77.487769 
L 299.561585 23.972893 
L 300.529479 69.254711 
L 301.497372 32.20595 
L 302.465266 73.37124 
L 303.43316 44.555537 
L 304.401053 73.37124 
L 305.368947 52.788595 
L 306.33684 73.37124 
L 308.272628 81.604298 
L 309.240521 102.186942 
L 310.208415 98.070413 
L 311.176309 61.021653 
L 312.144202 61.021653 
L 313.112096 65.138182 
L 314.07999 77.487769 
L 315.047883 81.604298 
L 316.015777 73.37124 
L 316.983671 69.254711 
L 317.951564 48.672066 
L 318.919458 36.322479 
L 319.887352 81.604298 
L 320.855245 73.37124 
L 321.823139 69.254711 
L 322.791033 102.186942 
L 323.758926 98.070413 
L 324.72682 65.138182 
L 325.694714 48.672066 
L 326.662607 81.604298 
L 327.630501 56.905124 
L 328.598395 73.37124 
L 329.566288 98.070413 
L 330.534182 81.604298 
L 331.502076 106.303471 
L 332.469969 69.254711 
L 333.437863 52.788595 
L 334.405757 81.604298 
L 335.37365 48.672066 
L 336.341544 106.303471 
L 337.309438 77.487769 
L 338.277331 85.720826 
L 339.245225 56.905124 
L 340.213119 69.254711 
L 341.181012 56.905124 
L 344.084693 81.604298 
L 345.052587 65.138182 
L 346.020481 69.254711 
L 346.988374 98.070413 
L 347.956268 73.37124 
L 348.924162 89.837355 
L 349.892055 65.138182 
L 350.859949 52.788595 
L 351.827843 77.487769 
L 352.795736 52.788595 
L 353.76363 81.604298 
L 354.731524 77.487769 
L 355.699417 77.487769 
L 356.667311 69.254711 
L 357.635204 44.555537 
L 358.603098 56.905124 
L 359.570992 36.322479 
L 360.538885 69.254711 
L 361.506779 81.604298 
L 362.474673 65.138182 
L 363.442566 81.604298 
L 364.41046 73.37124 
L 365.378354 118.653058 
L 366.346247 52.788595 
L 367.314141 102.186942 
L 368.282035 69.254711 
L 369.249928 81.604298 
L 370.217822 69.254711 
L 371.185716 69.254711 
L 372.153609 61.021653 
L 373.121503 85.720826 
L 374.089397 61.021653 
L 375.05729 69.254711 
L 376.025184 93.953884 
L 376.993078 61.021653 
L 377.960971 102.186942 
L 378.928865 56.905124 
L 379.896759 81.604298 
L 380.864652 77.487769 
L 381.832546 52.788595 
L 382.80044 56.905124 
L 383.768333 40.439008 
L 384.736227 85.720826 
L 385.704121 69.254711 
L 386.672014 93.953884 
L 387.639908 52.788595 
L 388.607802 56.905124 
L 389.575695 77.487769 
L 390.543589 69.254711 
L 391.511483 77.487769 
L 392.479376 52.788595 
L 393.44727 89.837355 
L 394.415164 73.37124 
L 395.383057 40.439008 
L 396.350951 81.604298 
L 397.318845 81.604298 
L 398.286738 89.837355 
L 399.254632 52.788595 
L 400.222526 73.37124 
L 401.190419 69.254711 
L 402.158313 73.37124 
L 403.126207 52.788595 
L 404.0941 73.37124 
L 405.061994 89.837355 
L 406.029888 73.37124 
L 406.997781 77.487769 
L 407.965675 73.37124 
L 408.933569 77.487769 
L 409.901462 89.837355 
L 410.869356 61.021653 
L 411.837249 69.254711 
L 412.805143 56.905124 
L 413.773037 85.720826 
L 414.74093 52.788595 
L 415.708824 81.604298 
L 416.676718 69.254711 
L 417.644611 85.720826 
L 418.612505 61.021653 
L 419.580399 56.905124 
L 420.548292 102.186942 
L 421.516186 77.487769 
L 422.48408 77.487769 
L 423.451973 69.254711 
L 424.419867 73.37124 
L 425.387761 56.905124 
L 426.355654 61.021653 
L 427.323548 85.720826 
L 428.291442 56.905124 
L 429.259335 89.837355 
L 430.227229 52.788595 
L 431.195123 85.720826 
L 432.163016 69.254711 
L 433.13091 77.487769 
L 434.098804 73.37124 
L 435.066697 85.720826 
L 436.034591 69.254711 
L 437.002485 89.837355 
L 437.970378 102.186942 
L 438.938272 65.138182 
L 439.906166 93.953884 
L 440.874059 32.20595 
L 441.841953 89.837355 
L 442.809847 69.254711 
L 443.77774 52.788595 
L 444.745634 61.021653 
L 445.713528 93.953884 
L 447.649315 61.021653 
L 448.617209 61.021653 
L 449.585102 44.555537 
L 450.552996 102.186942 
L 451.52089 77.487769 
L 452.488783 56.905124 
L 453.456677 77.487769 
L 454.424571 77.487769 
L 455.392464 61.021653 
L 456.360358 61.021653 
L 458.296145 102.186942 
L 459.264039 77.487769 
L 460.231933 65.138182 
L 461.199826 56.905124 
L 462.16772 61.021653 
L 463.135613 89.837355 
L 464.103507 89.837355 
L 465.071401 85.720826 
L 466.039294 77.487769 
L 467.007188 85.720826 
L 467.975082 65.138182 
L 468.942975 81.604298 
L 469.910869 89.837355 
L 470.878763 28.089421 
L 471.846656 69.254711 
L 472.81455 65.138182 
L 473.782444 85.720826 
L 474.750337 61.021653 
L 475.718231 73.37124 
L 476.686125 44.555537 
L 477.654018 65.138182 
L 478.621912 48.672066 
L 479.589806 85.720826 
L 480.557699 56.905124 
L 481.525593 69.254711 
L 482.493487 61.021653 
L 483.46138 85.720826 
L 484.429274 69.254711 
L 485.397168 81.604298 
L 486.365061 65.138182 
L 487.332955 89.837355 
L 488.300849 52.788595 
L 489.268742 93.953884 
L 490.236636 65.138182 
L 491.20453 85.720826 
L 492.172423 44.555537 
L 493.140317 89.837355 
L 494.108211 44.555537 
L 495.076104 56.905124 
L 496.043998 56.905124 
L 497.011892 61.021653 
L 497.979785 69.254711 
L 498.947679 106.303471 
L 499.915573 73.37124 
L 500.883466 69.254711 
L 501.85136 77.487769 
L 502.819254 81.604298 
L 503.787147 44.555537 
L 504.755041 56.905124 
L 505.722935 48.672066 
L 506.690828 106.303471 
L 507.658722 65.138182 
L 508.626616 48.672066 
L 509.594509 93.953884 
L 510.562403 77.487769 
L 511.530297 69.254711 
L 512.49819 89.837355 
L 513.466084 69.254711 
L 514.433978 69.254711 
L 515.401871 65.138182 
L 516.369765 69.254711 
L 517.337658 61.021653 
L 518.305552 89.837355 
L 519.273446 52.788595 
L 520.241339 81.604298 
L 521.209233 52.788595 
L 522.177127 65.138182 
L 523.14502 69.254711 
L 524.112914 81.604298 
L 525.080808 73.37124 
L 527.016595 73.37124 
L 527.984489 52.788595 
L 528.952382 81.604298 
L 529.920276 28.089421 
L 530.88817 81.604298 
L 531.856063 61.021653 
L 532.823957 77.487769 
L 533.791851 65.138182 
L 534.759744 65.138182 
L 535.727638 44.555537 
L 536.695532 89.837355 
L 537.663425 69.254711 
L 538.631319 61.021653 
L 539.599213 48.672066 
L 540.567106 69.254711 
L 541.535 81.604298 
L 541.535 81.604298 
" clip-path="url(#pb0ca9ebbe4)" style="fill: none; stroke: #99004d; stroke-width: 0.8; stroke-linecap: square"/>
   </g>
   <g id="line2d_13">
    <path d="M 68.235 102.186942 
L 69.202894 85.720826 
L 70.170787 159.818347 
L 71.138681 176.284463 
L 72.106575 155.701818 
L 73.074468 93.953884 
L 74.042362 56.905124 
L 75.010256 102.186942 
L 75.978149 77.487769 
L 76.946043 61.021653 
L 77.913937 89.837355 
L 78.88183 102.186942 
L 79.849724 163.934876 
L 80.817618 61.021653 
L 81.785511 65.138182 
L 82.753405 159.818347 
L 83.721299 110.42 
L 84.689192 143.352231 
L 85.657086 114.536529 
L 86.62498 163.934876 
L 87.592873 159.818347 
L 88.560767 122.769587 
L 89.528661 77.487769 
L 90.496554 151.585289 
L 91.464448 159.818347 
L 92.432342 163.934876 
L 93.400235 61.021653 
L 94.368129 77.487769 
L 95.336022 172.167934 
L 96.303916 184.517521 
L 97.27181 93.953884 
L 98.239703 131.002645 
L 99.207597 180.400992 
L 100.175491 102.186942 
L 101.143384 69.254711 
L 102.111278 139.235702 
L 103.079172 184.517521 
L 104.047065 77.487769 
L 105.982853 77.487769 
L 106.950746 200.983636 
L 107.91864 65.138182 
L 108.886534 98.070413 
L 109.854427 159.818347 
L 110.822321 93.953884 
L 111.790215 147.46876 
L 112.758108 110.42 
L 113.726002 65.138182 
L 114.693896 139.235702 
L 115.661789 102.186942 
L 116.629683 114.536529 
L 117.597577 176.284463 
L 118.56547 77.487769 
L 119.533364 81.604298 
L 120.501258 176.284463 
L 121.469151 85.720826 
L 122.437045 65.138182 
L 123.404939 98.070413 
L 124.372832 85.720826 
L 125.340726 155.701818 
L 126.30862 98.070413 
L 127.276513 93.953884 
L 128.244407 143.352231 
L 129.212301 81.604298 
L 130.180194 163.934876 
L 131.148088 73.37124 
L 132.115982 200.983636 
L 133.083875 73.37124 
L 134.051769 106.303471 
L 135.019663 77.487769 
L 135.987556 93.953884 
L 136.95545 188.63405 
L 137.923344 163.934876 
L 138.891237 163.934876 
L 139.859131 172.167934 
L 140.827025 131.002645 
L 141.794918 65.138182 
L 142.762812 114.536529 
L 143.730706 52.788595 
L 144.698599 69.254711 
L 145.666493 114.536529 
L 146.634387 135.119174 
L 147.60228 184.517521 
L 148.570174 114.536529 
L 149.538067 77.487769 
L 150.505961 139.235702 
L 151.473855 168.051405 
L 152.441748 155.701818 
L 153.409642 114.536529 
L 154.377536 114.536529 
L 155.345429 81.604298 
L 156.313323 106.303471 
L 157.281217 176.284463 
L 158.24911 135.119174 
L 159.217004 139.235702 
L 160.184898 184.517521 
L 161.152791 155.701818 
L 162.120685 93.953884 
L 163.088579 184.517521 
L 164.056472 163.934876 
L 165.024366 151.585289 
L 165.99226 110.42 
L 166.960153 93.953884 
L 167.928047 102.186942 
L 168.895941 89.837355 
L 169.863834 131.002645 
L 170.831728 65.138182 
L 171.799622 98.070413 
L 172.767515 114.536529 
L 173.735409 89.837355 
L 174.703303 131.002645 
L 175.671196 192.750579 
L 176.63909 81.604298 
L 177.606984 77.487769 
L 178.574877 155.701818 
L 179.542771 102.186942 
L 181.478558 126.886116 
L 182.446452 61.021653 
L 183.414346 196.867107 
L 184.382239 77.487769 
L 185.350133 77.487769 
L 186.318027 52.788595 
L 187.28592 126.886116 
L 188.253814 65.138182 
L 189.221708 65.138182 
L 190.189601 131.002645 
L 191.157495 89.837355 
L 192.125389 188.63405 
L 193.093282 89.837355 
L 194.061176 126.886116 
L 195.02907 73.37124 
L 195.996963 168.051405 
L 196.964857 172.167934 
L 197.932751 114.536529 
L 198.900644 69.254711 
L 199.868538 73.37124 
L 201.804325 106.303471 
L 202.772219 61.021653 
L 203.740112 155.701818 
L 204.708006 180.400992 
L 205.6759 73.37124 
L 206.643793 131.002645 
L 207.611687 65.138182 
L 208.579581 110.42 
L 209.547474 139.235702 
L 210.515368 155.701818 
L 211.483262 73.37124 
L 212.451155 176.284463 
L 213.419049 131.002645 
L 214.386943 73.37124 
L 215.354836 65.138182 
L 216.32273 69.254711 
L 217.290624 131.002645 
L 218.258517 69.254711 
L 219.226411 102.186942 
L 220.194305 89.837355 
L 221.162198 81.604298 
L 222.130092 69.254711 
L 223.097986 110.42 
L 224.065879 65.138182 
L 225.033773 180.400992 
L 226.001667 93.953884 
L 226.96956 122.769587 
L 227.937454 56.905124 
L 229.873241 126.886116 
L 230.841135 77.487769 
L 231.809029 122.769587 
L 232.776922 139.235702 
L 233.744816 151.585289 
L 234.71271 139.235702 
L 235.680603 93.953884 
L 236.648497 61.021653 
L 237.616391 118.653058 
L 238.584284 159.818347 
L 239.552178 93.953884 
L 240.520072 85.720826 
L 241.487965 172.167934 
L 242.455859 89.837355 
L 243.423753 102.186942 
L 244.391646 168.051405 
L 245.35954 61.021653 
L 246.327434 89.837355 
L 248.263221 192.750579 
L 249.231115 73.37124 
L 250.199008 93.953884 
L 251.166902 135.119174 
L 252.134796 122.769587 
L 253.102689 155.701818 
L 254.070583 93.953884 
L 255.038476 196.867107 
L 256.974264 56.905124 
L 257.942157 65.138182 
L 258.910051 110.42 
L 259.877945 93.953884 
L 260.845838 98.070413 
L 261.813732 172.167934 
L 262.781626 184.517521 
L 263.749519 73.37124 
L 264.717413 135.119174 
L 265.685307 69.254711 
L 266.6532 135.119174 
L 267.621094 139.235702 
L 268.588988 135.119174 
L 269.556881 93.953884 
L 270.524775 77.487769 
L 271.492669 106.303471 
L 272.460562 110.42 
L 273.428456 196.867107 
L 274.39635 65.138182 
L 275.364243 102.186942 
L 276.332137 69.254711 
L 277.300031 139.235702 
L 278.267924 102.186942 
L 279.235818 81.604298 
L 280.203712 102.186942 
L 281.171605 69.254711 
L 282.139499 56.905124 
L 283.107393 184.517521 
L 284.075286 118.653058 
L 285.04318 89.837355 
L 286.011074 114.536529 
L 286.978967 147.46876 
L 287.946861 110.42 
L 288.914755 131.002645 
L 289.882648 106.303471 
L 290.850542 139.235702 
L 291.818436 126.886116 
L 292.786329 155.701818 
L 293.754223 73.37124 
L 294.722117 122.769587 
L 295.69001 81.604298 
L 296.657904 184.517521 
L 297.625798 77.487769 
L 299.561585 69.254711 
L 300.529479 118.653058 
L 301.497372 81.604298 
L 302.465266 159.818347 
L 303.43316 89.837355 
L 304.401053 131.002645 
L 305.368947 98.070413 
L 306.33684 180.400992 
L 307.304734 139.235702 
L 308.272628 81.604298 
L 309.240521 81.604298 
L 310.208415 114.536529 
L 311.176309 48.672066 
L 312.144202 77.487769 
L 313.112096 77.487769 
L 314.07999 118.653058 
L 315.047883 98.070413 
L 316.015777 135.119174 
L 316.983671 61.021653 
L 317.951564 143.352231 
L 318.919458 102.186942 
L 319.887352 48.672066 
L 320.855245 122.769587 
L 321.823139 143.352231 
L 322.791033 98.070413 
L 323.758926 163.934876 
L 324.72682 81.604298 
L 325.694714 143.352231 
L 326.662607 56.905124 
L 327.630501 135.119174 
L 328.598395 106.303471 
L 329.566288 65.138182 
L 330.534182 139.235702 
L 331.502076 184.517521 
L 332.469969 85.720826 
L 333.437863 69.254711 
L 334.405757 98.070413 
L 335.37365 122.769587 
L 336.341544 81.604298 
L 337.309438 98.070413 
L 338.277331 126.886116 
L 339.245225 188.63405 
L 340.213119 147.46876 
L 341.181012 73.37124 
L 342.148906 139.235702 
L 344.084693 139.235702 
L 345.052587 77.487769 
L 346.020481 196.867107 
L 346.988374 65.138182 
L 347.956268 73.37124 
L 348.924162 114.536529 
L 349.892055 163.934876 
L 350.859949 81.604298 
L 351.827843 192.750579 
L 352.795736 188.63405 
L 353.76363 93.953884 
L 354.731524 73.37124 
L 355.699417 143.352231 
L 356.667311 85.720826 
L 357.635204 118.653058 
L 358.603098 73.37124 
L 359.570992 77.487769 
L 360.538885 73.37124 
L 361.506779 155.701818 
L 362.474673 184.517521 
L 363.442566 69.254711 
L 364.41046 143.352231 
L 365.378354 98.070413 
L 366.346247 196.867107 
L 367.314141 102.186942 
L 368.282035 85.720826 
L 369.249928 172.167934 
L 370.217822 93.953884 
L 371.185716 98.070413 
L 372.153609 69.254711 
L 373.121503 98.070413 
L 374.089397 196.867107 
L 375.05729 73.37124 
L 376.025184 114.536529 
L 376.993078 69.254711 
L 377.960971 188.63405 
L 378.928865 77.487769 
L 379.896759 73.37124 
L 380.864652 65.138182 
L 381.832546 114.536529 
L 382.80044 81.604298 
L 383.768333 56.905124 
L 384.736227 168.051405 
L 385.704121 93.953884 
L 386.672014 98.070413 
L 387.639908 139.235702 
L 388.607802 69.254711 
L 389.575695 73.37124 
L 390.543589 81.604298 
L 391.511483 77.487769 
L 392.479376 61.021653 
L 393.44727 65.138182 
L 394.415164 93.953884 
L 395.383057 89.837355 
L 396.350951 73.37124 
L 397.318845 73.37124 
L 398.286738 93.953884 
L 399.254632 102.186942 
L 400.222526 184.517521 
L 401.190419 114.536529 
L 402.158313 110.42 
L 403.126207 61.021653 
L 404.0941 65.138182 
L 405.061994 102.186942 
L 406.029888 73.37124 
L 406.997781 110.42 
L 407.965675 184.517521 
L 408.933569 184.517521 
L 409.901462 143.352231 
L 411.837249 110.42 
L 412.805143 85.720826 
L 413.773037 69.254711 
L 414.74093 126.886116 
L 415.708824 110.42 
L 416.676718 131.002645 
L 417.644611 155.701818 
L 418.612505 114.536529 
L 419.580399 106.303471 
L 420.548292 118.653058 
L 421.516186 155.701818 
L 423.451973 81.604298 
L 425.387761 81.604298 
L 426.355654 69.254711 
L 427.323548 163.934876 
L 429.259335 81.604298 
L 430.227229 139.235702 
L 431.195123 110.42 
L 432.163016 106.303471 
L 433.13091 77.487769 
L 434.098804 85.720826 
L 435.066697 192.750579 
L 436.034591 65.138182 
L 437.002485 77.487769 
L 437.970378 139.235702 
L 438.938272 77.487769 
L 439.906166 110.42 
L 440.874059 102.186942 
L 441.841953 65.138182 
L 442.809847 118.653058 
L 443.77774 114.536529 
L 444.745634 163.934876 
L 445.713528 81.604298 
L 446.681421 85.720826 
L 447.649315 155.701818 
L 448.617209 65.138182 
L 449.585102 114.536529 
L 450.552996 69.254711 
L 451.52089 143.352231 
L 452.488783 69.254711 
L 453.456677 114.536529 
L 454.424571 77.487769 
L 455.392464 73.37124 
L 456.360358 155.701818 
L 457.328252 143.352231 
L 458.296145 81.604298 
L 459.264039 155.701818 
L 460.231933 106.303471 
L 461.199826 89.837355 
L 462.16772 118.653058 
L 463.135613 180.400992 
L 464.103507 81.604298 
L 465.071401 89.837355 
L 466.039294 180.400992 
L 467.007188 89.837355 
L 467.975082 106.303471 
L 468.942975 93.953884 
L 469.910869 69.254711 
L 470.878763 184.517521 
L 471.846656 147.46876 
L 472.81455 168.051405 
L 473.782444 106.303471 
L 474.750337 196.867107 
L 475.718231 114.536529 
L 476.686125 147.46876 
L 477.654018 69.254711 
L 478.621912 184.517521 
L 479.589806 65.138182 
L 480.557699 110.42 
L 481.525593 89.837355 
L 482.493487 155.701818 
L 483.46138 155.701818 
L 484.429274 135.119174 
L 485.397168 131.002645 
L 486.365061 184.517521 
L 487.332955 102.186942 
L 488.300849 118.653058 
L 489.268742 126.886116 
L 490.236636 85.720826 
L 491.20453 135.119174 
L 492.172423 93.953884 
L 493.140317 73.37124 
L 494.108211 93.953884 
L 495.076104 93.953884 
L 496.043998 151.585289 
L 497.011892 114.536529 
L 497.979785 61.021653 
L 498.947679 93.953884 
L 499.915573 69.254711 
L 500.883466 98.070413 
L 501.85136 85.720826 
L 502.819254 81.604298 
L 503.787147 69.254711 
L 504.755041 77.487769 
L 505.722935 155.701818 
L 506.690828 81.604298 
L 507.658722 200.983636 
L 508.626616 73.37124 
L 509.594509 200.983636 
L 510.562403 61.021653 
L 511.530297 200.983636 
L 512.49819 52.788595 
L 513.466084 135.119174 
L 514.433978 131.002645 
L 515.401871 89.837355 
L 516.369765 89.837355 
L 517.337658 102.186942 
L 518.305552 126.886116 
L 519.273446 44.555537 
L 520.241339 77.487769 
L 521.209233 73.37124 
L 522.177127 118.653058 
L 523.14502 73.37124 
L 524.112914 81.604298 
L 526.048701 176.284463 
L 527.016595 126.886116 
L 527.984489 147.46876 
L 528.952382 114.536529 
L 529.920276 143.352231 
L 530.88817 143.352231 
L 531.856063 126.886116 
L 532.823957 69.254711 
L 533.791851 98.070413 
L 534.759744 176.284463 
L 535.727638 114.536529 
L 536.695532 155.701818 
L 537.663425 102.186942 
L 538.631319 85.720826 
L 540.567106 168.051405 
L 541.535 114.536529 
L 541.535 114.536529 
" clip-path="url(#pb0ca9ebbe4)" style="fill: none; stroke: #235996; stroke-width: 0.8; stroke-linecap: square"/>
   </g>
   <g id="patch_3">
    <path d="M 44.57 210.04 
L 44.57 10.8 
" style="fill: none; stroke: #000000; stroke-width: 0.8; stroke-linejoin: miter; stroke-linecap: square"/>
   </g>
   <g id="patch_4">
    <path d="M 565.2 210.04 
L 565.2 10.8 
" style="fill: none; stroke: #000000; stroke-width: 0.8; stroke-linejoin: miter; stroke-linecap: square"/>
   </g>
   <g id="patch_5">
    <path d="M 44.57 210.04 
L 565.2 210.04 
" style="fill: none; stroke: #000000; stroke-width: 0.8; stroke-linejoin: miter; stroke-linecap: square"/>
   </g>
   <g id="patch_6">
    <path d="M 44.57 10.8 
L 565.2 10.8 
" style="fill: none; stroke: #000000; stroke-width: 0.8; stroke-linejoin: miter; stroke-linecap: square"/>
   </g>
   <g id="legend_1">
    <g id="patch_7">
     <path d="M 156.8845 43.4565 
L 452.8855 43.4565 
Q 455.7655 43.4565 455.7655 40.5765 
L 455.7655 20.88 
Q 455.7655 18 452.8855 18 
L 156.8845 18 
Q 154.0045 18 154.0045 20.88 
L 154.0045 40.5765 
Q 154.0045 43.4565 156.8845 43.4565 
z
" style="fill: #ffffff; opacity: 0.8; stroke: #000000; stroke-linejoin: miter"/>
    </g>
    <g id="line2d_14">
     <path d="M 159.7645 29.66175 
L 174.1645 29.66175 
L 188.5645 29.66175 
" style="fill: none; stroke: #99004d; stroke-width: 0.8; stroke-linecap: square"/>
    </g>
    <g id="text_14">
     <text style="font: 14.4px 'DejaVu Sans', 'Bitstream Vera Sans', 'Computer Modern Sans Serif', 'Lucida Grande', 'Verdana', 'Geneva', 'Lucid', 'Arial', 'Helvetica', 'Avant Garde', sans-serif; text-anchor: start" x="200.0845" y="34.70175" transform="rotate(-0 200.0845 34.70175)">hw(random)</text>
    </g>
    <g id="line2d_15">
     <path d="M 316.873 29.66175 
L 331.273 29.66175 
L 345.673 29.66175 
" style="fill: none; stroke: #235996; stroke-width: 0.8; stroke-linecap: square"/>
    </g>
    <g id="text_15">
     <text style="font: 14.4px 'DejaVu Sans', 'Bitstream Vera Sans', 'Computer Modern Sans Serif', 'Lucida Grande', 'Verdana', 'Geneva', 'Lucid', 'Arial', 'Helvetica', 'Avant Garde', sans-serif; text-anchor: start" x="357.193" y="34.70175" transform="rotate(-0 357.193 34.70175)"> hw(HWGEN)</text>
    </g>
   </g>
  </g>
 </g>
 <defs>
  <clipPath id="pb0ca9ebbe4">
   <rect x="44.57" y="10.8" width="520.63" height="199.24"/>
  </clipPath>
 </defs>
</svg>
