<?xml version="1.0" encoding="utf-8" standalone="no"?>
<!DOCTYPE svg PUBLIC "-//W3C//DTD SVG 1.1//EN"
  "http://www.w3.org/Graphics/SVG/1.1/DTD/svg11.dtd">
<svg xmlns:xlink="http://www.w3.org/1999/xlink" width="576pt" height="252pt" viewBox="0 0 576 252" xmlns="http://www.w3.org/2000/svg" version="1.1">
 <metadata>
  <rdf:RDF xmlns:dc="http://purl.org/dc/elements/1.1/" xmlns:cc="http://creativecommons.org/ns#" xmlns:rdf="http://www.w3.org/1999/02/22-rdf-syntax-ns#">
   <cc:Work>
    <dc:type rdf:resource="http://purl.org/dc/dcmitype/StillImage"/>
    <dc:date>2023-12-06T16:02:51.886885</dc:date>
    <dc:format>image/svg+xml</dc:format>
    <dc:creator>
     <cc:Agent>
      <dc:title>Matplotlib v3.7.4, https://matplotlib.org/</dc:title>
     </cc:Agent>
    </dc:creator>
   </cc:Work>
  </rdf:RDF>
 </metadata>
 <defs>
  <style type="text/css">*{stroke-linejoin: round; stroke-linecap: butt}</style>
 </defs>
 <g id="figure_1">
  <g id="patch_1">
   <path d="M 0 252 
L 576 252 
L 576 0 
L 0 0 
z
" style="fill: #ffffff"/>
  </g>
  <g id="axes_1">
   <g id="patch_2">
    <path d="M 44.57 210.04 
L 565.2 210.04 
L 565.2 10.8 
L 44.57 10.8 
z
" style="fill: #ffffff"/>
   </g>
   <g id="matplotlib.axis_1">
    <g id="xtick_1">
     <g id="line2d_1">
      <defs>
       <path id="m6feef92c2b" d="M 0 0 
L 0 3.5 
" style="stroke: #000000; stroke-width: 0.8"/>
      </defs>
      <g>
       <use xlink:href="#m6feef92c2b" x="68.235" y="210.04" style="stroke: #000000; stroke-width: 0.8"/>
      </g>
     </g>
     <g id="text_1">
      <text style="font: 10px 'DejaVu Sans', 'Bitstream Vera Sans', 'Computer Modern Sans Serif', 'Lucida Grande', 'Verdana', 'Geneva', 'Lucid', 'Arial', 'Helvetica', 'Avant Garde', sans-serif; text-anchor: middle" x="68.235" y="224.638438" transform="rotate(-0 68.235 224.638438)">0</text>
     </g>
    </g>
    <g id="xtick_2">
     <g id="line2d_2">
      <g>
       <use xlink:href="#m6feef92c2b" x="165.024366" y="210.04" style="stroke: #000000; stroke-width: 0.8"/>
      </g>
     </g>
     <g id="text_2">
      <text style="font: 10px 'DejaVu Sans', 'Bitstream Vera Sans', 'Computer Modern Sans Serif', 'Lucida Grande', 'Verdana', 'Geneva', 'Lucid', 'Arial', 'Helvetica', 'Avant Garde', sans-serif; text-anchor: middle" x="165.024366" y="224.638438" transform="rotate(-0 165.024366 224.638438)">100</text>
     </g>
    </g>
    <g id="xtick_3">
     <g id="line2d_3">
      <g>
       <use xlink:href="#m6feef92c2b" x="261.813732" y="210.04" style="stroke: #000000; stroke-width: 0.8"/>
      </g>
     </g>
     <g id="text_3">
      <text style="font: 10px 'DejaVu Sans', 'Bitstream Vera Sans', 'Computer Modern Sans Serif', 'Lucida Grande', 'Verdana', 'Geneva', 'Lucid', 'Arial', 'Helvetica', 'Avant Garde', sans-serif; text-anchor: middle" x="261.813732" y="224.638438" transform="rotate(-0 261.813732 224.638438)">200</text>
     </g>
    </g>
    <g id="xtick_4">
     <g id="line2d_4">
      <g>
       <use xlink:href="#m6feef92c2b" x="358.603098" y="210.04" style="stroke: #000000; stroke-width: 0.8"/>
      </g>
     </g>
     <g id="text_4">
      <text style="font: 10px 'DejaVu Sans', 'Bitstream Vera Sans', 'Computer Modern Sans Serif', 'Lucida Grande', 'Verdana', 'Geneva', 'Lucid', 'Arial', 'Helvetica', 'Avant Garde', sans-serif; text-anchor: middle" x="358.603098" y="224.638438" transform="rotate(-0 358.603098 224.638438)">300</text>
     </g>
    </g>
    <g id="xtick_5">
     <g id="line2d_5">
      <g>
       <use xlink:href="#m6feef92c2b" x="455.392464" y="210.04" style="stroke: #000000; stroke-width: 0.8"/>
      </g>
     </g>
     <g id="text_5">
      <text style="font: 10px 'DejaVu Sans', 'Bitstream Vera Sans', 'Computer Modern Sans Serif', 'Lucida Grande', 'Verdana', 'Geneva', 'Lucid', 'Arial', 'Helvetica', 'Avant Garde', sans-serif; text-anchor: middle" x="455.392464" y="224.638438" transform="rotate(-0 455.392464 224.638438)">400</text>
     </g>
    </g>
    <g id="xtick_6">
     <g id="line2d_6">
      <g>
       <use xlink:href="#m6feef92c2b" x="552.18183" y="210.04" style="stroke: #000000; stroke-width: 0.8"/>
      </g>
     </g>
     <g id="text_6">
      <text style="font: 10px 'DejaVu Sans', 'Bitstream Vera Sans', 'Computer Modern Sans Serif', 'Lucida Grande', 'Verdana', 'Geneva', 'Lucid', 'Arial', 'Helvetica', 'Avant Garde', sans-serif; text-anchor: middle" x="552.18183" y="224.638438" transform="rotate(-0 552.18183 224.638438)">500</text>
     </g>
    </g>
    <g id="text_7">
     <text style="font: 10px 'DejaVu Sans', 'Bitstream Vera Sans', 'Computer Modern Sans Serif', 'Lucida Grande', 'Verdana', 'Geneva', 'Lucid', 'Arial', 'Helvetica', 'Avant Garde', sans-serif; text-anchor: middle" x="304.885" y="238.316563" transform="rotate(-0 304.885 238.316563)">Iterations</text>
    </g>
   </g>
   <g id="matplotlib.axis_2">
    <g id="ytick_1">
     <g id="line2d_7">
      <defs>
       <path id="m720d64afcd" d="M 0 0 
L -3.5 0 
" style="stroke: #000000; stroke-width: 0.8"/>
      </defs>
      <g>
       <use xlink:href="#m720d64afcd" x="44.57" y="200.983636" style="stroke: #000000; stroke-width: 0.8"/>
      </g>
     </g>
     <g id="text_8">
      <text style="font: 10px 'DejaVu Sans', 'Bitstream Vera Sans', 'Computer Modern Sans Serif', 'Lucida Grande', 'Verdana', 'Geneva', 'Lucid', 'Arial', 'Helvetica', 'Avant Garde', sans-serif; text-anchor: end" x="37.57" y="204.782855" transform="rotate(-0 37.57 204.782855)">0</text>
     </g>
    </g>
    <g id="ytick_2">
     <g id="line2d_8">
      <g>
       <use xlink:href="#m720d64afcd" x="44.57" y="158.861015" style="stroke: #000000; stroke-width: 0.8"/>
      </g>
     </g>
     <g id="text_9">
      <text style="font: 10px 'DejaVu Sans', 'Bitstream Vera Sans', 'Computer Modern Sans Serif', 'Lucida Grande', 'Verdana', 'Geneva', 'Lucid', 'Arial', 'Helvetica', 'Avant Garde', sans-serif; text-anchor: end" x="37.57" y="162.660234" transform="rotate(-0 37.57 162.660234)">10</text>
     </g>
    </g>
    <g id="ytick_3">
     <g id="line2d_9">
      <g>
       <use xlink:href="#m720d64afcd" x="44.57" y="116.738393" style="stroke: #000000; stroke-width: 0.8"/>
      </g>
     </g>
     <g id="text_10">
      <text style="font: 10px 'DejaVu Sans', 'Bitstream Vera Sans', 'Computer Modern Sans Serif', 'Lucida Grande', 'Verdana', 'Geneva', 'Lucid', 'Arial', 'Helvetica', 'Avant Garde', sans-serif; text-anchor: end" x="37.57" y="120.537612" transform="rotate(-0 37.57 120.537612)">20</text>
     </g>
    </g>
    <g id="ytick_4">
     <g id="line2d_10">
      <g>
       <use xlink:href="#m720d64afcd" x="44.57" y="74.615772" style="stroke: #000000; stroke-width: 0.8"/>
      </g>
     </g>
     <g id="text_11">
      <text style="font: 10px 'DejaVu Sans', 'Bitstream Vera Sans', 'Computer Modern Sans Serif', 'Lucida Grande', 'Verdana', 'Geneva', 'Lucid', 'Arial', 'Helvetica', 'Avant Garde', sans-serif; text-anchor: end" x="37.57" y="78.41499" transform="rotate(-0 37.57 78.41499)">30</text>
     </g>
    </g>
    <g id="ytick_5">
     <g id="line2d_11">
      <g>
       <use xlink:href="#m720d64afcd" x="44.57" y="32.49315" style="stroke: #000000; stroke-width: 0.8"/>
      </g>
     </g>
     <g id="text_12">
      <text style="font: 10px 'DejaVu Sans', 'Bitstream Vera Sans', 'Computer Modern Sans Serif', 'Lucida Grande', 'Verdana', 'Geneva', 'Lucid', 'Arial', 'Helvetica', 'Avant Garde', sans-serif; text-anchor: end" x="37.57" y="36.292369" transform="rotate(-0 37.57 36.292369)">40</text>
     </g>
    </g>
    <g id="text_13">
     <text style="font: 10px 'DejaVu Sans', 'Bitstream Vera Sans', 'Computer Modern Sans Serif', 'Lucida Grande', 'Verdana', 'Geneva', 'Lucid', 'Arial', 'Helvetica', 'Avant Garde', sans-serif; text-anchor: middle" x="18.765313" y="110.42" transform="rotate(-90 18.765313 110.42)">Randomness</text>
    </g>
   </g>
   <g id="line2d_12">
    <path d="M 68.235 61.978985 
L 70.170787 70.40351 
L 71.138681 61.978985 
L 72.106575 49.342199 
L 73.074468 78.828034 
L 74.042362 53.554461 
L 75.010256 66.191247 
L 75.978149 87.252558 
L 76.946043 32.49315 
L 77.913937 74.615772 
L 78.88183 70.40351 
L 79.849724 61.978985 
L 80.817618 87.252558 
L 81.785511 53.554461 
L 82.753405 83.040296 
L 83.721299 66.191247 
L 84.689192 66.191247 
L 86.62498 74.615772 
L 87.592873 66.191247 
L 88.560767 83.040296 
L 89.528661 70.40351 
L 90.496554 87.252558 
L 91.464448 61.978985 
L 92.432342 45.129937 
L 93.400235 36.705412 
L 94.368129 45.129937 
L 95.336022 70.40351 
L 96.303916 36.705412 
L 97.27181 61.978985 
L 98.239703 66.191247 
L 99.207597 78.828034 
L 100.175491 40.917674 
L 101.143384 74.615772 
L 102.111278 91.46482 
L 103.079172 66.191247 
L 104.047065 45.129937 
L 105.014959 99.889345 
L 105.982853 78.828034 
L 106.950746 32.49315 
L 107.91864 74.615772 
L 109.854427 57.766723 
L 110.822321 57.766723 
L 111.790215 70.40351 
L 112.758108 70.40351 
L 113.726002 99.889345 
L 114.693896 95.677082 
L 115.661789 66.191247 
L 116.629683 87.252558 
L 117.597577 70.40351 
L 118.56547 78.828034 
L 119.533364 61.978985 
L 120.501258 66.191247 
L 121.469151 74.615772 
L 122.437045 66.191247 
L 123.404939 70.40351 
L 124.372832 36.705412 
L 125.340726 57.766723 
L 126.30862 40.917674 
L 127.276513 57.766723 
L 129.212301 74.615772 
L 130.180194 45.129937 
L 131.148088 49.342199 
L 132.115982 66.191247 
L 133.083875 57.766723 
L 134.051769 83.040296 
L 135.019663 49.342199 
L 135.987556 57.766723 
L 136.95545 70.40351 
L 137.923344 61.978985 
L 138.891237 49.342199 
L 139.859131 40.917674 
L 140.827025 57.766723 
L 141.794918 49.342199 
L 142.762812 78.828034 
L 143.730706 70.40351 
L 144.698599 45.129937 
L 145.666493 78.828034 
L 146.634387 74.615772 
L 147.60228 45.129937 
L 148.570174 87.252558 
L 149.538067 87.252558 
L 150.505961 66.191247 
L 151.473855 87.252558 
L 152.441748 66.191247 
L 153.409642 70.40351 
L 154.377536 57.766723 
L 155.345429 49.342199 
L 156.313323 74.615772 
L 157.281217 40.917674 
L 158.24911 70.40351 
L 159.217004 87.252558 
L 160.184898 74.615772 
L 161.152791 74.615772 
L 162.120685 49.342199 
L 163.088579 70.40351 
L 164.056472 53.554461 
L 165.024366 74.615772 
L 165.99226 53.554461 
L 166.960153 36.705412 
L 167.928047 87.252558 
L 168.895941 70.40351 
L 169.863834 70.40351 
L 170.831728 36.705412 
L 171.799622 57.766723 
L 172.767515 61.978985 
L 173.735409 70.40351 
L 174.703303 74.615772 
L 175.671196 61.978985 
L 176.63909 66.191247 
L 177.606984 53.554461 
L 178.574877 74.615772 
L 179.542771 61.978985 
L 180.510665 70.40351 
L 181.478558 19.856364 
L 182.446452 66.191247 
L 183.414346 49.342199 
L 184.382239 57.766723 
L 185.350133 32.49315 
L 186.318027 61.978985 
L 187.28592 70.40351 
L 188.253814 49.342199 
L 189.221708 83.040296 
L 190.189601 78.828034 
L 191.157495 61.978985 
L 192.125389 78.828034 
L 193.093282 36.705412 
L 194.061176 45.129937 
L 195.02907 70.40351 
L 195.996963 74.615772 
L 196.964857 66.191247 
L 197.932751 61.978985 
L 198.900644 66.191247 
L 199.868538 61.978985 
L 200.836431 66.191247 
L 201.804325 66.191247 
L 202.772219 95.677082 
L 203.740112 57.766723 
L 204.708006 61.978985 
L 205.6759 87.252558 
L 206.643793 74.615772 
L 207.611687 74.615772 
L 208.579581 66.191247 
L 209.547474 61.978985 
L 210.515368 95.677082 
L 211.483262 57.766723 
L 212.451155 53.554461 
L 213.419049 57.766723 
L 214.386943 53.554461 
L 215.354836 91.46482 
L 216.32273 61.978985 
L 217.290624 83.040296 
L 218.258517 49.342199 
L 219.226411 66.191247 
L 220.194305 45.129937 
L 221.162198 78.828034 
L 222.130092 66.191247 
L 223.097986 57.766723 
L 224.065879 53.554461 
L 225.033773 66.191247 
L 226.001667 74.615772 
L 226.96956 70.40351 
L 227.937454 78.828034 
L 228.905348 70.40351 
L 229.873241 83.040296 
L 230.841135 40.917674 
L 231.809029 104.101607 
L 232.776922 36.705412 
L 233.744816 57.766723 
L 234.71271 61.978985 
L 235.680603 78.828034 
L 236.648497 104.101607 
L 237.616391 66.191247 
L 238.584284 70.40351 
L 239.552178 66.191247 
L 240.520072 53.554461 
L 241.487965 91.46482 
L 242.455859 83.040296 
L 243.423753 61.978985 
L 244.391646 53.554461 
L 245.35954 36.705412 
L 246.327434 61.978985 
L 247.295327 53.554461 
L 248.263221 83.040296 
L 249.231115 78.828034 
L 250.199008 70.40351 
L 251.166902 57.766723 
L 252.134796 70.40351 
L 253.102689 104.101607 
L 254.070583 57.766723 
L 255.038476 78.828034 
L 256.00637 53.554461 
L 256.974264 61.978985 
L 258.910051 28.280888 
L 259.877945 61.978985 
L 260.845838 61.978985 
L 261.813732 53.554461 
L 262.781626 53.554461 
L 263.749519 61.978985 
L 264.717413 45.129937 
L 265.685307 70.40351 
L 266.6532 53.554461 
L 267.621094 53.554461 
L 268.588988 83.040296 
L 269.556881 70.40351 
L 270.524775 49.342199 
L 271.492669 66.191247 
L 272.460562 91.46482 
L 273.428456 66.191247 
L 274.39635 32.49315 
L 275.364243 66.191247 
L 276.332137 66.191247 
L 277.300031 70.40351 
L 278.267924 78.828034 
L 279.235818 28.280888 
L 280.203712 70.40351 
L 281.171605 78.828034 
L 282.139499 53.554461 
L 283.107393 61.978985 
L 284.075286 91.46482 
L 285.04318 45.129937 
L 286.011074 99.889345 
L 286.978967 78.828034 
L 287.946861 83.040296 
L 289.882648 57.766723 
L 290.850542 49.342199 
L 291.818436 95.677082 
L 292.786329 57.766723 
L 293.754223 70.40351 
L 294.722117 74.615772 
L 295.69001 74.615772 
L 296.657904 95.677082 
L 297.625798 87.252558 
L 298.593691 74.615772 
L 299.561585 53.554461 
L 300.529479 45.129937 
L 301.497372 74.615772 
L 302.465266 70.40351 
L 303.43316 61.978985 
L 304.401053 87.252558 
L 305.368947 57.766723 
L 306.33684 70.40351 
L 307.304734 53.554461 
L 308.272628 83.040296 
L 309.240521 74.615772 
L 310.208415 83.040296 
L 311.176309 95.677082 
L 312.144202 66.191247 
L 313.112096 53.554461 
L 314.07999 99.889345 
L 315.047883 78.828034 
L 316.015777 61.978985 
L 316.983671 61.978985 
L 317.951564 57.766723 
L 318.919458 45.129937 
L 319.887352 95.677082 
L 321.823139 53.554461 
L 322.791033 61.978985 
L 323.758926 91.46482 
L 324.72682 57.766723 
L 325.694714 70.40351 
L 326.662607 49.342199 
L 327.630501 83.040296 
L 328.598395 70.40351 
L 329.566288 61.978985 
L 330.534182 57.766723 
L 331.502076 91.46482 
L 332.469969 57.766723 
L 333.437863 40.917674 
L 334.405757 57.766723 
L 335.37365 36.705412 
L 336.341544 66.191247 
L 337.309438 99.889345 
L 338.277331 78.828034 
L 339.245225 40.917674 
L 340.213119 49.342199 
L 341.181012 70.40351 
L 342.148906 45.129937 
L 343.1168 36.705412 
L 344.084693 104.101607 
L 345.052587 83.040296 
L 346.020481 74.615772 
L 346.988374 95.677082 
L 347.956268 57.766723 
L 348.924162 40.917674 
L 349.892055 70.40351 
L 350.859949 45.129937 
L 351.827843 70.40351 
L 352.795736 66.191247 
L 353.76363 91.46482 
L 354.731524 66.191247 
L 355.699417 53.554461 
L 356.667311 108.313869 
L 357.635204 57.766723 
L 358.603098 91.46482 
L 360.538885 40.917674 
L 364.41046 74.615772 
L 365.378354 66.191247 
L 366.346247 61.978985 
L 367.314141 74.615772 
L 368.282035 57.766723 
L 369.249928 49.342199 
L 370.217822 61.978985 
L 371.185716 70.40351 
L 372.153609 57.766723 
L 373.121503 91.46482 
L 374.089397 57.766723 
L 375.05729 57.766723 
L 376.025184 91.46482 
L 376.993078 53.554461 
L 377.960971 66.191247 
L 378.928865 70.40351 
L 379.896759 24.068626 
L 380.864652 49.342199 
L 381.832546 45.129937 
L 382.80044 61.978985 
L 383.768333 57.766723 
L 384.736227 70.40351 
L 385.704121 78.828034 
L 386.672014 61.978985 
L 387.639908 74.615772 
L 388.607802 74.615772 
L 389.575695 83.040296 
L 390.543589 61.978985 
L 391.511483 61.978985 
L 392.479376 95.677082 
L 393.44727 70.40351 
L 394.415164 99.889345 
L 395.383057 57.766723 
L 397.318845 66.191247 
L 398.286738 108.313869 
L 399.254632 57.766723 
L 400.222526 70.40351 
L 401.190419 49.342199 
L 402.158313 57.766723 
L 403.126207 91.46482 
L 404.0941 57.766723 
L 405.061994 66.191247 
L 406.029888 66.191247 
L 406.997781 61.978985 
L 407.965675 78.828034 
L 408.933569 78.828034 
L 409.901462 83.040296 
L 410.869356 74.615772 
L 411.837249 57.766723 
L 412.805143 83.040296 
L 413.773037 57.766723 
L 414.74093 74.615772 
L 415.708824 78.828034 
L 416.676718 49.342199 
L 417.644611 83.040296 
L 418.612505 53.554461 
L 419.580399 66.191247 
L 420.548292 95.677082 
L 421.516186 74.615772 
L 422.48408 66.191247 
L 423.451973 83.040296 
L 424.419867 40.917674 
L 425.387761 66.191247 
L 426.355654 78.828034 
L 427.323548 66.191247 
L 428.291442 57.766723 
L 429.259335 53.554461 
L 430.227229 53.554461 
L 431.195123 83.040296 
L 432.163016 61.978985 
L 433.13091 66.191247 
L 434.098804 53.554461 
L 435.066697 57.766723 
L 436.034591 74.615772 
L 437.002485 49.342199 
L 437.970378 66.191247 
L 438.938272 87.252558 
L 439.906166 40.917674 
L 440.874059 45.129937 
L 441.841953 57.766723 
L 442.809847 49.342199 
L 443.77774 87.252558 
L 444.745634 49.342199 
L 445.713528 53.554461 
L 446.681421 49.342199 
L 447.649315 53.554461 
L 448.617209 66.191247 
L 449.585102 74.615772 
L 450.552996 66.191247 
L 451.52089 49.342199 
L 452.488783 104.101607 
L 453.456677 91.46482 
L 454.424571 40.917674 
L 456.360358 74.615772 
L 457.328252 83.040296 
L 458.296145 49.342199 
L 459.264039 70.40351 
L 460.231933 74.615772 
L 461.199826 53.554461 
L 462.16772 70.40351 
L 463.135613 49.342199 
L 464.103507 95.677082 
L 465.071401 74.615772 
L 466.039294 66.191247 
L 467.007188 49.342199 
L 467.975082 61.978985 
L 468.942975 70.40351 
L 469.910869 74.615772 
L 470.878763 87.252558 
L 471.846656 53.554461 
L 472.81455 66.191247 
L 473.782444 53.554461 
L 474.750337 87.252558 
L 475.718231 57.766723 
L 476.686125 36.705412 
L 477.654018 61.978985 
L 478.621912 66.191247 
L 479.589806 66.191247 
L 480.557699 57.766723 
L 481.525593 36.705412 
L 482.493487 53.554461 
L 483.46138 83.040296 
L 484.429274 57.766723 
L 485.397168 53.554461 
L 486.365061 74.615772 
L 487.332955 70.40351 
L 488.300849 45.129937 
L 489.268742 53.554461 
L 490.236636 57.766723 
L 491.20453 74.615772 
L 492.172423 78.828034 
L 493.140317 78.828034 
L 494.108211 45.129937 
L 495.076104 40.917674 
L 496.043998 70.40351 
L 497.011892 49.342199 
L 497.979785 70.40351 
L 498.947679 61.978985 
L 499.915573 61.978985 
L 500.883466 78.828034 
L 501.85136 74.615772 
L 502.819254 87.252558 
L 504.755041 28.280888 
L 505.722935 70.40351 
L 506.690828 61.978985 
L 507.658722 91.46482 
L 508.626616 78.828034 
L 509.594509 74.615772 
L 510.562403 45.129937 
L 511.530297 40.917674 
L 512.49819 87.252558 
L 513.466084 95.677082 
L 514.433978 87.252558 
L 515.401871 45.129937 
L 516.369765 74.615772 
L 517.337658 78.828034 
L 519.273446 61.978985 
L 520.241339 57.766723 
L 521.209233 83.040296 
L 522.177127 70.40351 
L 523.14502 61.978985 
L 524.112914 83.040296 
L 525.080808 49.342199 
L 526.048701 61.978985 
L 527.016595 57.766723 
L 527.984489 57.766723 
L 528.952382 83.040296 
L 529.920276 83.040296 
L 530.88817 95.677082 
L 531.856063 40.917674 
L 532.823957 70.40351 
L 533.791851 45.129937 
L 534.759744 66.191247 
L 535.727638 45.129937 
L 536.695532 87.252558 
L 537.663425 104.101607 
L 538.631319 49.342199 
L 539.599213 95.677082 
L 540.567106 95.677082 
L 541.535 66.191247 
L 541.535 66.191247 
" clip-path="url(#p4ba33e064c)" style="fill: none; stroke: #99004d; stroke-width: 0.8; stroke-linecap: square"/>
   </g>
   <g id="line2d_13">
    <path d="M 68.235 74.615772 
L 69.202894 70.40351 
L 70.170787 125.162918 
L 71.138681 167.285539 
L 72.106575 192.559112 
L 73.074468 83.040296 
L 74.042362 61.978985 
L 75.010256 53.554461 
L 75.978149 99.889345 
L 76.946043 129.37518 
L 77.913937 200.983636 
L 79.849724 120.950655 
L 80.817618 120.950655 
L 81.785511 83.040296 
L 82.753405 133.587442 
L 83.721299 61.978985 
L 84.689192 66.191247 
L 85.657086 179.922326 
L 86.62498 196.771374 
L 87.592873 91.46482 
L 88.560767 184.134588 
L 90.496554 61.978985 
L 91.464448 158.861015 
L 92.432342 61.978985 
L 93.400235 200.983636 
L 94.368129 74.615772 
L 95.336022 196.771374 
L 96.303916 49.342199 
L 97.27181 61.978985 
L 98.239703 49.342199 
L 99.207597 95.677082 
L 100.175491 167.285539 
L 101.143384 188.34685 
L 102.111278 150.43649 
L 103.079172 61.978985 
L 104.047065 104.101607 
L 105.014959 87.252558 
L 105.982853 158.861015 
L 106.950746 66.191247 
L 107.91864 83.040296 
L 108.886534 95.677082 
L 109.854427 66.191247 
L 110.822321 154.648753 
L 111.790215 129.37518 
L 112.758108 78.828034 
L 113.726002 70.40351 
L 114.693896 87.252558 
L 115.661789 99.889345 
L 116.629683 87.252558 
L 117.597577 45.129937 
L 118.56547 87.252558 
L 119.533364 112.526131 
L 120.501258 99.889345 
L 121.469151 83.040296 
L 122.437045 104.101607 
L 123.404939 61.978985 
L 124.372832 175.710063 
L 125.340726 142.011966 
L 126.30862 95.677082 
L 127.276513 163.073277 
L 128.244407 129.37518 
L 129.212301 129.37518 
L 130.180194 184.134588 
L 131.148088 112.526131 
L 132.115982 112.526131 
L 133.083875 91.46482 
L 134.051769 83.040296 
L 135.019663 70.40351 
L 135.987556 171.497801 
L 136.95545 70.40351 
L 137.923344 167.285539 
L 138.891237 112.526131 
L 139.859131 142.011966 
L 140.827025 91.46482 
L 141.794918 158.861015 
L 142.762812 188.34685 
L 143.730706 70.40351 
L 144.698599 116.738393 
L 145.666493 99.889345 
L 146.634387 142.011966 
L 147.60228 116.738393 
L 148.570174 142.011966 
L 149.538067 163.073277 
L 150.505961 78.828034 
L 151.473855 70.40351 
L 152.441748 120.950655 
L 153.409642 129.37518 
L 154.377536 129.37518 
L 155.345429 171.497801 
L 156.313323 200.983636 
L 158.24911 142.011966 
L 159.217004 116.738393 
L 160.184898 74.615772 
L 161.152791 179.922326 
L 162.120685 200.983636 
L 163.088579 192.559112 
L 164.056472 104.101607 
L 165.99226 120.950655 
L 166.960153 150.43649 
L 167.928047 70.40351 
L 168.895941 200.983636 
L 170.831728 78.828034 
L 171.799622 74.615772 
L 172.767515 133.587442 
L 173.735409 66.191247 
L 174.703303 78.828034 
L 176.63909 95.677082 
L 177.606984 125.162918 
L 178.574877 70.40351 
L 179.542771 66.191247 
L 180.510665 87.252558 
L 181.478558 61.978985 
L 182.446452 87.252558 
L 183.414346 91.46482 
L 184.382239 163.073277 
L 185.350133 125.162918 
L 186.318027 158.861015 
L 187.28592 150.43649 
L 188.253814 184.134588 
L 189.221708 133.587442 
L 190.189601 175.710063 
L 191.157495 137.799704 
L 192.125389 150.43649 
L 193.093282 74.615772 
L 194.061176 129.37518 
L 195.02907 66.191247 
L 195.996963 83.040296 
L 196.964857 116.738393 
L 197.932751 95.677082 
L 198.900644 61.978985 
L 199.868538 87.252558 
L 200.836431 66.191247 
L 201.804325 188.34685 
L 202.772219 150.43649 
L 203.740112 196.771374 
L 204.708006 120.950655 
L 205.6759 104.101607 
L 206.643793 137.799704 
L 207.611687 129.37518 
L 208.579581 125.162918 
L 209.547474 57.766723 
L 210.515368 200.983636 
L 211.483262 112.526131 
L 212.451155 116.738393 
L 213.419049 104.101607 
L 214.386943 74.615772 
L 215.354836 200.983636 
L 216.32273 83.040296 
L 217.290624 125.162918 
L 219.226411 53.554461 
L 220.194305 116.738393 
L 221.162198 120.950655 
L 222.130092 70.40351 
L 224.065879 95.677082 
L 225.033773 74.615772 
L 226.001667 57.766723 
L 226.96956 70.40351 
L 227.937454 179.922326 
L 228.905348 150.43649 
L 229.873241 171.497801 
L 230.841135 129.37518 
L 231.809029 171.497801 
L 233.744816 95.677082 
L 234.71271 70.40351 
L 235.680603 192.559112 
L 236.648497 133.587442 
L 237.616391 99.889345 
L 239.552178 116.738393 
L 240.520072 184.134588 
L 241.487965 192.559112 
L 242.455859 188.34685 
L 243.423753 57.766723 
L 244.391646 171.497801 
L 246.327434 179.922326 
L 247.295327 188.34685 
L 248.263221 83.040296 
L 250.199008 74.615772 
L 251.166902 91.46482 
L 252.134796 188.34685 
L 253.102689 95.677082 
L 254.070583 167.285539 
L 255.038476 83.040296 
L 256.00637 188.34685 
L 256.974264 125.162918 
L 257.942157 78.828034 
L 258.910051 78.828034 
L 259.877945 108.313869 
L 260.845838 66.191247 
L 262.781626 163.073277 
L 263.749519 70.40351 
L 264.717413 70.40351 
L 265.685307 104.101607 
L 266.6532 167.285539 
L 267.621094 99.889345 
L 268.588988 188.34685 
L 269.556881 74.615772 
L 270.524775 167.285539 
L 271.492669 158.861015 
L 272.460562 184.134588 
L 273.428456 154.648753 
L 274.39635 104.101607 
L 275.364243 70.40351 
L 277.300031 158.861015 
L 278.267924 150.43649 
L 279.235818 91.46482 
L 280.203712 87.252558 
L 281.171605 137.799704 
L 282.139499 146.224228 
L 283.107393 70.40351 
L 284.075286 87.252558 
L 285.04318 53.554461 
L 286.011074 78.828034 
L 286.978967 61.978985 
L 287.946861 83.040296 
L 288.914755 95.677082 
L 289.882648 200.983636 
L 290.850542 53.554461 
L 291.818436 57.766723 
L 292.786329 129.37518 
L 293.754223 70.40351 
L 294.722117 95.677082 
L 295.69001 150.43649 
L 296.657904 108.313869 
L 297.625798 74.615772 
L 298.593691 57.766723 
L 299.561585 137.799704 
L 300.529479 184.134588 
L 301.497372 87.252558 
L 302.465266 171.497801 
L 303.43316 78.828034 
L 304.401053 83.040296 
L 305.368947 150.43649 
L 306.33684 125.162918 
L 307.304734 196.771374 
L 308.272628 95.677082 
L 309.240521 83.040296 
L 310.208415 179.922326 
L 311.176309 179.922326 
L 312.144202 66.191247 
L 313.112096 78.828034 
L 314.07999 175.710063 
L 315.047883 137.799704 
L 316.015777 87.252558 
L 316.983671 175.710063 
L 317.951564 184.134588 
L 318.919458 57.766723 
L 319.887352 66.191247 
L 320.855245 133.587442 
L 321.823139 61.978985 
L 322.791033 74.615772 
L 323.758926 125.162918 
L 324.72682 129.37518 
L 325.694714 61.978985 
L 326.662607 184.134588 
L 327.630501 78.828034 
L 328.598395 133.587442 
L 329.566288 78.828034 
L 330.534182 95.677082 
L 331.502076 61.978985 
L 332.469969 78.828034 
L 334.405757 129.37518 
L 335.37365 175.710063 
L 336.341544 142.011966 
L 337.309438 95.677082 
L 338.277331 108.313869 
L 339.245225 99.889345 
L 340.213119 120.950655 
L 341.181012 87.252558 
L 342.148906 87.252558 
L 343.1168 66.191247 
L 344.084693 70.40351 
L 345.052587 83.040296 
L 346.020481 150.43649 
L 346.988374 171.497801 
L 347.956268 70.40351 
L 348.924162 45.129937 
L 349.892055 61.978985 
L 350.859949 196.771374 
L 351.827843 129.37518 
L 352.795736 112.526131 
L 353.76363 167.285539 
L 354.731524 188.34685 
L 355.699417 49.342199 
L 356.667311 116.738393 
L 357.635204 70.40351 
L 358.603098 133.587442 
L 359.570992 95.677082 
L 360.538885 104.101607 
L 361.506779 66.191247 
L 362.474673 104.101607 
L 363.442566 99.889345 
L 364.41046 61.978985 
L 365.378354 78.828034 
L 366.346247 104.101607 
L 367.314141 150.43649 
L 368.282035 142.011966 
L 369.249928 116.738393 
L 370.217822 150.43649 
L 371.185716 66.191247 
L 372.153609 200.983636 
L 373.121503 57.766723 
L 374.089397 158.861015 
L 375.05729 95.677082 
L 376.025184 192.559112 
L 376.993078 83.040296 
L 377.960971 196.771374 
L 378.928865 196.771374 
L 379.896759 74.615772 
L 380.864652 112.526131 
L 381.832546 137.799704 
L 382.80044 158.861015 
L 383.768333 120.950655 
L 384.736227 125.162918 
L 385.704121 188.34685 
L 386.672014 57.766723 
L 387.639908 108.313869 
L 388.607802 70.40351 
L 389.575695 74.615772 
L 390.543589 87.252558 
L 391.511483 116.738393 
L 392.479376 112.526131 
L 393.44727 142.011966 
L 394.415164 83.040296 
L 395.383057 184.134588 
L 396.350951 70.40351 
L 397.318845 175.710063 
L 398.286738 74.615772 
L 399.254632 83.040296 
L 400.222526 66.191247 
L 401.190419 163.073277 
L 402.158313 57.766723 
L 403.126207 70.40351 
L 404.0941 74.615772 
L 405.061994 66.191247 
L 406.029888 175.710063 
L 406.997781 95.677082 
L 407.965675 163.073277 
L 408.933569 179.922326 
L 409.901462 116.738393 
L 410.869356 83.040296 
L 411.837249 61.978985 
L 412.805143 66.191247 
L 414.74093 83.040296 
L 415.708824 175.710063 
L 416.676718 53.554461 
L 417.644611 112.526131 
L 418.612505 104.101607 
L 419.580399 66.191247 
L 420.548292 129.37518 
L 421.516186 171.497801 
L 422.48408 70.40351 
L 423.451973 70.40351 
L 424.419867 91.46482 
L 425.387761 61.978985 
L 426.355654 91.46482 
L 427.323548 133.587442 
L 428.291442 61.978985 
L 429.259335 99.889345 
L 430.227229 175.710063 
L 431.195123 163.073277 
L 432.163016 87.252558 
L 433.13091 66.191247 
L 434.098804 175.710063 
L 435.066697 158.861015 
L 436.034591 87.252558 
L 437.002485 83.040296 
L 437.970378 192.559112 
L 438.938272 61.978985 
L 439.906166 70.40351 
L 440.874059 108.313869 
L 441.841953 49.342199 
L 442.809847 129.37518 
L 443.77774 87.252558 
L 444.745634 163.073277 
L 445.713528 129.37518 
L 446.681421 120.950655 
L 447.649315 133.587442 
L 448.617209 74.615772 
L 449.585102 57.766723 
L 450.552996 116.738393 
L 451.52089 167.285539 
L 452.488783 74.615772 
L 453.456677 129.37518 
L 454.424571 91.46482 
L 455.392464 158.861015 
L 456.360358 66.191247 
L 457.328252 70.40351 
L 458.296145 104.101607 
L 459.264039 184.134588 
L 460.231933 116.738393 
L 461.199826 66.191247 
L 462.16772 142.011966 
L 463.135613 83.040296 
L 464.103507 87.252558 
L 465.071401 74.615772 
L 466.039294 78.828034 
L 467.007188 167.285539 
L 467.975082 78.828034 
L 468.942975 116.738393 
L 469.910869 192.559112 
L 470.878763 104.101607 
L 471.846656 146.224228 
L 472.81455 150.43649 
L 473.782444 66.191247 
L 474.750337 196.771374 
L 475.718231 95.677082 
L 476.686125 125.162918 
L 477.654018 112.526131 
L 478.621912 104.101607 
L 479.589806 133.587442 
L 480.557699 66.191247 
L 481.525593 188.34685 
L 482.493487 175.710063 
L 483.46138 125.162918 
L 484.429274 154.648753 
L 485.397168 74.615772 
L 486.365061 70.40351 
L 487.332955 167.285539 
L 488.300849 57.766723 
L 489.268742 70.40351 
L 490.236636 184.134588 
L 491.20453 45.129937 
L 492.172423 137.799704 
L 493.140317 78.828034 
L 494.108211 137.799704 
L 495.076104 108.313869 
L 496.043998 188.34685 
L 497.011892 150.43649 
L 497.979785 120.950655 
L 498.947679 104.101607 
L 499.915573 95.677082 
L 500.883466 66.191247 
L 501.85136 66.191247 
L 502.819254 57.766723 
L 503.787147 66.191247 
L 504.755041 188.34685 
L 505.722935 61.978985 
L 506.690828 78.828034 
L 507.658722 66.191247 
L 508.626616 120.950655 
L 509.594509 125.162918 
L 510.562403 83.040296 
L 511.530297 95.677082 
L 512.49819 129.37518 
L 513.466084 129.37518 
L 514.433978 108.313869 
L 515.401871 196.771374 
L 516.369765 49.342199 
L 517.337658 171.497801 
L 518.305552 87.252558 
L 519.273446 188.34685 
L 520.241339 137.799704 
L 521.209233 61.978985 
L 522.177127 95.677082 
L 523.14502 74.615772 
L 524.112914 83.040296 
L 525.080808 116.738393 
L 526.048701 129.37518 
L 527.016595 78.828034 
L 527.984489 95.677082 
L 528.952382 66.191247 
L 529.920276 78.828034 
L 530.88817 171.497801 
L 531.856063 83.040296 
L 532.823957 91.46482 
L 533.791851 78.828034 
L 534.759744 154.648753 
L 535.727638 78.828034 
L 536.695532 125.162918 
L 537.663425 57.766723 
L 538.631319 91.46482 
L 539.599213 154.648753 
L 540.567106 112.526131 
L 541.535 108.313869 
L 541.535 108.313869 
" clip-path="url(#p4ba33e064c)" style="fill: none; stroke: #235996; stroke-width: 0.8; stroke-linecap: square"/>
   </g>
   <g id="patch_3">
    <path d="M 44.57 210.04 
L 44.57 10.8 
" style="fill: none; stroke: #000000; stroke-width: 0.8; stroke-linejoin: miter; stroke-linecap: square"/>
   </g>
   <g id="patch_4">
    <path d="M 565.2 210.04 
L 565.2 10.8 
" style="fill: none; stroke: #000000; stroke-width: 0.8; stroke-linejoin: miter; stroke-linecap: square"/>
   </g>
   <g id="patch_5">
    <path d="M 44.57 210.04 
L 565.2 210.04 
" style="fill: none; stroke: #000000; stroke-width: 0.8; stroke-linejoin: miter; stroke-linecap: square"/>
   </g>
   <g id="patch_6">
    <path d="M 44.57 10.8 
L 565.2 10.8 
" style="fill: none; stroke: #000000; stroke-width: 0.8; stroke-linejoin: miter; stroke-linecap: square"/>
   </g>
   <g id="legend_1">
    <g id="patch_7">
     <path d="M 156.8845 43.4565 
L 452.8855 43.4565 
Q 455.7655 43.4565 455.7655 40.5765 
L 455.7655 20.88 
Q 455.7655 18 452.8855 18 
L 156.8845 18 
Q 154.0045 18 154.0045 20.88 
L 154.0045 40.5765 
Q 154.0045 43.4565 156.8845 43.4565 
z
" style="fill: #ffffff; opacity: 0.8; stroke: #000000; stroke-linejoin: miter"/>
    </g>
    <g id="line2d_14">
     <path d="M 159.7645 29.66175 
L 174.1645 29.66175 
L 188.5645 29.66175 
" style="fill: none; stroke: #99004d; stroke-width: 0.8; stroke-linecap: square"/>
    </g>
    <g id="text_14">
     <text style="font: 14.4px 'DejaVu Sans', 'Bitstream Vera Sans', 'Computer Modern Sans Serif', 'Lucida Grande', 'Verdana', 'Geneva', 'Lucid', 'Arial', 'Helvetica', 'Avant Garde', sans-serif; text-anchor: start" x="200.0845" y="34.70175" transform="rotate(-0 200.0845 34.70175)">hw(random)</text>
    </g>
    <g id="line2d_15">
     <path d="M 316.873 29.66175 
L 331.273 29.66175 
L 345.673 29.66175 
" style="fill: none; stroke: #235996; stroke-width: 0.8; stroke-linecap: square"/>
    </g>
    <g id="text_15">
     <text style="font: 14.4px 'DejaVu Sans', 'Bitstream Vera Sans', 'Computer Modern Sans Serif', 'Lucida Grande', 'Verdana', 'Geneva', 'Lucid', 'Arial', 'Helvetica', 'Avant Garde', sans-serif; text-anchor: start" x="357.193" y="34.70175" transform="rotate(-0 357.193 34.70175)"> hw(HWGEN)</text>
    </g>
   </g>
  </g>
 </g>
 <defs>
  <clipPath id="p4ba33e064c">
   <rect x="44.57" y="10.8" width="520.63" height="199.24"/>
  </clipPath>
 </defs>
</svg>
