<?xml version="1.0" encoding="utf-8" standalone="no"?>
<!DOCTYPE svg PUBLIC "-//W3C//DTD SVG 1.1//EN"
  "http://www.w3.org/Graphics/SVG/1.1/DTD/svg11.dtd">
<svg xmlns:xlink="http://www.w3.org/1999/xlink" width="576pt" height="252pt" viewBox="0 0 576 252" xmlns="http://www.w3.org/2000/svg" version="1.1">
 <metadata>
  <rdf:RDF xmlns:dc="http://purl.org/dc/elements/1.1/" xmlns:cc="http://creativecommons.org/ns#" xmlns:rdf="http://www.w3.org/1999/02/22-rdf-syntax-ns#">
   <cc:Work>
    <dc:type rdf:resource="http://purl.org/dc/dcmitype/StillImage"/>
    <dc:date>2023-12-05T19:41:31.257780</dc:date>
    <dc:format>image/svg+xml</dc:format>
    <dc:creator>
     <cc:Agent>
      <dc:title>Matplotlib v3.7.4, https://matplotlib.org/</dc:title>
     </cc:Agent>
    </dc:creator>
   </cc:Work>
  </rdf:RDF>
 </metadata>
 <defs>
  <style type="text/css">*{stroke-linejoin: round; stroke-linecap: butt}</style>
 </defs>
 <g id="figure_1">
  <g id="patch_1">
   <path d="M 0 252 
L 576 252 
L 576 0 
L 0 0 
z
" style="fill: #ffffff"/>
  </g>
  <g id="axes_1">
   <g id="patch_2">
    <path d="M 56.78 210.04 
L 525.43 210.04 
L 525.43 10.8 
L 56.78 10.8 
z
" style="fill: #ffffff"/>
   </g>
   <g id="matplotlib.axis_1">
    <g id="xtick_1">
     <g id="line2d_1">
      <defs>
       <path id="m74113c3e68" d="M 0 0 
L 0 3.5 
" style="stroke: #000000; stroke-width: 0.8"/>
      </defs>
      <g>
       <use xlink:href="#m74113c3e68" x="78.082273" y="210.04" style="stroke: #000000; stroke-width: 0.8"/>
      </g>
     </g>
     <g id="text_1">
      <text style="font: 10px 'DejaVu Sans', 'Bitstream Vera Sans', 'Computer Modern Sans Serif', 'Lucida Grande', 'Verdana', 'Geneva', 'Lucid', 'Arial', 'Helvetica', 'Avant Garde', sans-serif; text-anchor: middle" x="78.082273" y="224.638438" transform="rotate(-0 78.082273 224.638438)">0</text>
     </g>
    </g>
    <g id="xtick_2">
     <g id="line2d_2">
      <g>
       <use xlink:href="#m74113c3e68" x="163.633569" y="210.04" style="stroke: #000000; stroke-width: 0.8"/>
      </g>
     </g>
     <g id="text_2">
      <text style="font: 10px 'DejaVu Sans', 'Bitstream Vera Sans', 'Computer Modern Sans Serif', 'Lucida Grande', 'Verdana', 'Geneva', 'Lucid', 'Arial', 'Helvetica', 'Avant Garde', sans-serif; text-anchor: middle" x="163.633569" y="224.638438" transform="rotate(-0 163.633569 224.638438)">50</text>
     </g>
    </g>
    <g id="xtick_3">
     <g id="line2d_3">
      <g>
       <use xlink:href="#m74113c3e68" x="249.184865" y="210.04" style="stroke: #000000; stroke-width: 0.8"/>
      </g>
     </g>
     <g id="text_3">
      <text style="font: 10px 'DejaVu Sans', 'Bitstream Vera Sans', 'Computer Modern Sans Serif', 'Lucida Grande', 'Verdana', 'Geneva', 'Lucid', 'Arial', 'Helvetica', 'Avant Garde', sans-serif; text-anchor: middle" x="249.184865" y="224.638438" transform="rotate(-0 249.184865 224.638438)">100</text>
     </g>
    </g>
    <g id="xtick_4">
     <g id="line2d_4">
      <g>
       <use xlink:href="#m74113c3e68" x="334.736161" y="210.04" style="stroke: #000000; stroke-width: 0.8"/>
      </g>
     </g>
     <g id="text_4">
      <text style="font: 10px 'DejaVu Sans', 'Bitstream Vera Sans', 'Computer Modern Sans Serif', 'Lucida Grande', 'Verdana', 'Geneva', 'Lucid', 'Arial', 'Helvetica', 'Avant Garde', sans-serif; text-anchor: middle" x="334.736161" y="224.638438" transform="rotate(-0 334.736161 224.638438)">150</text>
     </g>
    </g>
    <g id="xtick_5">
     <g id="line2d_5">
      <g>
       <use xlink:href="#m74113c3e68" x="420.287457" y="210.04" style="stroke: #000000; stroke-width: 0.8"/>
      </g>
     </g>
     <g id="text_5">
      <text style="font: 10px 'DejaVu Sans', 'Bitstream Vera Sans', 'Computer Modern Sans Serif', 'Lucida Grande', 'Verdana', 'Geneva', 'Lucid', 'Arial', 'Helvetica', 'Avant Garde', sans-serif; text-anchor: middle" x="420.287457" y="224.638438" transform="rotate(-0 420.287457 224.638438)">200</text>
     </g>
    </g>
    <g id="xtick_6">
     <g id="line2d_6">
      <g>
       <use xlink:href="#m74113c3e68" x="505.838753" y="210.04" style="stroke: #000000; stroke-width: 0.8"/>
      </g>
     </g>
     <g id="text_6">
      <text style="font: 10px 'DejaVu Sans', 'Bitstream Vera Sans', 'Computer Modern Sans Serif', 'Lucida Grande', 'Verdana', 'Geneva', 'Lucid', 'Arial', 'Helvetica', 'Avant Garde', sans-serif; text-anchor: middle" x="505.838753" y="224.638438" transform="rotate(-0 505.838753 224.638438)">250</text>
     </g>
    </g>
    <g id="text_7">
     <text style="font: 10px 'DejaVu Sans', 'Bitstream Vera Sans', 'Computer Modern Sans Serif', 'Lucida Grande', 'Verdana', 'Geneva', 'Lucid', 'Arial', 'Helvetica', 'Avant Garde', sans-serif; text-anchor: middle" x="291.105" y="238.316563" transform="rotate(-0 291.105 238.316563)">Cycles</text>
    </g>
   </g>
   <g id="matplotlib.axis_2">
    <g id="ytick_1">
     <g id="line2d_7">
      <defs>
       <path id="m3bf0f3a1c0" d="M 0 0 
L -3.5 0 
" style="stroke: #000000; stroke-width: 0.8"/>
      </defs>
      <g>
       <use xlink:href="#m3bf0f3a1c0" x="56.78" y="201.621408" style="stroke: #000000; stroke-width: 0.8"/>
      </g>
     </g>
     <g id="text_8">
      <text style="font: 10px 'DejaVu Sans', 'Bitstream Vera Sans', 'Computer Modern Sans Serif', 'Lucida Grande', 'Verdana', 'Geneva', 'Lucid', 'Arial', 'Helvetica', 'Avant Garde', sans-serif; text-anchor: end" x="49.78" y="205.420627" transform="rotate(-0 49.78 205.420627)">200</text>
     </g>
    </g>
    <g id="ytick_2">
     <g id="line2d_8">
      <g>
       <use xlink:href="#m3bf0f3a1c0" x="56.78" y="169.732804" style="stroke: #000000; stroke-width: 0.8"/>
      </g>
     </g>
     <g id="text_9">
      <text style="font: 10px 'DejaVu Sans', 'Bitstream Vera Sans', 'Computer Modern Sans Serif', 'Lucida Grande', 'Verdana', 'Geneva', 'Lucid', 'Arial', 'Helvetica', 'Avant Garde', sans-serif; text-anchor: end" x="49.78" y="173.532023" transform="rotate(-0 49.78 173.532023)">250</text>
     </g>
    </g>
    <g id="ytick_3">
     <g id="line2d_9">
      <g>
       <use xlink:href="#m3bf0f3a1c0" x="56.78" y="137.8442" style="stroke: #000000; stroke-width: 0.8"/>
      </g>
     </g>
     <g id="text_10">
      <text style="font: 10px 'DejaVu Sans', 'Bitstream Vera Sans', 'Computer Modern Sans Serif', 'Lucida Grande', 'Verdana', 'Geneva', 'Lucid', 'Arial', 'Helvetica', 'Avant Garde', sans-serif; text-anchor: end" x="49.78" y="141.643418" transform="rotate(-0 49.78 141.643418)">300</text>
     </g>
    </g>
    <g id="ytick_4">
     <g id="line2d_10">
      <g>
       <use xlink:href="#m3bf0f3a1c0" x="56.78" y="105.955595" style="stroke: #000000; stroke-width: 0.8"/>
      </g>
     </g>
     <g id="text_11">
      <text style="font: 10px 'DejaVu Sans', 'Bitstream Vera Sans', 'Computer Modern Sans Serif', 'Lucida Grande', 'Verdana', 'Geneva', 'Lucid', 'Arial', 'Helvetica', 'Avant Garde', sans-serif; text-anchor: end" x="49.78" y="109.754814" transform="rotate(-0 49.78 109.754814)">350</text>
     </g>
    </g>
    <g id="ytick_5">
     <g id="line2d_11">
      <g>
       <use xlink:href="#m3bf0f3a1c0" x="56.78" y="74.066991" style="stroke: #000000; stroke-width: 0.8"/>
      </g>
     </g>
     <g id="text_12">
      <text style="font: 10px 'DejaVu Sans', 'Bitstream Vera Sans', 'Computer Modern Sans Serif', 'Lucida Grande', 'Verdana', 'Geneva', 'Lucid', 'Arial', 'Helvetica', 'Avant Garde', sans-serif; text-anchor: end" x="49.78" y="77.86621" transform="rotate(-0 49.78 77.86621)">400</text>
     </g>
    </g>
    <g id="ytick_6">
     <g id="line2d_12">
      <g>
       <use xlink:href="#m3bf0f3a1c0" x="56.78" y="42.178387" style="stroke: #000000; stroke-width: 0.8"/>
      </g>
     </g>
     <g id="text_13">
      <text style="font: 10px 'DejaVu Sans', 'Bitstream Vera Sans', 'Computer Modern Sans Serif', 'Lucida Grande', 'Verdana', 'Geneva', 'Lucid', 'Arial', 'Helvetica', 'Avant Garde', sans-serif; text-anchor: end" x="49.78" y="45.977605" transform="rotate(-0 49.78 45.977605)">450</text>
     </g>
    </g>
    <g id="text_14">
     <text style="font: 10px 'DejaVu Sans', 'Bitstream Vera Sans', 'Computer Modern Sans Serif', 'Lucida Grande', 'Verdana', 'Geneva', 'Lucid', 'Arial', 'Helvetica', 'Avant Garde', sans-serif; text-anchor: middle" x="18.612812" y="110.42" transform="rotate(-90 18.612812 110.42)">power (uW)</text>
    </g>
   </g>
   <g id="line2d_13">
    <path d="M 78.082273 75.980307 
L 79.793299 93.200154 
L 81.504325 76.618079 
L 83.21535 63.862638 
L 84.926376 44.091703 
L 86.637402 169.095032 
L 88.348428 67.68927 
L 90.059454 75.980307 
L 91.77048 112.333316 
L 93.481506 163.355083 
L 95.192532 117.435493 
L 96.903558 114.884405 
L 98.614584 160.803995 
L 100.32561 75.980307 
L 102.036636 86.822433 
L 103.747662 94.475698 
L 105.458687 114.884405 
L 107.169713 74.066991 
L 108.880739 114.884405 
L 110.591765 61.311549 
L 112.302791 128.915391 
L 114.013817 61.949321 
L 115.724843 86.822433 
L 117.435869 19.856364 
L 119.146895 58.122689 
L 120.857921 200.983636 
L 122.568947 58.760461 
L 124.279973 100.853419 
L 125.990999 81.082484 
L 127.702024 126.364302 
L 129.41305 81.082484 
L 131.124076 52.38274 
L 132.835102 52.38274 
L 134.546128 172.921665 
L 136.257154 39.627298 
L 137.96818 56.209373 
L 139.679206 142.308604 
L 141.390232 141.670832 
L 143.101258 65.138182 
L 144.812284 70.240359 
L 146.52331 104.680051 
L 148.234336 112.971088 
L 149.945361 95.11347 
L 151.656387 83.633572 
L 153.367413 128.277618 
L 155.078439 104.042279 
L 156.789465 168.45726 
L 158.500491 78.531396 
L 160.211517 74.704763 
L 161.922543 71.515903 
L 163.633569 125.088758 
L 165.344595 128.277618 
L 167.055621 79.80694 
L 168.766647 85.546889 
L 170.477673 151.875186 
L 172.188698 124.450986 
L 173.899724 120.624353 
L 175.61075 75.980307 
L 177.321776 163.992855 
L 179.032802 151.237414 
L 180.743828 90.011293 
L 182.454854 190.141511 
L 184.16588 74.066991 
L 185.876906 86.184661 
L 187.587932 59.398233 
L 189.298958 88.097977 
L 191.009984 71.515903 
L 192.721009 99.577875 
L 194.432035 110.42 
L 196.143061 81.082484 
L 197.854087 164.630627 
L 199.565113 170.370576 
L 201.276139 78.531396 
L 202.987165 98.30233 
L 204.698191 78.531396 
L 206.409217 56.209373 
L 208.120243 107.23114 
L 209.831269 174.197209 
L 211.542295 163.992855 
L 213.253321 158.252907 
L 214.964346 92.562382 
L 216.675372 67.051498 
L 218.386398 70.878131 
L 220.097424 77.255851 
L 221.80845 43.453931 
L 223.519476 102.766735 
L 225.230502 91.286837 
L 226.941528 72.791447 
L 228.652554 125.088758 
L 230.36358 53.658284 
L 232.074606 91.924609 
L 233.785632 123.813214 
L 235.496658 84.909117 
L 237.207683 63.224866 
L 238.918709 85.546889 
L 240.629735 104.042279 
L 242.340761 177.386069 
L 244.051787 42.816159 
L 247.473839 82.9958 
L 249.184865 108.506684 
L 250.895891 101.491191 
L 252.606917 88.735749 
L 254.317943 84.271344 
L 256.028969 92.562382 
L 257.739995 169.095032 
L 259.45102 36.438438 
L 261.162046 151.875186 
L 262.873072 101.491191 
L 264.584098 45.367247 
L 266.295124 84.909117 
L 268.00615 104.680051 
L 269.717176 67.051498 
L 271.428202 85.546889 
L 273.139228 102.766735 
L 274.850254 156.33959 
L 276.56128 99.577875 
L 278.272306 31.974033 
L 279.983332 34.525122 
L 281.694357 81.720256 
L 283.405383 44.091703 
L 285.116409 47.918335 
L 286.827435 99.577875 
L 288.538461 144.859693 
L 290.249487 85.546889 
L 291.960513 73.429219 
L 293.671539 79.80694 
L 295.382565 95.11347 
L 297.093591 107.23114 
L 298.804617 67.051498 
L 300.515643 68.964814 
L 302.226668 67.051498 
L 303.937694 140.395288 
L 305.64872 83.633572 
L 307.359746 93.837926 
L 309.070772 102.128963 
L 310.781798 56.847145 
L 312.492824 58.122689 
L 314.20385 72.791447 
L 315.914876 49.19388 
L 317.625902 58.122689 
L 319.336928 168.45726 
L 321.047954 60.673777 
L 322.75898 72.153675 
L 324.470005 87.460205 
L 326.181031 69.602586 
L 327.892057 97.026786 
L 329.603083 134.017567 
L 331.314109 121.262125 
L 333.025135 137.8442 
L 334.736161 37.713982 
L 336.447187 83.633572 
L 338.158213 90.011293 
L 339.869239 44.091703 
L 341.580265 79.80694 
L 343.291291 40.902843 
L 345.002317 50.469424 
L 346.713342 55.571601 
L 348.424368 140.395288 
L 350.135394 72.153675 
L 353.557446 55.571601 
L 355.268472 75.342535 
L 356.979498 62.587093 
L 358.690524 94.475698 
L 360.40155 107.23114 
L 362.112576 156.977362 
L 363.823602 51.744968 
L 365.534628 55.571601 
L 367.245654 88.097977 
L 368.956679 101.491191 
L 370.667705 84.271344 
L 372.378731 74.066991 
L 374.089757 114.884405 
L 375.800783 65.775954 
L 377.511809 45.367247 
L 379.222835 77.255851 
L 380.933861 114.884405 
L 382.644887 135.930883 
L 384.355913 122.53767 
L 386.066939 69.602586 
L 387.777965 40.26507 
L 389.488991 59.398233 
L 391.200016 105.955595 
L 392.911042 79.80694 
L 394.622068 41.540615 
L 396.333094 55.571601 
L 398.04412 110.42 
L 399.755146 124.450986 
L 401.466172 97.664558 
L 403.177198 106.593367 
L 404.888224 117.435493 
L 406.59925 72.791447 
L 408.310276 90.649065 
L 410.021302 70.240359 
L 411.732327 95.751242 
L 413.443353 138.481972 
L 415.154379 65.138182 
L 416.865405 30.698489 
L 418.576431 152.512958 
L 420.287457 98.30233 
L 421.998483 165.906172 
L 423.709509 88.097977 
L 425.420535 49.831652 
L 427.131561 137.8442 
L 428.842587 127.002074 
L 430.553613 67.051498 
L 432.264639 102.128963 
L 433.975664 71.515903 
L 435.68669 46.005019 
L 437.397716 56.209373 
L 439.108742 80.444712 
L 440.819768 83.633572 
L 442.530794 150.599641 
L 444.24182 99.577875 
L 445.952846 111.057772 
L 447.663872 86.822433 
L 449.374898 81.082484 
L 451.085924 89.373521 
L 452.79695 94.475698 
L 454.507976 163.992855 
L 456.219001 86.184661 
L 457.930027 75.342535 
L 459.641053 125.72653 
L 461.352079 41.540615 
L 463.063105 118.073265 
L 464.774131 77.893624 
L 466.485157 73.429219 
L 468.196183 67.051498 
L 469.907209 81.082484 
L 471.618235 91.286837 
L 473.329261 130.828707 
L 475.040287 35.800666 
L 476.751313 90.649065 
L 478.462338 114.246633 
L 480.173364 165.268399 
L 481.88439 90.011293 
L 483.595416 74.704763 
L 485.306442 103.404507 
L 487.017468 75.980307 
L 488.728494 134.017567 
L 490.43952 77.893624 
L 492.150546 148.048553 
L 493.861572 62.587093 
L 495.572598 97.664558 
L 497.283624 63.862638 
L 498.99465 162.717311 
L 500.705675 48.556108 
L 502.416701 86.184661 
L 504.127727 85.546889 
L 504.127727 85.546889 
" clip-path="url(#p8159bbafa5)" style="fill: none; stroke: #99004d; stroke-width: 0.8; stroke-linecap: square"/>
   </g>
   <g id="patch_3">
    <path d="M 56.78 210.04 
L 56.78 10.8 
" style="fill: none; stroke: #000000; stroke-width: 0.8; stroke-linejoin: miter; stroke-linecap: square"/>
   </g>
   <g id="patch_4">
    <path d="M 525.43 210.04 
L 525.43 10.8 
" style="fill: none; stroke: #000000; stroke-width: 0.8; stroke-linejoin: miter; stroke-linecap: square"/>
   </g>
   <g id="patch_5">
    <path d="M 56.78 210.04 
L 525.43 210.04 
" style="fill: none; stroke: #000000; stroke-width: 0.8; stroke-linejoin: miter; stroke-linecap: square"/>
   </g>
   <g id="patch_6">
    <path d="M 56.78 10.8 
L 525.43 10.8 
" style="fill: none; stroke: #000000; stroke-width: 0.8; stroke-linejoin: miter; stroke-linecap: square"/>
   </g>
  </g>
  <g id="axes_2">
   <g id="matplotlib.axis_3">
    <g id="ytick_7">
     <g id="line2d_14">
      <defs>
       <path id="m1ad2104026" d="M 0 0 
L 3.5 0 
" style="stroke: #000000; stroke-width: 0.8"/>
      </defs>
      <g>
       <use xlink:href="#m1ad2104026" x="525.43" y="200.983636" style="stroke: #000000; stroke-width: 0.8"/>
      </g>
     </g>
     <g id="text_15">
      <text style="font: 10px 'DejaVu Sans', 'Bitstream Vera Sans', 'Computer Modern Sans Serif', 'Lucida Grande', 'Verdana', 'Geneva', 'Lucid', 'Arial', 'Helvetica', 'Avant Garde', sans-serif; text-anchor: start" x="532.43" y="204.782855" transform="rotate(-0 532.43 204.782855)">0</text>
     </g>
    </g>
    <g id="ytick_8">
     <g id="line2d_15">
      <g>
       <use xlink:href="#m1ad2104026" x="525.43" y="176.506978" style="stroke: #000000; stroke-width: 0.8"/>
      </g>
     </g>
     <g id="text_16">
      <text style="font: 10px 'DejaVu Sans', 'Bitstream Vera Sans', 'Computer Modern Sans Serif', 'Lucida Grande', 'Verdana', 'Geneva', 'Lucid', 'Arial', 'Helvetica', 'Avant Garde', sans-serif; text-anchor: start" x="532.43" y="180.306197" transform="rotate(-0 532.43 180.306197)">5</text>
     </g>
    </g>
    <g id="ytick_9">
     <g id="line2d_16">
      <g>
       <use xlink:href="#m1ad2104026" x="525.43" y="152.030319" style="stroke: #000000; stroke-width: 0.8"/>
      </g>
     </g>
     <g id="text_17">
      <text style="font: 10px 'DejaVu Sans', 'Bitstream Vera Sans', 'Computer Modern Sans Serif', 'Lucida Grande', 'Verdana', 'Geneva', 'Lucid', 'Arial', 'Helvetica', 'Avant Garde', sans-serif; text-anchor: start" x="532.43" y="155.829538" transform="rotate(-0 532.43 155.829538)">10</text>
     </g>
    </g>
    <g id="ytick_10">
     <g id="line2d_17">
      <g>
       <use xlink:href="#m1ad2104026" x="525.43" y="127.553661" style="stroke: #000000; stroke-width: 0.8"/>
      </g>
     </g>
     <g id="text_18">
      <text style="font: 10px 'DejaVu Sans', 'Bitstream Vera Sans', 'Computer Modern Sans Serif', 'Lucida Grande', 'Verdana', 'Geneva', 'Lucid', 'Arial', 'Helvetica', 'Avant Garde', sans-serif; text-anchor: start" x="532.43" y="131.35288" transform="rotate(-0 532.43 131.35288)">15</text>
     </g>
    </g>
    <g id="ytick_11">
     <g id="line2d_18">
      <g>
       <use xlink:href="#m1ad2104026" x="525.43" y="103.077002" style="stroke: #000000; stroke-width: 0.8"/>
      </g>
     </g>
     <g id="text_19">
      <text style="font: 10px 'DejaVu Sans', 'Bitstream Vera Sans', 'Computer Modern Sans Serif', 'Lucida Grande', 'Verdana', 'Geneva', 'Lucid', 'Arial', 'Helvetica', 'Avant Garde', sans-serif; text-anchor: start" x="532.43" y="106.876221" transform="rotate(-0 532.43 106.876221)">20</text>
     </g>
    </g>
    <g id="ytick_12">
     <g id="line2d_19">
      <g>
       <use xlink:href="#m1ad2104026" x="525.43" y="78.600344" style="stroke: #000000; stroke-width: 0.8"/>
      </g>
     </g>
     <g id="text_20">
      <text style="font: 10px 'DejaVu Sans', 'Bitstream Vera Sans', 'Computer Modern Sans Serif', 'Lucida Grande', 'Verdana', 'Geneva', 'Lucid', 'Arial', 'Helvetica', 'Avant Garde', sans-serif; text-anchor: start" x="532.43" y="82.399563" transform="rotate(-0 532.43 82.399563)">25</text>
     </g>
    </g>
    <g id="ytick_13">
     <g id="line2d_20">
      <g>
       <use xlink:href="#m1ad2104026" x="525.43" y="54.123686" style="stroke: #000000; stroke-width: 0.8"/>
      </g>
     </g>
     <g id="text_21">
      <text style="font: 10px 'DejaVu Sans', 'Bitstream Vera Sans', 'Computer Modern Sans Serif', 'Lucida Grande', 'Verdana', 'Geneva', 'Lucid', 'Arial', 'Helvetica', 'Avant Garde', sans-serif; text-anchor: start" x="532.43" y="57.922904" transform="rotate(-0 532.43 57.922904)">30</text>
     </g>
    </g>
    <g id="ytick_14">
     <g id="line2d_21">
      <g>
       <use xlink:href="#m1ad2104026" x="525.43" y="29.647027" style="stroke: #000000; stroke-width: 0.8"/>
      </g>
     </g>
     <g id="text_22">
      <text style="font: 10px 'DejaVu Sans', 'Bitstream Vera Sans', 'Computer Modern Sans Serif', 'Lucida Grande', 'Verdana', 'Geneva', 'Lucid', 'Arial', 'Helvetica', 'Avant Garde', sans-serif; text-anchor: start" x="532.43" y="33.446246" transform="rotate(-0 532.43 33.446246)">35</text>
     </g>
    </g>
    <g id="text_23">
     <text style="font: 10px 'DejaVu Sans', 'Bitstream Vera Sans', 'Computer Modern Sans Serif', 'Lucida Grande', 'Verdana', 'Geneva', 'Lucid', 'Arial', 'Helvetica', 'Avant Garde', sans-serif; text-anchor: middle" x="562.753438" y="110.42" transform="rotate(-90 562.753438 110.42)">hw(data)</text>
    </g>
   </g>
   <g id="line2d_22">
    <path d="M 78.082273 44.333022 
L 79.793299 156.925651 
L 81.504325 34.542359 
L 83.21535 68.809681 
L 84.926376 73.705012 
L 86.637402 127.553661 
L 88.348428 63.914349 
L 90.059454 122.658329 
L 91.77048 88.391007 
L 93.481506 156.925651 
L 95.192532 63.914349 
L 96.903558 88.391007 
L 98.614584 152.030319 
L 100.32561 63.914349 
L 102.036636 88.391007 
L 103.747662 186.297641 
L 105.458687 107.972334 
L 107.169713 78.600344 
L 108.880739 127.553661 
L 110.591765 19.856364 
L 112.302791 68.809681 
L 114.013817 54.123686 
L 115.724843 73.705012 
L 119.146895 44.333022 
L 120.857921 191.192973 
L 122.568947 88.391007 
L 124.279973 73.705012 
L 125.990999 103.077002 
L 127.702024 152.030319 
L 129.41305 98.181671 
L 131.124076 98.181671 
L 132.835102 59.019017 
L 134.546128 117.762998 
L 136.257154 93.286339 
L 137.96818 39.43769 
L 139.679206 98.181671 
L 141.390232 107.972334 
L 143.101258 63.914349 
L 144.812284 39.43769 
L 146.52331 176.506978 
L 148.234336 103.077002 
L 149.945361 68.809681 
L 151.656387 103.077002 
L 153.367413 112.867666 
L 155.078439 166.716314 
L 156.789465 166.716314 
L 158.500491 88.391007 
L 160.211517 73.705012 
L 161.922543 44.333022 
L 163.633569 132.448993 
L 165.344595 161.820983 
L 167.055621 112.867666 
L 168.766647 107.972334 
L 170.477673 112.867666 
L 172.188698 98.181671 
L 173.899724 112.867666 
L 175.61075 63.914349 
L 177.321776 166.716314 
L 179.032802 122.658329 
L 180.743828 98.181671 
L 182.454854 166.716314 
L 184.16588 103.077002 
L 185.876906 44.333022 
L 189.298958 73.705012 
L 191.009984 68.809681 
L 192.721009 93.286339 
L 194.432035 83.495676 
L 196.143061 44.333022 
L 197.854087 112.867666 
L 199.565113 156.925651 
L 201.276139 49.228354 
L 202.987165 122.658329 
L 204.698191 78.600344 
L 206.409217 73.705012 
L 208.120243 122.658329 
L 209.831269 196.088305 
L 211.542295 171.611646 
L 213.253321 93.286339 
L 216.675372 132.448993 
L 218.386398 54.123686 
L 220.097424 112.867666 
L 221.80845 107.972334 
L 223.519476 59.019017 
L 225.230502 117.762998 
L 226.941528 83.495676 
L 228.652554 103.077002 
L 230.36358 88.391007 
L 232.074606 78.600344 
L 233.785632 93.286339 
L 235.496658 93.286339 
L 237.207683 98.181671 
L 238.918709 68.809681 
L 240.629735 83.495676 
L 242.340761 200.983636 
L 244.051787 68.809681 
L 245.762813 112.867666 
L 247.473839 112.867666 
L 249.184865 98.181671 
L 250.895891 103.077002 
L 252.606917 73.705012 
L 254.317943 107.972334 
L 256.028969 83.495676 
L 257.739995 103.077002 
L 259.45102 63.914349 
L 261.162046 112.867666 
L 262.873072 93.286339 
L 264.584098 88.391007 
L 266.295124 103.077002 
L 269.717176 73.705012 
L 271.428202 73.705012 
L 273.139228 103.077002 
L 274.850254 152.030319 
L 276.56128 78.600344 
L 278.272306 54.123686 
L 279.983332 107.972334 
L 281.694357 117.762998 
L 283.405383 49.228354 
L 286.827435 156.925651 
L 288.538461 181.40231 
L 290.249487 88.391007 
L 291.960513 73.705012 
L 293.671539 68.809681 
L 295.382565 98.181671 
L 297.093591 59.019017 
L 298.804617 112.867666 
L 300.515643 59.019017 
L 302.226668 73.705012 
L 303.937694 161.820983 
L 305.64872 107.972334 
L 307.359746 147.134988 
L 309.070772 156.925651 
L 310.781798 107.972334 
L 312.492824 39.43769 
L 314.20385 98.181671 
L 315.914876 49.228354 
L 317.625902 68.809681 
L 319.336928 142.239656 
L 321.047954 88.391007 
L 322.75898 78.600344 
L 326.181031 98.181671 
L 327.892057 98.181671 
L 329.603083 176.506978 
L 331.314109 107.972334 
L 333.025135 112.867666 
L 334.736161 59.019017 
L 336.447187 54.123686 
L 338.158213 88.391007 
L 339.869239 63.914349 
L 341.580265 68.809681 
L 343.291291 93.286339 
L 345.002317 54.123686 
L 346.713342 44.333022 
L 348.424368 122.658329 
L 350.135394 127.553661 
L 351.84642 54.123686 
L 353.557446 117.762998 
L 355.268472 98.181671 
L 356.979498 112.867666 
L 358.690524 161.820983 
L 360.40155 83.495676 
L 362.112576 137.344324 
L 363.823602 88.391007 
L 365.534628 59.019017 
L 367.245654 98.181671 
L 368.956679 117.762998 
L 370.667705 88.391007 
L 372.378731 93.286339 
L 375.800783 93.286339 
L 377.511809 78.600344 
L 379.222835 98.181671 
L 380.933861 88.391007 
L 382.644887 147.134988 
L 384.355913 83.495676 
L 386.066939 117.762998 
L 387.777965 73.705012 
L 389.488991 83.495676 
L 391.200016 117.762998 
L 392.911042 103.077002 
L 394.622068 54.123686 
L 396.333094 107.972334 
L 398.04412 147.134988 
L 399.755146 88.391007 
L 401.466172 98.181671 
L 403.177198 68.809681 
L 404.888224 59.019017 
L 406.59925 54.123686 
L 408.310276 152.030319 
L 410.021302 107.972334 
L 411.732327 93.286339 
L 413.443353 83.495676 
L 415.154379 63.914349 
L 416.865405 59.019017 
L 418.576431 147.134988 
L 420.287457 127.553661 
L 421.998483 161.820983 
L 423.709509 142.239656 
L 425.420535 54.123686 
L 427.131561 142.239656 
L 428.842587 88.391007 
L 430.553613 107.972334 
L 432.264639 137.344324 
L 433.975664 93.286339 
L 435.68669 44.333022 
L 437.397716 59.019017 
L 439.108742 88.391007 
L 440.819768 127.553661 
L 442.530794 117.762998 
L 444.24182 63.914349 
L 445.952846 107.972334 
L 447.663872 83.495676 
L 449.374898 93.286339 
L 451.085924 142.239656 
L 452.79695 59.019017 
L 454.507976 54.123686 
L 456.219001 73.705012 
L 457.930027 127.553661 
L 459.641053 142.239656 
L 461.352079 34.542359 
L 463.063105 137.344324 
L 464.774131 63.914349 
L 466.485157 88.391007 
L 468.196183 59.019017 
L 469.907209 103.077002 
L 471.618235 88.391007 
L 473.329261 112.867666 
L 475.040287 88.391007 
L 476.751313 112.867666 
L 478.462338 98.181671 
L 480.173364 176.506978 
L 481.88439 59.019017 
L 483.595416 44.333022 
L 485.306442 68.809681 
L 487.017468 78.600344 
L 488.728494 127.553661 
L 490.43952 93.286339 
L 492.150546 137.344324 
L 493.861572 68.809681 
L 497.283624 68.809681 
L 498.99465 132.448993 
L 500.705675 59.019017 
L 502.416701 73.705012 
L 504.127727 98.181671 
L 504.127727 98.181671 
" clip-path="url(#p8159bbafa5)" style="fill: none; stroke: #235996; stroke-width: 0.8; stroke-linecap: square"/>
   </g>
   <g id="patch_7">
    <path d="M 56.78 210.04 
L 56.78 10.8 
" style="fill: none; stroke: #000000; stroke-width: 0.8; stroke-linejoin: miter; stroke-linecap: square"/>
   </g>
   <g id="patch_8">
    <path d="M 525.43 210.04 
L 525.43 10.8 
" style="fill: none; stroke: #000000; stroke-width: 0.8; stroke-linejoin: miter; stroke-linecap: square"/>
   </g>
   <g id="patch_9">
    <path d="M 56.78 210.04 
L 525.43 210.04 
" style="fill: none; stroke: #000000; stroke-width: 0.8; stroke-linejoin: miter; stroke-linecap: square"/>
   </g>
   <g id="patch_10">
    <path d="M 56.78 10.8 
L 525.43 10.8 
" style="fill: none; stroke: #000000; stroke-width: 0.8; stroke-linejoin: miter; stroke-linecap: square"/>
   </g>
   <g id="legend_1">
    <g id="patch_11">
     <path d="M 150.494625 43.4565 
L 431.715375 43.4565 
Q 434.595375 43.4565 434.595375 40.5765 
L 434.595375 20.88 
Q 434.595375 18 431.715375 18 
L 150.494625 18 
Q 147.614625 18 147.614625 20.88 
L 147.614625 40.5765 
Q 147.614625 43.4565 150.494625 43.4565 
z
" style="fill: #ffffff; opacity: 0.8; stroke: #000000; stroke-linejoin: miter"/>
    </g>
    <g id="line2d_23">
     <path d="M 153.374625 29.66175 
L 167.774625 29.66175 
L 182.174625 29.66175 
" style="fill: none; stroke: #99004d; stroke-width: 0.8; stroke-linecap: square"/>
    </g>
    <g id="text_24">
     <text style="font: 14.4px 'DejaVu Sans', 'Bitstream Vera Sans', 'Computer Modern Sans Serif', 'Lucida Grande', 'Verdana', 'Geneva', 'Lucid', 'Arial', 'Helvetica', 'Avant Garde', sans-serif; text-anchor: start" x="193.694625" y="34.70175" transform="rotate(-0 193.694625 34.70175)">power</text>
    </g>
    <g id="line2d_24">
     <path d="M 267.004125 29.66175 
L 281.404125 29.66175 
L 295.804125 29.66175 
" style="fill: none; stroke: #235996; stroke-width: 0.8; stroke-linecap: square"/>
    </g>
    <g id="text_25">
     <text style="font: 14.4px 'DejaVu Sans', 'Bitstream Vera Sans', 'Computer Modern Sans Serif', 'Lucida Grande', 'Verdana', 'Geneva', 'Lucid', 'Arial', 'Helvetica', 'Avant Garde', sans-serif; text-anchor: start" x="307.324125" y="34.70175" transform="rotate(-0 307.324125 34.70175)">hw(rs1)+hw(rs2)</text>
    </g>
   </g>
  </g>
 </g>
 <defs>
  <clipPath id="p8159bbafa5">
   <rect x="56.78" y="10.8" width="468.65" height="199.24"/>
  </clipPath>
 </defs>
</svg>
