<?xml version="1.0" encoding="utf-8" standalone="no"?>
<!DOCTYPE svg PUBLIC "-//W3C//DTD SVG 1.1//EN"
  "http://www.w3.org/Graphics/SVG/1.1/DTD/svg11.dtd">
<svg xmlns:xlink="http://www.w3.org/1999/xlink" width="576pt" height="252pt" viewBox="0 0 576 252" xmlns="http://www.w3.org/2000/svg" version="1.1">
 <metadata>
  <rdf:RDF xmlns:dc="http://purl.org/dc/elements/1.1/" xmlns:cc="http://creativecommons.org/ns#" xmlns:rdf="http://www.w3.org/1999/02/22-rdf-syntax-ns#">
   <cc:Work>
    <dc:type rdf:resource="http://purl.org/dc/dcmitype/StillImage"/>
    <dc:date>2023-12-06T16:02:50.590829</dc:date>
    <dc:format>image/svg+xml</dc:format>
    <dc:creator>
     <cc:Agent>
      <dc:title>Matplotlib v3.7.4, https://matplotlib.org/</dc:title>
     </cc:Agent>
    </dc:creator>
   </cc:Work>
  </rdf:RDF>
 </metadata>
 <defs>
  <style type="text/css">*{stroke-linejoin: round; stroke-linecap: butt}</style>
 </defs>
 <g id="figure_1">
  <g id="patch_1">
   <path d="M 0 252 
L 576 252 
L 576 0 
L 0 0 
z
" style="fill: #ffffff"/>
  </g>
  <g id="axes_1">
   <g id="patch_2">
    <path d="M 56.78 210.04 
L 525.43 210.04 
L 525.43 10.8 
L 56.78 10.8 
z
" style="fill: #ffffff"/>
   </g>
   <g id="matplotlib.axis_1">
    <g id="xtick_1">
     <g id="line2d_1">
      <defs>
       <path id="mcaa9b1a321" d="M 0 0 
L 0 3.5 
" style="stroke: #000000; stroke-width: 0.8"/>
      </defs>
      <g>
       <use xlink:href="#mcaa9b1a321" x="78.082273" y="210.04" style="stroke: #000000; stroke-width: 0.8"/>
      </g>
     </g>
     <g id="text_1">
      <text style="font: 10px 'DejaVu Sans', 'Bitstream Vera Sans', 'Computer Modern Sans Serif', 'Lucida Grande', 'Verdana', 'Geneva', 'Lucid', 'Arial', 'Helvetica', 'Avant Garde', sans-serif; text-anchor: middle" x="78.082273" y="224.638438" transform="rotate(-0 78.082273 224.638438)">0</text>
     </g>
    </g>
    <g id="xtick_2">
     <g id="line2d_2">
      <g>
       <use xlink:href="#mcaa9b1a321" x="163.633569" y="210.04" style="stroke: #000000; stroke-width: 0.8"/>
      </g>
     </g>
     <g id="text_2">
      <text style="font: 10px 'DejaVu Sans', 'Bitstream Vera Sans', 'Computer Modern Sans Serif', 'Lucida Grande', 'Verdana', 'Geneva', 'Lucid', 'Arial', 'Helvetica', 'Avant Garde', sans-serif; text-anchor: middle" x="163.633569" y="224.638438" transform="rotate(-0 163.633569 224.638438)">50</text>
     </g>
    </g>
    <g id="xtick_3">
     <g id="line2d_3">
      <g>
       <use xlink:href="#mcaa9b1a321" x="249.184865" y="210.04" style="stroke: #000000; stroke-width: 0.8"/>
      </g>
     </g>
     <g id="text_3">
      <text style="font: 10px 'DejaVu Sans', 'Bitstream Vera Sans', 'Computer Modern Sans Serif', 'Lucida Grande', 'Verdana', 'Geneva', 'Lucid', 'Arial', 'Helvetica', 'Avant Garde', sans-serif; text-anchor: middle" x="249.184865" y="224.638438" transform="rotate(-0 249.184865 224.638438)">100</text>
     </g>
    </g>
    <g id="xtick_4">
     <g id="line2d_4">
      <g>
       <use xlink:href="#mcaa9b1a321" x="334.736161" y="210.04" style="stroke: #000000; stroke-width: 0.8"/>
      </g>
     </g>
     <g id="text_4">
      <text style="font: 10px 'DejaVu Sans', 'Bitstream Vera Sans', 'Computer Modern Sans Serif', 'Lucida Grande', 'Verdana', 'Geneva', 'Lucid', 'Arial', 'Helvetica', 'Avant Garde', sans-serif; text-anchor: middle" x="334.736161" y="224.638438" transform="rotate(-0 334.736161 224.638438)">150</text>
     </g>
    </g>
    <g id="xtick_5">
     <g id="line2d_5">
      <g>
       <use xlink:href="#mcaa9b1a321" x="420.287457" y="210.04" style="stroke: #000000; stroke-width: 0.8"/>
      </g>
     </g>
     <g id="text_5">
      <text style="font: 10px 'DejaVu Sans', 'Bitstream Vera Sans', 'Computer Modern Sans Serif', 'Lucida Grande', 'Verdana', 'Geneva', 'Lucid', 'Arial', 'Helvetica', 'Avant Garde', sans-serif; text-anchor: middle" x="420.287457" y="224.638438" transform="rotate(-0 420.287457 224.638438)">200</text>
     </g>
    </g>
    <g id="xtick_6">
     <g id="line2d_6">
      <g>
       <use xlink:href="#mcaa9b1a321" x="505.838753" y="210.04" style="stroke: #000000; stroke-width: 0.8"/>
      </g>
     </g>
     <g id="text_6">
      <text style="font: 10px 'DejaVu Sans', 'Bitstream Vera Sans', 'Computer Modern Sans Serif', 'Lucida Grande', 'Verdana', 'Geneva', 'Lucid', 'Arial', 'Helvetica', 'Avant Garde', sans-serif; text-anchor: middle" x="505.838753" y="224.638438" transform="rotate(-0 505.838753 224.638438)">250</text>
     </g>
    </g>
    <g id="text_7">
     <text style="font: 10px 'DejaVu Sans', 'Bitstream Vera Sans', 'Computer Modern Sans Serif', 'Lucida Grande', 'Verdana', 'Geneva', 'Lucid', 'Arial', 'Helvetica', 'Avant Garde', sans-serif; text-anchor: middle" x="291.105" y="238.316563" transform="rotate(-0 291.105 238.316563)">Cycles</text>
    </g>
   </g>
   <g id="matplotlib.axis_2">
    <g id="ytick_1">
     <g id="line2d_7">
      <defs>
       <path id="m962c26a4f1" d="M 0 0 
L -3.5 0 
" style="stroke: #000000; stroke-width: 0.8"/>
      </defs>
      <g>
       <use xlink:href="#m962c26a4f1" x="56.78" y="206.291395" style="stroke: #000000; stroke-width: 0.8"/>
      </g>
     </g>
     <g id="text_8">
      <text style="font: 10px 'DejaVu Sans', 'Bitstream Vera Sans', 'Computer Modern Sans Serif', 'Lucida Grande', 'Verdana', 'Geneva', 'Lucid', 'Arial', 'Helvetica', 'Avant Garde', sans-serif; text-anchor: end" x="49.78" y="210.090614" transform="rotate(-0 49.78 210.090614)">200</text>
     </g>
    </g>
    <g id="ytick_2">
     <g id="line2d_8">
      <g>
       <use xlink:href="#m962c26a4f1" x="56.78" y="173.117902" style="stroke: #000000; stroke-width: 0.8"/>
      </g>
     </g>
     <g id="text_9">
      <text style="font: 10px 'DejaVu Sans', 'Bitstream Vera Sans', 'Computer Modern Sans Serif', 'Lucida Grande', 'Verdana', 'Geneva', 'Lucid', 'Arial', 'Helvetica', 'Avant Garde', sans-serif; text-anchor: end" x="49.78" y="176.917121" transform="rotate(-0 49.78 176.917121)">250</text>
     </g>
    </g>
    <g id="ytick_3">
     <g id="line2d_9">
      <g>
       <use xlink:href="#m962c26a4f1" x="56.78" y="139.944409" style="stroke: #000000; stroke-width: 0.8"/>
      </g>
     </g>
     <g id="text_10">
      <text style="font: 10px 'DejaVu Sans', 'Bitstream Vera Sans', 'Computer Modern Sans Serif', 'Lucida Grande', 'Verdana', 'Geneva', 'Lucid', 'Arial', 'Helvetica', 'Avant Garde', sans-serif; text-anchor: end" x="49.78" y="143.743628" transform="rotate(-0 49.78 143.743628)">300</text>
     </g>
    </g>
    <g id="ytick_4">
     <g id="line2d_10">
      <g>
       <use xlink:href="#m962c26a4f1" x="56.78" y="106.770916" style="stroke: #000000; stroke-width: 0.8"/>
      </g>
     </g>
     <g id="text_11">
      <text style="font: 10px 'DejaVu Sans', 'Bitstream Vera Sans', 'Computer Modern Sans Serif', 'Lucida Grande', 'Verdana', 'Geneva', 'Lucid', 'Arial', 'Helvetica', 'Avant Garde', sans-serif; text-anchor: end" x="49.78" y="110.570135" transform="rotate(-0 49.78 110.570135)">350</text>
     </g>
    </g>
    <g id="ytick_5">
     <g id="line2d_11">
      <g>
       <use xlink:href="#m962c26a4f1" x="56.78" y="73.597423" style="stroke: #000000; stroke-width: 0.8"/>
      </g>
     </g>
     <g id="text_12">
      <text style="font: 10px 'DejaVu Sans', 'Bitstream Vera Sans', 'Computer Modern Sans Serif', 'Lucida Grande', 'Verdana', 'Geneva', 'Lucid', 'Arial', 'Helvetica', 'Avant Garde', sans-serif; text-anchor: end" x="49.78" y="77.396641" transform="rotate(-0 49.78 77.396641)">400</text>
     </g>
    </g>
    <g id="ytick_6">
     <g id="line2d_12">
      <g>
       <use xlink:href="#m962c26a4f1" x="56.78" y="40.423929" style="stroke: #000000; stroke-width: 0.8"/>
      </g>
     </g>
     <g id="text_13">
      <text style="font: 10px 'DejaVu Sans', 'Bitstream Vera Sans', 'Computer Modern Sans Serif', 'Lucida Grande', 'Verdana', 'Geneva', 'Lucid', 'Arial', 'Helvetica', 'Avant Garde', sans-serif; text-anchor: end" x="49.78" y="44.223148" transform="rotate(-0 49.78 44.223148)">450</text>
     </g>
    </g>
    <g id="text_14">
     <text style="font: 10px 'DejaVu Sans', 'Bitstream Vera Sans', 'Computer Modern Sans Serif', 'Lucida Grande', 'Verdana', 'Geneva', 'Lucid', 'Arial', 'Helvetica', 'Avant Garde', sans-serif; text-anchor: middle" x="18.612812" y="110.42" transform="rotate(-90 18.612812 110.42)">power (uW)</text>
    </g>
   </g>
   <g id="line2d_13">
    <path d="M 78.082273 78.905181 
L 79.793299 100.799687 
L 81.504325 72.933953 
L 83.21535 85.53988 
L 84.926376 107.434386 
L 86.637402 94.828458 
L 88.348428 116.722964 
L 90.059454 90.184169 
L 91.77048 101.463157 
L 93.481506 88.857229 
L 95.192532 102.126627 
L 96.903558 120.040313 
L 98.614584 57.674146 
L 100.32561 45.068218 
L 102.036636 120.703783 
L 103.747662 118.713373 
L 105.458687 48.385568 
L 107.169713 57.674146 
L 108.880739 78.241712 
L 110.591765 183.06995 
L 112.302791 120.703783 
L 114.013817 70.943543 
L 115.724843 116.059494 
L 117.435869 107.434386 
L 119.146895 88.19376 
L 120.857921 154.540746 
L 122.568947 142.598288 
L 124.279973 66.962724 
L 125.990999 57.674146 
L 127.702024 86.86682 
L 129.41305 84.21294 
L 131.124076 86.86682 
L 132.835102 106.107446 
L 134.546128 139.280939 
L 136.257154 88.857229 
L 137.96818 78.241712 
L 139.679206 156.531156 
L 141.390232 47.058628 
L 143.101258 64.972314 
L 144.812284 147.906047 
L 146.52331 136.62706 
L 148.234336 96.818868 
L 149.945361 92.174579 
L 151.656387 47.058628 
L 153.367413 80.895591 
L 155.078439 68.953134 
L 156.789465 92.838049 
L 158.500491 79.568651 
L 160.211517 84.87641 
L 161.922543 146.579108 
L 163.633569 133.97318 
L 165.344595 68.289664 
L 167.055621 41.750869 
L 168.766647 45.731688 
L 170.477673 51.702917 
L 172.188698 53.029857 
L 173.899724 65.635784 
L 175.61075 58.337616 
L 177.321776 120.703783 
L 179.032802 57.674146 
L 180.743828 118.049903 
L 182.454854 128.665421 
L 184.16588 120.040313 
L 185.876906 85.53988 
L 187.587932 41.750869 
L 189.298958 74.924362 
L 191.009984 71.607013 
L 192.721009 86.86682 
L 194.432035 60.328025 
L 197.854087 59.001086 
L 199.565113 90.184169 
L 201.276139 55.683736 
L 202.987165 62.318435 
L 204.698191 60.328025 
L 206.409217 68.953134 
L 208.120243 124.684602 
L 209.831269 128.001951 
L 211.542295 120.040313 
L 213.253321 67.626194 
L 214.964346 31.135351 
L 216.675372 106.107446 
L 218.386398 200.983636 
L 220.097424 73.597423 
L 221.80845 80.895591 
L 223.519476 155.204216 
L 225.230502 77.578242 
L 226.941528 185.06036 
L 228.652554 35.77964 
L 230.36358 68.953134 
L 232.074606 77.578242 
L 233.785632 68.289664 
L 235.496658 96.155398 
L 237.207683 103.453566 
L 238.918709 64.308844 
L 240.629735 47.722098 
L 242.340761 42.414339 
L 244.051787 96.818868 
L 245.762813 47.058628 
L 247.473839 65.635784 
L 249.184865 68.953134 
L 250.895891 93.501518 
L 252.606917 51.039447 
L 254.317943 53.693327 
L 256.028969 178.425661 
L 257.739995 59.664555 
L 259.45102 91.511109 
L 261.162046 49.049038 
L 262.873072 110.751735 
L 264.584098 59.001086 
L 266.295124 116.059494 
L 268.00615 29.144942 
L 269.717176 96.155398 
L 271.428202 38.43352 
L 273.139228 68.953134 
L 274.850254 62.981905 
L 276.56128 58.337616 
L 278.272306 141.271349 
L 279.983332 49.712507 
L 281.694357 35.77964 
L 283.405383 51.702917 
L 285.116409 59.001086 
L 286.827435 109.424795 
L 288.538461 149.896457 
L 290.249487 77.578242 
L 291.960513 114.069084 
L 293.671539 159.848505 
L 295.382565 141.271349 
L 297.093591 43.741279 
L 298.804617 57.010676 
L 300.515643 78.905181 
L 302.226668 82.222531 
L 303.937694 72.270483 
L 305.64872 122.030723 
L 307.359746 94.828458 
L 309.070772 63.645375 
L 310.781798 93.501518 
L 312.492824 120.703783 
L 314.20385 42.414339 
L 315.914876 127.338482 
L 317.625902 102.126627 
L 319.336928 84.87641 
L 321.047954 57.010676 
L 322.75898 84.21294 
L 324.470005 57.674146 
L 326.181031 55.683736 
L 327.892057 60.991495 
L 329.603083 101.463157 
L 331.314109 102.126627 
L 333.025135 84.21294 
L 334.736161 74.260892 
L 336.447187 46.395158 
L 338.158213 106.770916 
L 339.869239 120.703783 
L 341.580265 48.385568 
L 343.291291 49.049038 
L 345.002317 41.750869 
L 346.713342 61.654965 
L 348.424368 108.097855 
L 350.135394 126.011542 
L 351.84642 82.886001 
L 353.557446 101.463157 
L 355.268472 99.472747 
L 356.979498 38.43352 
L 358.690524 118.713373 
L 360.40155 53.029857 
L 362.112576 90.184169 
L 363.823602 75.587832 
L 365.534628 128.665421 
L 367.245654 88.19376 
L 368.956679 19.856364 
L 370.667705 73.597423 
L 372.378731 105.443976 
L 374.089757 118.049903 
L 375.800783 92.174579 
L 377.511809 57.674146 
L 379.222835 92.174579 
L 380.933861 118.713373 
L 382.644887 56.347206 
L 384.355913 47.722098 
L 389.488991 175.108312 
L 391.200016 94.164988 
L 392.911042 135.96359 
L 394.622068 130.655831 
L 396.333094 112.078675 
L 398.04412 76.251302 
L 399.755146 173.781372 
L 401.466172 78.905181 
L 403.177198 62.318435 
L 404.888224 86.20335 
L 406.59925 59.001086 
L 408.310276 165.819734 
L 410.021302 31.135351 
L 411.732327 144.588698 
L 413.443353 107.434386 
L 415.154379 119.376843 
L 416.865405 63.645375 
L 418.576431 83.549471 
L 420.287457 158.521565 
L 421.998483 60.991495 
L 423.709509 51.039447 
L 425.420535 159.185035 
L 427.131561 157.194625 
L 428.842587 161.175445 
L 432.264639 51.039447 
L 433.975664 38.43352 
L 435.68669 128.665421 
L 437.397716 106.770916 
L 439.108742 88.19376 
L 440.819768 83.549471 
L 442.530794 73.597423 
L 444.24182 62.318435 
L 445.952846 78.905181 
L 447.663872 96.818868 
L 449.374898 154.540746 
L 451.085924 142.598288 
L 452.79695 69.616603 
L 454.507976 91.511109 
L 456.219001 133.30971 
L 457.930027 68.953134 
L 459.641053 59.664555 
L 461.352079 142.598288 
L 463.063105 150.559927 
L 464.774131 167.810143 
L 466.485157 106.107446 
L 468.196183 173.117902 
L 469.907209 88.19376 
L 471.618235 112.742145 
L 473.329261 120.040313 
L 475.040287 34.452701 
L 476.751313 124.021132 
L 478.462338 82.886001 
L 480.173364 32.462291 
L 481.88439 173.781372 
L 485.306442 115.396024 
L 487.017468 112.742145 
L 488.728494 166.483203 
L 490.43952 64.972314 
L 492.150546 57.674146 
L 495.572598 59.001086 
L 497.283624 86.20335 
L 498.99465 32.462291 
L 500.705675 90.847639 
L 502.416701 79.568651 
L 504.127727 80.895591 
L 504.127727 80.895591 
" clip-path="url(#p392cc9d637)" style="fill: none; stroke: #99004d; stroke-width: 0.8; stroke-linecap: square"/>
   </g>
   <g id="patch_3">
    <path d="M 56.78 210.04 
L 56.78 10.8 
" style="fill: none; stroke: #000000; stroke-width: 0.8; stroke-linejoin: miter; stroke-linecap: square"/>
   </g>
   <g id="patch_4">
    <path d="M 525.43 210.04 
L 525.43 10.8 
" style="fill: none; stroke: #000000; stroke-width: 0.8; stroke-linejoin: miter; stroke-linecap: square"/>
   </g>
   <g id="patch_5">
    <path d="M 56.78 210.04 
L 525.43 210.04 
" style="fill: none; stroke: #000000; stroke-width: 0.8; stroke-linejoin: miter; stroke-linecap: square"/>
   </g>
   <g id="patch_6">
    <path d="M 56.78 10.8 
L 525.43 10.8 
" style="fill: none; stroke: #000000; stroke-width: 0.8; stroke-linejoin: miter; stroke-linecap: square"/>
   </g>
  </g>
  <g id="axes_2">
   <g id="matplotlib.axis_3">
    <g id="ytick_7">
     <g id="line2d_14">
      <defs>
       <path id="m9700c22bd3" d="M 0 0 
L 3.5 0 
" style="stroke: #000000; stroke-width: 0.8"/>
      </defs>
      <g>
       <use xlink:href="#m9700c22bd3" x="525.43" y="185.001818" style="stroke: #000000; stroke-width: 0.8"/>
      </g>
     </g>
     <g id="text_15">
      <text style="font: 10px 'DejaVu Sans', 'Bitstream Vera Sans', 'Computer Modern Sans Serif', 'Lucida Grande', 'Verdana', 'Geneva', 'Lucid', 'Arial', 'Helvetica', 'Avant Garde', sans-serif; text-anchor: start" x="532.43" y="188.801037" transform="rotate(-0 532.43 188.801037)">5</text>
     </g>
    </g>
    <g id="ytick_8">
     <g id="line2d_15">
      <g>
       <use xlink:href="#m9700c22bd3" x="525.43" y="158.365455" style="stroke: #000000; stroke-width: 0.8"/>
      </g>
     </g>
     <g id="text_16">
      <text style="font: 10px 'DejaVu Sans', 'Bitstream Vera Sans', 'Computer Modern Sans Serif', 'Lucida Grande', 'Verdana', 'Geneva', 'Lucid', 'Arial', 'Helvetica', 'Avant Garde', sans-serif; text-anchor: start" x="532.43" y="162.164673" transform="rotate(-0 532.43 162.164673)">10</text>
     </g>
    </g>
    <g id="ytick_9">
     <g id="line2d_16">
      <g>
       <use xlink:href="#m9700c22bd3" x="525.43" y="131.729091" style="stroke: #000000; stroke-width: 0.8"/>
      </g>
     </g>
     <g id="text_17">
      <text style="font: 10px 'DejaVu Sans', 'Bitstream Vera Sans', 'Computer Modern Sans Serif', 'Lucida Grande', 'Verdana', 'Geneva', 'Lucid', 'Arial', 'Helvetica', 'Avant Garde', sans-serif; text-anchor: start" x="532.43" y="135.52831" transform="rotate(-0 532.43 135.52831)">15</text>
     </g>
    </g>
    <g id="ytick_10">
     <g id="line2d_17">
      <g>
       <use xlink:href="#m9700c22bd3" x="525.43" y="105.092727" style="stroke: #000000; stroke-width: 0.8"/>
      </g>
     </g>
     <g id="text_18">
      <text style="font: 10px 'DejaVu Sans', 'Bitstream Vera Sans', 'Computer Modern Sans Serif', 'Lucida Grande', 'Verdana', 'Geneva', 'Lucid', 'Arial', 'Helvetica', 'Avant Garde', sans-serif; text-anchor: start" x="532.43" y="108.891946" transform="rotate(-0 532.43 108.891946)">20</text>
     </g>
    </g>
    <g id="ytick_11">
     <g id="line2d_18">
      <g>
       <use xlink:href="#m9700c22bd3" x="525.43" y="78.456364" style="stroke: #000000; stroke-width: 0.8"/>
      </g>
     </g>
     <g id="text_19">
      <text style="font: 10px 'DejaVu Sans', 'Bitstream Vera Sans', 'Computer Modern Sans Serif', 'Lucida Grande', 'Verdana', 'Geneva', 'Lucid', 'Arial', 'Helvetica', 'Avant Garde', sans-serif; text-anchor: start" x="532.43" y="82.255582" transform="rotate(-0 532.43 82.255582)">25</text>
     </g>
    </g>
    <g id="ytick_12">
     <g id="line2d_19">
      <g>
       <use xlink:href="#m9700c22bd3" x="525.43" y="51.82" style="stroke: #000000; stroke-width: 0.8"/>
      </g>
     </g>
     <g id="text_20">
      <text style="font: 10px 'DejaVu Sans', 'Bitstream Vera Sans', 'Computer Modern Sans Serif', 'Lucida Grande', 'Verdana', 'Geneva', 'Lucid', 'Arial', 'Helvetica', 'Avant Garde', sans-serif; text-anchor: start" x="532.43" y="55.619219" transform="rotate(-0 532.43 55.619219)">30</text>
     </g>
    </g>
    <g id="ytick_13">
     <g id="line2d_20">
      <g>
       <use xlink:href="#m9700c22bd3" x="525.43" y="25.183636" style="stroke: #000000; stroke-width: 0.8"/>
      </g>
     </g>
     <g id="text_21">
      <text style="font: 10px 'DejaVu Sans', 'Bitstream Vera Sans', 'Computer Modern Sans Serif', 'Lucida Grande', 'Verdana', 'Geneva', 'Lucid', 'Arial', 'Helvetica', 'Avant Garde', sans-serif; text-anchor: start" x="532.43" y="28.982855" transform="rotate(-0 532.43 28.982855)">35</text>
     </g>
    </g>
    <g id="text_22">
     <text style="font: 10px 'DejaVu Sans', 'Bitstream Vera Sans', 'Computer Modern Sans Serif', 'Lucida Grande', 'Verdana', 'Geneva', 'Lucid', 'Arial', 'Helvetica', 'Avant Garde', sans-serif; text-anchor: middle" x="562.753438" y="110.42" transform="rotate(-90 562.753438 110.42)">hw(data)</text>
    </g>
   </g>
   <g id="line2d_21">
    <path d="M 78.082273 126.401818 
L 79.793299 147.710909 
L 81.504325 51.82 
L 83.21535 73.129091 
L 84.926376 78.456364 
L 86.637402 110.42 
L 88.348428 89.110909 
L 90.059454 126.401818 
L 91.77048 115.747273 
L 93.481506 89.110909 
L 95.192532 110.42 
L 96.903558 137.056364 
L 98.614584 73.129091 
L 100.32561 51.82 
L 102.036636 190.329091 
L 103.747662 94.438182 
L 105.458687 25.183636 
L 107.169713 73.129091 
L 108.880739 115.747273 
L 110.591765 142.383636 
L 112.302791 163.692727 
L 114.013817 25.183636 
L 115.724843 179.674545 
L 117.435869 158.365455 
L 119.146895 94.438182 
L 120.857921 115.747273 
L 122.568947 169.02 
L 124.279973 110.42 
L 125.990999 67.801818 
L 127.702024 105.092727 
L 129.41305 110.42 
L 131.124076 83.783636 
L 132.835102 153.038182 
L 134.546128 99.765455 
L 136.257154 137.056364 
L 137.96818 73.129091 
L 139.679206 126.401818 
L 141.390232 94.438182 
L 143.101258 99.765455 
L 144.812284 153.038182 
L 146.52331 158.365455 
L 148.234336 153.038182 
L 149.945361 73.129091 
L 151.656387 41.165455 
L 153.367413 131.729091 
L 155.078439 115.747273 
L 156.789465 73.129091 
L 158.500491 57.147273 
L 160.211517 89.110909 
L 161.922543 137.056364 
L 163.633569 105.092727 
L 165.344595 78.456364 
L 167.055621 153.038182 
L 168.766647 19.856364 
L 170.477673 73.129091 
L 172.188698 46.492727 
L 173.899724 51.82 
L 175.61075 105.092727 
L 177.321776 121.074545 
L 179.032802 46.492727 
L 180.743828 89.110909 
L 182.454854 115.747273 
L 184.16588 67.801818 
L 185.876906 67.801818 
L 187.587932 35.838182 
L 189.298958 67.801818 
L 191.009984 121.074545 
L 192.721009 115.747273 
L 194.432035 46.492727 
L 196.143061 46.492727 
L 197.854087 89.110909 
L 199.565113 110.42 
L 201.276139 46.492727 
L 202.987165 89.110909 
L 204.698191 78.456364 
L 206.409217 57.147273 
L 208.120243 126.401818 
L 209.831269 185.001818 
L 211.542295 89.110909 
L 213.253321 57.147273 
L 214.964346 57.147273 
L 216.675372 99.765455 
L 218.386398 185.001818 
L 220.097424 57.147273 
L 221.80845 110.42 
L 223.519476 83.783636 
L 226.941528 83.783636 
L 228.652554 73.129091 
L 230.36358 51.82 
L 232.074606 94.438182 
L 233.785632 121.074545 
L 237.207683 121.074545 
L 238.918709 51.82 
L 240.629735 41.165455 
L 242.340761 41.165455 
L 244.051787 94.438182 
L 245.762813 78.456364 
L 247.473839 105.092727 
L 249.184865 62.474545 
L 250.895891 115.747273 
L 252.606917 51.82 
L 254.317943 35.838182 
L 256.028969 200.983636 
L 257.739995 78.456364 
L 259.45102 153.038182 
L 261.162046 115.747273 
L 262.873072 169.02 
L 264.584098 115.747273 
L 266.295124 51.82 
L 268.00615 115.747273 
L 269.717176 126.401818 
L 271.428202 78.456364 
L 273.139228 73.129091 
L 274.850254 115.747273 
L 276.56128 83.783636 
L 278.272306 131.729091 
L 279.983332 62.474545 
L 281.694357 94.438182 
L 283.405383 105.092727 
L 285.116409 30.510909 
L 286.827435 51.82 
L 288.538461 121.074545 
L 290.249487 131.729091 
L 291.960513 121.074545 
L 293.671539 147.710909 
L 295.382565 83.783636 
L 297.093591 137.056364 
L 298.804617 89.110909 
L 300.515643 83.783636 
L 302.226668 131.729091 
L 303.937694 41.165455 
L 305.64872 94.438182 
L 307.359746 62.474545 
L 309.070772 89.110909 
L 310.781798 73.129091 
L 312.492824 99.765455 
L 314.20385 62.474545 
L 315.914876 105.092727 
L 317.625902 83.783636 
L 319.336928 41.165455 
L 321.047954 110.42 
L 322.75898 121.074545 
L 324.470005 57.147273 
L 326.181031 46.492727 
L 327.892057 46.492727 
L 329.603083 115.747273 
L 331.314109 147.710909 
L 333.025135 137.056364 
L 334.736161 147.710909 
L 336.447187 142.383636 
L 338.158213 153.038182 
L 339.869239 105.092727 
L 341.580265 78.456364 
L 343.291291 41.165455 
L 345.002317 67.801818 
L 346.713342 99.765455 
L 348.424368 89.110909 
L 350.135394 153.038182 
L 351.84642 57.147273 
L 353.557446 62.474545 
L 355.268472 25.183636 
L 356.979498 41.165455 
L 358.690524 121.074545 
L 360.40155 78.456364 
L 362.112576 73.129091 
L 363.823602 121.074545 
L 365.534628 89.110909 
L 367.245654 110.42 
L 368.956679 30.510909 
L 370.667705 105.092727 
L 372.378731 94.438182 
L 374.089757 89.110909 
L 375.800783 73.129091 
L 377.511809 30.510909 
L 379.222835 115.747273 
L 380.933861 105.092727 
L 382.644887 35.838182 
L 384.355913 153.038182 
L 386.066939 169.02 
L 387.777965 142.383636 
L 389.488991 67.801818 
L 391.200016 62.474545 
L 392.911042 99.765455 
L 394.622068 158.365455 
L 396.333094 105.092727 
L 398.04412 46.492727 
L 399.755146 174.347273 
L 401.466172 153.038182 
L 403.177198 46.492727 
L 404.888224 73.129091 
L 406.59925 89.110909 
L 408.310276 142.383636 
L 410.021302 51.82 
L 411.732327 105.092727 
L 413.443353 83.783636 
L 415.154379 99.765455 
L 416.865405 46.492727 
L 418.576431 89.110909 
L 420.287457 142.383636 
L 421.998483 41.165455 
L 423.709509 46.492727 
L 425.420535 147.710909 
L 428.842587 137.056364 
L 432.264639 83.783636 
L 433.975664 62.474545 
L 435.68669 78.456364 
L 437.397716 137.056364 
L 439.108742 147.710909 
L 440.819768 73.129091 
L 442.530794 73.129091 
L 444.24182 51.82 
L 445.952846 46.492727 
L 447.663872 89.110909 
L 449.374898 115.747273 
L 451.085924 89.110909 
L 452.79695 51.82 
L 454.507976 67.801818 
L 456.219001 153.038182 
L 457.930027 126.401818 
L 459.641053 46.492727 
L 461.352079 142.383636 
L 463.063105 137.056364 
L 464.774131 137.056364 
L 466.485157 115.747273 
L 468.196183 185.001818 
L 469.907209 94.438182 
L 471.618235 185.001818 
L 473.329261 195.656364 
L 475.040287 19.856364 
L 476.751313 126.401818 
L 480.173364 94.438182 
L 481.88439 105.092727 
L 483.595416 105.092727 
L 485.306442 110.42 
L 487.017468 131.729091 
L 488.728494 185.001818 
L 490.43952 73.129091 
L 492.150546 131.729091 
L 493.861572 62.474545 
L 495.572598 57.147273 
L 497.283624 105.092727 
L 498.99465 41.165455 
L 500.705675 131.729091 
L 502.416701 99.765455 
L 504.127727 105.092727 
L 504.127727 105.092727 
" clip-path="url(#p392cc9d637)" style="fill: none; stroke: #235996; stroke-width: 0.8; stroke-linecap: square"/>
   </g>
   <g id="patch_7">
    <path d="M 56.78 210.04 
L 56.78 10.8 
" style="fill: none; stroke: #000000; stroke-width: 0.8; stroke-linejoin: miter; stroke-linecap: square"/>
   </g>
   <g id="patch_8">
    <path d="M 525.43 210.04 
L 525.43 10.8 
" style="fill: none; stroke: #000000; stroke-width: 0.8; stroke-linejoin: miter; stroke-linecap: square"/>
   </g>
   <g id="patch_9">
    <path d="M 56.78 210.04 
L 525.43 210.04 
" style="fill: none; stroke: #000000; stroke-width: 0.8; stroke-linejoin: miter; stroke-linecap: square"/>
   </g>
   <g id="patch_10">
    <path d="M 56.78 10.8 
L 525.43 10.8 
" style="fill: none; stroke: #000000; stroke-width: 0.8; stroke-linejoin: miter; stroke-linecap: square"/>
   </g>
   <g id="legend_1">
    <g id="patch_11">
     <path d="M 150.494625 43.4565 
L 431.715375 43.4565 
Q 434.595375 43.4565 434.595375 40.5765 
L 434.595375 20.88 
Q 434.595375 18 431.715375 18 
L 150.494625 18 
Q 147.614625 18 147.614625 20.88 
L 147.614625 40.5765 
Q 147.614625 43.4565 150.494625 43.4565 
z
" style="fill: #ffffff; opacity: 0.8; stroke: #000000; stroke-linejoin: miter"/>
    </g>
    <g id="line2d_22">
     <path d="M 153.374625 29.66175 
L 167.774625 29.66175 
L 182.174625 29.66175 
" style="fill: none; stroke: #99004d; stroke-width: 0.8; stroke-linecap: square"/>
    </g>
    <g id="text_23">
     <text style="font: 14.4px 'DejaVu Sans', 'Bitstream Vera Sans', 'Computer Modern Sans Serif', 'Lucida Grande', 'Verdana', 'Geneva', 'Lucid', 'Arial', 'Helvetica', 'Avant Garde', sans-serif; text-anchor: start" x="193.694625" y="34.70175" transform="rotate(-0 193.694625 34.70175)">power</text>
    </g>
    <g id="line2d_23">
     <path d="M 267.004125 29.66175 
L 281.404125 29.66175 
L 295.804125 29.66175 
" style="fill: none; stroke: #235996; stroke-width: 0.8; stroke-linecap: square"/>
    </g>
    <g id="text_24">
     <text style="font: 14.4px 'DejaVu Sans', 'Bitstream Vera Sans', 'Computer Modern Sans Serif', 'Lucida Grande', 'Verdana', 'Geneva', 'Lucid', 'Arial', 'Helvetica', 'Avant Garde', sans-serif; text-anchor: start" x="307.324125" y="34.70175" transform="rotate(-0 307.324125 34.70175)">hw(rs1)+hw(rs2)</text>
    </g>
   </g>
  </g>
 </g>
 <defs>
  <clipPath id="p392cc9d637">
   <rect x="56.78" y="10.8" width="468.65" height="199.24"/>
  </clipPath>
 </defs>
</svg>
