<?xml version="1.0" encoding="utf-8" standalone="no"?>
<!DOCTYPE svg PUBLIC "-//W3C//DTD SVG 1.1//EN"
  "http://www.w3.org/Graphics/SVG/1.1/DTD/svg11.dtd">
<svg xmlns:xlink="http://www.w3.org/1999/xlink" width="576pt" height="252pt" viewBox="0 0 576 252" xmlns="http://www.w3.org/2000/svg" version="1.1">
 <metadata>
  <rdf:RDF xmlns:dc="http://purl.org/dc/elements/1.1/" xmlns:cc="http://creativecommons.org/ns#" xmlns:rdf="http://www.w3.org/1999/02/22-rdf-syntax-ns#">
   <cc:Work>
    <dc:type rdf:resource="http://purl.org/dc/dcmitype/StillImage"/>
    <dc:date>2023-12-06T16:02:57.517658</dc:date>
    <dc:format>image/svg+xml</dc:format>
    <dc:creator>
     <cc:Agent>
      <dc:title>Matplotlib v3.7.4, https://matplotlib.org/</dc:title>
     </cc:Agent>
    </dc:creator>
   </cc:Work>
  </rdf:RDF>
 </metadata>
 <defs>
  <style type="text/css">*{stroke-linejoin: round; stroke-linecap: butt}</style>
 </defs>
 <g id="figure_1">
  <g id="patch_1">
   <path d="M 0 252 
L 576 252 
L 576 0 
L 0 0 
z
" style="fill: #ffffff"/>
  </g>
  <g id="axes_1">
   <g id="patch_2">
    <path d="M 56.96 210.04 
L 515.98 210.04 
L 515.98 14.063684 
L 56.96 14.063684 
z
" style="fill: #ffffff"/>
   </g>
   <g id="matplotlib.axis_1">
    <g id="xtick_1">
     <g id="line2d_1">
      <defs>
       <path id="m0590379cf4" d="M 0 0 
L 0 3.5 
" style="stroke: #000000; stroke-width: 0.8"/>
      </defs>
      <g>
       <use xlink:href="#m0590379cf4" x="77.824545" y="210.04" style="stroke: #000000; stroke-width: 0.8"/>
      </g>
     </g>
     <g id="text_1">
      <text style="font: 10px 'DejaVu Sans', 'Bitstream Vera Sans', 'Computer Modern Sans Serif', 'Lucida Grande', 'Verdana', 'Geneva', 'Lucid', 'Arial', 'Helvetica', 'Avant Garde', sans-serif; text-anchor: middle" x="77.824545" y="224.638438" transform="rotate(-0 77.824545 224.638438)">0</text>
     </g>
    </g>
    <g id="xtick_2">
     <g id="line2d_2">
      <g>
       <use xlink:href="#m0590379cf4" x="161.617901" y="210.04" style="stroke: #000000; stroke-width: 0.8"/>
      </g>
     </g>
     <g id="text_2">
      <text style="font: 10px 'DejaVu Sans', 'Bitstream Vera Sans', 'Computer Modern Sans Serif', 'Lucida Grande', 'Verdana', 'Geneva', 'Lucid', 'Arial', 'Helvetica', 'Avant Garde', sans-serif; text-anchor: middle" x="161.617901" y="224.638438" transform="rotate(-0 161.617901 224.638438)">50</text>
     </g>
    </g>
    <g id="xtick_3">
     <g id="line2d_3">
      <g>
       <use xlink:href="#m0590379cf4" x="245.411256" y="210.04" style="stroke: #000000; stroke-width: 0.8"/>
      </g>
     </g>
     <g id="text_3">
      <text style="font: 10px 'DejaVu Sans', 'Bitstream Vera Sans', 'Computer Modern Sans Serif', 'Lucida Grande', 'Verdana', 'Geneva', 'Lucid', 'Arial', 'Helvetica', 'Avant Garde', sans-serif; text-anchor: middle" x="245.411256" y="224.638438" transform="rotate(-0 245.411256 224.638438)">100</text>
     </g>
    </g>
    <g id="xtick_4">
     <g id="line2d_4">
      <g>
       <use xlink:href="#m0590379cf4" x="329.204611" y="210.04" style="stroke: #000000; stroke-width: 0.8"/>
      </g>
     </g>
     <g id="text_4">
      <text style="font: 10px 'DejaVu Sans', 'Bitstream Vera Sans', 'Computer Modern Sans Serif', 'Lucida Grande', 'Verdana', 'Geneva', 'Lucid', 'Arial', 'Helvetica', 'Avant Garde', sans-serif; text-anchor: middle" x="329.204611" y="224.638438" transform="rotate(-0 329.204611 224.638438)">150</text>
     </g>
    </g>
    <g id="xtick_5">
     <g id="line2d_5">
      <g>
       <use xlink:href="#m0590379cf4" x="412.997966" y="210.04" style="stroke: #000000; stroke-width: 0.8"/>
      </g>
     </g>
     <g id="text_5">
      <text style="font: 10px 'DejaVu Sans', 'Bitstream Vera Sans', 'Computer Modern Sans Serif', 'Lucida Grande', 'Verdana', 'Geneva', 'Lucid', 'Arial', 'Helvetica', 'Avant Garde', sans-serif; text-anchor: middle" x="412.997966" y="224.638438" transform="rotate(-0 412.997966 224.638438)">200</text>
     </g>
    </g>
    <g id="xtick_6">
     <g id="line2d_6">
      <g>
       <use xlink:href="#m0590379cf4" x="496.791322" y="210.04" style="stroke: #000000; stroke-width: 0.8"/>
      </g>
     </g>
     <g id="text_6">
      <text style="font: 10px 'DejaVu Sans', 'Bitstream Vera Sans', 'Computer Modern Sans Serif', 'Lucida Grande', 'Verdana', 'Geneva', 'Lucid', 'Arial', 'Helvetica', 'Avant Garde', sans-serif; text-anchor: middle" x="496.791322" y="224.638438" transform="rotate(-0 496.791322 224.638438)">250</text>
     </g>
    </g>
    <g id="text_7">
     <text style="font: 10px 'DejaVu Sans', 'Bitstream Vera Sans', 'Computer Modern Sans Serif', 'Lucida Grande', 'Verdana', 'Geneva', 'Lucid', 'Arial', 'Helvetica', 'Avant Garde', sans-serif; text-anchor: middle" x="286.47" y="238.316563" transform="rotate(-0 286.47 238.316563)">Cycles</text>
    </g>
   </g>
   <g id="matplotlib.axis_2">
    <g id="ytick_1">
     <g id="line2d_7">
      <defs>
       <path id="m332eaef6a8" d="M 0 0 
L -3.5 0 
" style="stroke: #000000; stroke-width: 0.8"/>
      </defs>
      <g>
       <use xlink:href="#m332eaef6a8" x="56.96" y="202.304093" style="stroke: #000000; stroke-width: 0.8"/>
      </g>
     </g>
     <g id="text_8">
      <text style="font: 10px 'DejaVu Sans', 'Bitstream Vera Sans', 'Computer Modern Sans Serif', 'Lucida Grande', 'Verdana', 'Geneva', 'Lucid', 'Arial', 'Helvetica', 'Avant Garde', sans-serif; text-anchor: end" x="49.96" y="206.103312" transform="rotate(-0 49.96 206.103312)">0</text>
     </g>
    </g>
    <g id="ytick_2">
     <g id="line2d_8">
      <g>
       <use xlink:href="#m332eaef6a8" x="56.96" y="178.86195" style="stroke: #000000; stroke-width: 0.8"/>
      </g>
     </g>
     <g id="text_9">
      <text style="font: 10px 'DejaVu Sans', 'Bitstream Vera Sans', 'Computer Modern Sans Serif', 'Lucida Grande', 'Verdana', 'Geneva', 'Lucid', 'Arial', 'Helvetica', 'Avant Garde', sans-serif; text-anchor: end" x="49.96" y="182.661169" transform="rotate(-0 49.96 182.661169)">20</text>
     </g>
    </g>
    <g id="ytick_3">
     <g id="line2d_9">
      <g>
       <use xlink:href="#m332eaef6a8" x="56.96" y="155.419807" style="stroke: #000000; stroke-width: 0.8"/>
      </g>
     </g>
     <g id="text_10">
      <text style="font: 10px 'DejaVu Sans', 'Bitstream Vera Sans', 'Computer Modern Sans Serif', 'Lucida Grande', 'Verdana', 'Geneva', 'Lucid', 'Arial', 'Helvetica', 'Avant Garde', sans-serif; text-anchor: end" x="49.96" y="159.219025" transform="rotate(-0 49.96 159.219025)">40</text>
     </g>
    </g>
    <g id="ytick_4">
     <g id="line2d_10">
      <g>
       <use xlink:href="#m332eaef6a8" x="56.96" y="131.977664" style="stroke: #000000; stroke-width: 0.8"/>
      </g>
     </g>
     <g id="text_11">
      <text style="font: 10px 'DejaVu Sans', 'Bitstream Vera Sans', 'Computer Modern Sans Serif', 'Lucida Grande', 'Verdana', 'Geneva', 'Lucid', 'Arial', 'Helvetica', 'Avant Garde', sans-serif; text-anchor: end" x="49.96" y="135.776882" transform="rotate(-0 49.96 135.776882)">60</text>
     </g>
    </g>
    <g id="ytick_5">
     <g id="line2d_11">
      <g>
       <use xlink:href="#m332eaef6a8" x="56.96" y="108.535521" style="stroke: #000000; stroke-width: 0.8"/>
      </g>
     </g>
     <g id="text_12">
      <text style="font: 10px 'DejaVu Sans', 'Bitstream Vera Sans', 'Computer Modern Sans Serif', 'Lucida Grande', 'Verdana', 'Geneva', 'Lucid', 'Arial', 'Helvetica', 'Avant Garde', sans-serif; text-anchor: end" x="49.96" y="112.334739" transform="rotate(-0 49.96 112.334739)">80</text>
     </g>
    </g>
    <g id="ytick_6">
     <g id="line2d_12">
      <g>
       <use xlink:href="#m332eaef6a8" x="56.96" y="85.093378" style="stroke: #000000; stroke-width: 0.8"/>
      </g>
     </g>
     <g id="text_13">
      <text style="font: 10px 'DejaVu Sans', 'Bitstream Vera Sans', 'Computer Modern Sans Serif', 'Lucida Grande', 'Verdana', 'Geneva', 'Lucid', 'Arial', 'Helvetica', 'Avant Garde', sans-serif; text-anchor: end" x="49.96" y="88.892596" transform="rotate(-0 49.96 88.892596)">100</text>
     </g>
    </g>
    <g id="ytick_7">
     <g id="line2d_13">
      <g>
       <use xlink:href="#m332eaef6a8" x="56.96" y="61.651235" style="stroke: #000000; stroke-width: 0.8"/>
      </g>
     </g>
     <g id="text_14">
      <text style="font: 10px 'DejaVu Sans', 'Bitstream Vera Sans', 'Computer Modern Sans Serif', 'Lucida Grande', 'Verdana', 'Geneva', 'Lucid', 'Arial', 'Helvetica', 'Avant Garde', sans-serif; text-anchor: end" x="49.96" y="65.450453" transform="rotate(-0 49.96 65.450453)">120</text>
     </g>
    </g>
    <g id="ytick_8">
     <g id="line2d_14">
      <g>
       <use xlink:href="#m332eaef6a8" x="56.96" y="38.209092" style="stroke: #000000; stroke-width: 0.8"/>
      </g>
     </g>
     <g id="text_15">
      <text style="font: 10px 'DejaVu Sans', 'Bitstream Vera Sans', 'Computer Modern Sans Serif', 'Lucida Grande', 'Verdana', 'Geneva', 'Lucid', 'Arial', 'Helvetica', 'Avant Garde', sans-serif; text-anchor: end" x="49.96" y="42.00831" transform="rotate(-0 49.96 42.00831)">140</text>
     </g>
    </g>
    <g id="ytick_9">
     <g id="line2d_15">
      <g>
       <use xlink:href="#m332eaef6a8" x="56.96" y="14.766949" style="stroke: #000000; stroke-width: 0.8"/>
      </g>
     </g>
     <g id="text_16">
      <text style="font: 10px 'DejaVu Sans', 'Bitstream Vera Sans', 'Computer Modern Sans Serif', 'Lucida Grande', 'Verdana', 'Geneva', 'Lucid', 'Arial', 'Helvetica', 'Avant Garde', sans-serif; text-anchor: end" x="49.96" y="18.566167" transform="rotate(-0 49.96 18.566167)">160</text>
     </g>
    </g>
    <g id="text_17">
     <text style="font: 10px 'DejaVu Sans', 'Bitstream Vera Sans', 'Computer Modern Sans Serif', 'Lucida Grande', 'Verdana', 'Geneva', 'Lucid', 'Arial', 'Helvetica', 'Avant Garde', sans-serif; text-anchor: middle" x="18.792813" y="112.051842" transform="rotate(-90 18.792813 112.051842)">power (uW)</text>
    </g>
   </g>
   <g id="line2d_16">
    <path d="M 77.824545 74.544413 
L 79.500413 198.787771 
L 81.17628 53.446485 
L 82.852147 31.176449 
L 84.528014 53.446485 
L 86.203881 44.069627 
L 87.879748 133.149771 
L 89.555615 58.134913 
L 91.231482 88.609699 
L 92.907349 37.036984 
L 94.583217 49.930163 
L 96.259084 175.345628 
L 97.934951 32.348556 
L 99.610818 76.888628 
L 101.286685 134.321878 
L 102.962552 25.315913 
L 104.638419 22.971699 
L 106.314286 52.274377 
L 107.990153 68.683877 
L 109.66602 141.354521 
L 111.341888 59.30702 
L 113.017755 47.585949 
L 114.693622 74.544413 
L 116.369489 54.618592 
L 118.045356 90.953913 
L 119.721223 114.396056 
L 121.39709 87.437592 
L 123.072957 82.749163 
L 124.748824 76.888628 
L 126.424691 198.787771 
L 128.100559 76.888628 
L 129.776426 59.30702 
L 131.452293 59.30702 
L 133.12816 78.060735 
L 134.804027 62.823342 
L 136.479894 164.796664 
L 138.155761 63.995449 
L 139.831628 95.642342 
L 141.507495 59.30702 
L 143.183363 80.404949 
L 144.85923 56.962806 
L 146.535097 53.446485 
L 148.210964 51.10227 
L 149.886831 140.182414 
L 151.562698 54.618592 
L 153.238565 94.470235 
L 154.914432 108.535521 
L 156.590299 81.577056 
L 158.266166 119.084485 
L 159.942034 110.879735 
L 161.617901 54.618592 
L 163.293768 51.10227 
L 164.969635 52.274377 
L 166.645502 78.060735 
L 168.321369 81.577056 
L 169.997236 113.223949 
L 171.673103 66.339663 
L 173.34897 63.995449 
L 175.024838 49.930163 
L 176.700705 39.381199 
L 178.376572 68.683877 
L 180.052439 69.855985 
L 181.728306 112.051842 
L 183.404173 72.200199 
L 185.08004 53.446485 
L 186.755907 76.888628 
L 188.431774 35.864877 
L 190.107641 58.134913 
L 191.783509 69.855985 
L 193.459376 48.758056 
L 195.135243 41.725413 
L 196.81111 58.134913 
L 198.486977 47.585949 
L 200.162844 46.413842 
L 201.838711 56.962806 
L 203.514578 139.010307 
L 205.190445 46.413842 
L 206.866313 38.209092 
L 208.54218 61.651235 
L 210.218047 198.787771 
L 211.893914 60.479127 
L 213.569781 46.413842 
L 215.245648 25.315913 
L 216.921515 39.381199 
L 218.597382 76.888628 
L 220.273249 39.381199 
L 221.949116 60.479127 
L 223.624984 126.117128 
L 225.300851 28.832234 
L 226.976718 52.274377 
L 230.328452 40.553306 
L 232.004319 42.89752 
L 233.680186 198.787771 
L 235.356053 113.223949 
L 237.03192 34.69277 
L 238.707788 175.345628 
L 240.383655 201.131986 
L 242.059522 60.479127 
L 243.735389 63.995449 
L 245.411256 80.404949 
L 247.087123 71.028092 
L 248.76299 49.930163 
L 250.438857 54.618592 
L 252.114724 155.419807 
L 253.790591 58.134913 
L 255.466459 176.517735 
L 257.142326 45.241734 
L 258.818193 55.790699 
L 260.49406 47.585949 
L 262.169927 72.200199 
L 263.845794 32.348556 
L 265.521661 37.036984 
L 267.197528 58.134913 
L 268.873395 37.036984 
L 270.549263 66.339663 
L 272.22513 46.413842 
L 273.900997 62.823342 
L 275.576864 92.126021 
L 277.252731 62.823342 
L 278.928598 107.363413 
L 280.604465 81.577056 
L 282.280332 129.633449 
L 283.956199 201.131986 
L 285.632066 148.387164 
L 287.307934 122.600806 
L 288.983801 63.995449 
L 290.659668 175.345628 
L 292.335535 107.363413 
L 294.011402 69.855985 
L 295.687269 40.553306 
L 297.363136 95.642342 
L 299.039003 52.274377 
L 300.71487 69.855985 
L 302.390737 80.404949 
L 304.066605 59.30702 
L 305.742472 60.479127 
L 307.418339 56.962806 
L 309.094206 46.413842 
L 310.770073 156.591914 
L 312.44594 35.864877 
L 314.121807 156.591914 
L 315.797674 41.725413 
L 317.473541 45.241734 
L 319.149409 69.855985 
L 320.825276 54.618592 
L 322.501143 198.787771 
L 324.17701 37.036984 
L 325.852877 180.034057 
L 327.528744 69.855985 
L 329.204611 63.995449 
L 330.880478 81.577056 
L 332.556345 51.10227 
L 334.232212 72.200199 
L 335.90808 31.176449 
L 337.583947 52.274377 
L 339.259814 69.855985 
L 340.935681 49.930163 
L 342.611548 158.936128 
L 344.287415 103.847092 
L 345.963282 61.651235 
L 347.639149 102.674985 
L 349.315016 59.30702 
L 350.990884 61.651235 
L 352.666751 109.707628 
L 354.342618 46.413842 
L 356.018485 76.888628 
L 357.694352 51.10227 
L 359.370219 73.372306 
L 361.046086 53.446485 
L 362.721953 67.51177 
L 364.39782 86.265485 
L 366.073687 53.446485 
L 367.749555 33.520663 
L 369.425422 48.758056 
L 371.101289 46.413842 
L 372.777156 54.618592 
L 374.453023 33.520663 
L 376.12889 63.995449 
L 377.804757 113.223949 
L 379.480624 42.89752 
L 381.156491 55.790699 
L 382.832359 47.585949 
L 384.508226 115.568164 
L 386.184093 66.339663 
L 387.85996 60.479127 
L 389.535827 142.526628 
L 391.211694 133.149771 
L 392.887561 54.618592 
L 394.563428 130.805557 
L 396.239295 134.321878 
L 397.915162 71.028092 
L 399.59103 94.470235 
L 401.266897 38.209092 
L 402.942764 76.888628 
L 404.618631 54.618592 
L 406.294498 80.404949 
L 407.970365 154.2477 
L 409.646232 49.930163 
L 411.322099 88.609699 
L 412.997966 121.428699 
L 414.673834 44.069627 
L 416.349701 46.413842 
L 418.025568 54.618592 
L 419.701435 51.10227 
L 421.377302 122.600806 
L 423.053169 60.479127 
L 424.729036 58.134913 
L 426.404903 175.345628 
L 428.08077 52.274377 
L 429.756637 56.962806 
L 431.432505 58.134913 
L 433.108372 119.084485 
L 434.784239 116.740271 
L 436.460106 44.069627 
L 438.135973 99.158663 
L 439.81184 51.10227 
L 441.487707 71.028092 
L 443.163574 32.348556 
L 444.839441 37.036984 
L 446.515309 55.790699 
L 448.191176 69.855985 
L 449.867043 45.241734 
L 451.54291 44.069627 
L 453.218777 37.036984 
L 454.894644 175.345628 
L 456.570511 97.986556 
L 458.246378 81.577056 
L 459.922245 87.437592 
L 461.598112 48.758056 
L 463.27398 58.134913 
L 464.949847 52.274377 
L 466.625714 45.241734 
L 468.301581 72.200199 
L 469.977448 59.30702 
L 471.653315 56.962806 
L 473.329182 53.446485 
L 475.005049 198.787771 
L 476.680916 68.683877 
L 478.356783 81.577056 
L 480.032651 51.10227 
L 481.708518 74.544413 
L 483.384385 61.651235 
L 485.060252 65.167556 
L 486.736119 32.348556 
L 488.411986 61.651235 
L 490.087853 175.345628 
L 491.76372 90.953913 
L 493.439587 61.651235 
L 495.115455 154.2477 
L 495.115455 154.2477 
" clip-path="url(#paaceb01ff2)" style="fill: none; stroke: #99004d; stroke-width: 0.8; stroke-linecap: square"/>
   </g>
   <g id="patch_3">
    <path d="M 56.96 210.04 
L 56.96 14.063684 
" style="fill: none; stroke: #000000; stroke-width: 0.8; stroke-linejoin: miter; stroke-linecap: square"/>
   </g>
   <g id="patch_4">
    <path d="M 515.98 210.04 
L 515.98 14.063684 
" style="fill: none; stroke: #000000; stroke-width: 0.8; stroke-linejoin: miter; stroke-linecap: square"/>
   </g>
   <g id="patch_5">
    <path d="M 56.96 210.04 
L 515.98 210.04 
" style="fill: none; stroke: #000000; stroke-width: 0.8; stroke-linejoin: miter; stroke-linecap: square"/>
   </g>
   <g id="patch_6">
    <path d="M 56.96 14.063684 
L 515.98 14.063684 
" style="fill: none; stroke: #000000; stroke-width: 0.8; stroke-linejoin: miter; stroke-linecap: square"/>
   </g>
  </g>
  <g id="axes_2">
   <g id="matplotlib.axis_3">
    <g id="ytick_10">
     <g id="line2d_17">
      <defs>
       <path id="m36ac4ef752" d="M 0 0 
L 3.5 0 
" style="stroke: #000000; stroke-width: 0.8"/>
      </defs>
      <g>
       <use xlink:href="#m36ac4ef752" x="515.98" y="201.131986" style="stroke: #000000; stroke-width: 0.8"/>
      </g>
     </g>
     <g id="text_18">
      <text style="font: 10px 'DejaVu Sans', 'Bitstream Vera Sans', 'Computer Modern Sans Serif', 'Lucida Grande', 'Verdana', 'Geneva', 'Lucid', 'Arial', 'Helvetica', 'Avant Garde', sans-serif; text-anchor: start" x="522.98" y="204.931204" transform="rotate(-0 522.98 204.931204)">0.0</text>
     </g>
    </g>
    <g id="ytick_11">
     <g id="line2d_18">
      <g>
       <use xlink:href="#m36ac4ef752" x="515.98" y="177.689843" style="stroke: #000000; stroke-width: 0.8"/>
      </g>
     </g>
     <g id="text_19">
      <text style="font: 10px 'DejaVu Sans', 'Bitstream Vera Sans', 'Computer Modern Sans Serif', 'Lucida Grande', 'Verdana', 'Geneva', 'Lucid', 'Arial', 'Helvetica', 'Avant Garde', sans-serif; text-anchor: start" x="522.98" y="181.489061" transform="rotate(-0 522.98 181.489061)">2.5</text>
     </g>
    </g>
    <g id="ytick_12">
     <g id="line2d_19">
      <g>
       <use xlink:href="#m36ac4ef752" x="515.98" y="154.2477" style="stroke: #000000; stroke-width: 0.8"/>
      </g>
     </g>
     <g id="text_20">
      <text style="font: 10px 'DejaVu Sans', 'Bitstream Vera Sans', 'Computer Modern Sans Serif', 'Lucida Grande', 'Verdana', 'Geneva', 'Lucid', 'Arial', 'Helvetica', 'Avant Garde', sans-serif; text-anchor: start" x="522.98" y="158.046918" transform="rotate(-0 522.98 158.046918)">5.0</text>
     </g>
    </g>
    <g id="ytick_13">
     <g id="line2d_20">
      <g>
       <use xlink:href="#m36ac4ef752" x="515.98" y="130.805557" style="stroke: #000000; stroke-width: 0.8"/>
      </g>
     </g>
     <g id="text_21">
      <text style="font: 10px 'DejaVu Sans', 'Bitstream Vera Sans', 'Computer Modern Sans Serif', 'Lucida Grande', 'Verdana', 'Geneva', 'Lucid', 'Arial', 'Helvetica', 'Avant Garde', sans-serif; text-anchor: start" x="522.98" y="134.604775" transform="rotate(-0 522.98 134.604775)">7.5</text>
     </g>
    </g>
    <g id="ytick_14">
     <g id="line2d_21">
      <g>
       <use xlink:href="#m36ac4ef752" x="515.98" y="107.363413" style="stroke: #000000; stroke-width: 0.8"/>
      </g>
     </g>
     <g id="text_22">
      <text style="font: 10px 'DejaVu Sans', 'Bitstream Vera Sans', 'Computer Modern Sans Serif', 'Lucida Grande', 'Verdana', 'Geneva', 'Lucid', 'Arial', 'Helvetica', 'Avant Garde', sans-serif; text-anchor: start" x="522.98" y="111.162632" transform="rotate(-0 522.98 111.162632)">10.0</text>
     </g>
    </g>
    <g id="ytick_15">
     <g id="line2d_22">
      <g>
       <use xlink:href="#m36ac4ef752" x="515.98" y="83.92127" style="stroke: #000000; stroke-width: 0.8"/>
      </g>
     </g>
     <g id="text_23">
      <text style="font: 10px 'DejaVu Sans', 'Bitstream Vera Sans', 'Computer Modern Sans Serif', 'Lucida Grande', 'Verdana', 'Geneva', 'Lucid', 'Arial', 'Helvetica', 'Avant Garde', sans-serif; text-anchor: start" x="522.98" y="87.720489" transform="rotate(-0 522.98 87.720489)">12.5</text>
     </g>
    </g>
    <g id="ytick_16">
     <g id="line2d_23">
      <g>
       <use xlink:href="#m36ac4ef752" x="515.98" y="60.479127" style="stroke: #000000; stroke-width: 0.8"/>
      </g>
     </g>
     <g id="text_24">
      <text style="font: 10px 'DejaVu Sans', 'Bitstream Vera Sans', 'Computer Modern Sans Serif', 'Lucida Grande', 'Verdana', 'Geneva', 'Lucid', 'Arial', 'Helvetica', 'Avant Garde', sans-serif; text-anchor: start" x="522.98" y="64.278346" transform="rotate(-0 522.98 64.278346)">15.0</text>
     </g>
    </g>
    <g id="ytick_17">
     <g id="line2d_24">
      <g>
       <use xlink:href="#m36ac4ef752" x="515.98" y="37.036984" style="stroke: #000000; stroke-width: 0.8"/>
      </g>
     </g>
     <g id="text_25">
      <text style="font: 10px 'DejaVu Sans', 'Bitstream Vera Sans', 'Computer Modern Sans Serif', 'Lucida Grande', 'Verdana', 'Geneva', 'Lucid', 'Arial', 'Helvetica', 'Avant Garde', sans-serif; text-anchor: start" x="522.98" y="40.836203" transform="rotate(-0 522.98 40.836203)">17.5</text>
     </g>
    </g>
    <g id="text_26">
     <text style="font: 10px 'DejaVu Sans', 'Bitstream Vera Sans', 'Computer Modern Sans Serif', 'Lucida Grande', 'Verdana', 'Geneva', 'Lucid', 'Arial', 'Helvetica', 'Avant Garde', sans-serif; text-anchor: middle" x="562.844063" y="112.051842" transform="rotate(-90 562.844063 112.051842)">hw(data)</text>
    </g>
   </g>
   <g id="line2d_25">
    <path d="M 77.824545 97.986556 
L 79.500413 201.131986 
L 81.17628 51.10227 
L 82.852147 69.855985 
L 84.528014 97.986556 
L 86.203881 60.479127 
L 87.879748 173.001414 
L 89.555615 60.479127 
L 91.231482 135.493985 
L 92.907349 79.232842 
L 94.583217 60.479127 
L 96.259084 191.755128 
L 97.934951 79.232842 
L 101.286685 173.001414 
L 102.962552 88.609699 
L 106.314286 69.855985 
L 107.990153 116.740271 
L 109.66602 173.001414 
L 111.341888 69.855985 
L 113.017755 41.725413 
L 114.693622 135.493985 
L 116.369489 60.479127 
L 118.045356 144.870842 
L 119.721223 144.870842 
L 121.39709 126.117128 
L 123.072957 116.740271 
L 124.748824 32.348556 
L 126.424691 201.131986 
L 128.100559 51.10227 
L 129.776426 51.10227 
L 131.452293 60.479127 
L 133.12816 135.493985 
L 134.804027 97.986556 
L 136.479894 182.378271 
L 138.155761 107.363413 
L 139.831628 144.870842 
L 141.507495 88.609699 
L 143.183363 126.117128 
L 144.85923 41.725413 
L 146.535097 79.232842 
L 148.210964 69.855985 
L 149.886831 163.624557 
L 151.562698 88.609699 
L 153.238565 126.117128 
L 154.914432 154.2477 
L 156.590299 116.740271 
L 158.266166 154.2477 
L 159.942034 144.870842 
L 161.617901 51.10227 
L 163.293768 41.725413 
L 164.969635 69.855985 
L 166.645502 116.740271 
L 168.321369 126.117128 
L 169.997236 144.870842 
L 171.673103 88.609699 
L 173.34897 88.609699 
L 175.024838 79.232842 
L 176.700705 51.10227 
L 178.376572 97.986556 
L 180.052439 51.10227 
L 181.728306 154.2477 
L 185.08004 79.232842 
L 186.755907 116.740271 
L 188.431774 79.232842 
L 190.107641 79.232842 
L 191.783509 60.479127 
L 193.459376 60.479127 
L 195.135243 41.725413 
L 196.81111 60.479127 
L 198.486977 41.725413 
L 200.162844 79.232842 
L 201.838711 79.232842 
L 203.514578 173.001414 
L 205.190445 69.855985 
L 206.866313 22.971699 
L 208.54218 60.479127 
L 210.218047 201.131986 
L 211.893914 116.740271 
L 213.569781 69.855985 
L 215.245648 51.10227 
L 216.921515 51.10227 
L 218.597382 126.117128 
L 220.273249 88.609699 
L 221.949116 97.986556 
L 223.624984 163.624557 
L 225.300851 69.855985 
L 226.976718 60.479127 
L 228.652585 41.725413 
L 230.328452 51.10227 
L 232.004319 51.10227 
L 233.680186 201.131986 
L 235.356053 163.624557 
L 237.03192 51.10227 
L 238.707788 191.755128 
L 240.383655 201.131986 
L 242.059522 97.986556 
L 243.735389 88.609699 
L 245.411256 126.117128 
L 247.087123 107.363413 
L 248.76299 51.10227 
L 250.438857 51.10227 
L 252.114724 182.378271 
L 253.790591 88.609699 
L 255.466459 191.755128 
L 257.142326 79.232842 
L 258.818193 41.725413 
L 260.49406 60.479127 
L 262.169927 116.740271 
L 263.845794 51.10227 
L 265.521661 32.348556 
L 267.197528 69.855985 
L 268.873395 51.10227 
L 270.549263 69.855985 
L 272.22513 79.232842 
L 273.900997 60.479127 
L 275.576864 144.870842 
L 277.252731 32.348556 
L 278.928598 154.2477 
L 280.604465 135.493985 
L 282.280332 163.624557 
L 283.956199 201.131986 
L 285.632066 173.001414 
L 287.307934 163.624557 
L 288.983801 79.232842 
L 290.659668 191.755128 
L 292.335535 154.2477 
L 294.011402 88.609699 
L 295.687269 60.479127 
L 297.363136 135.493985 
L 299.039003 51.10227 
L 300.71487 97.986556 
L 302.390737 126.117128 
L 304.066605 88.609699 
L 305.742472 107.363413 
L 307.418339 41.725413 
L 309.094206 60.479127 
L 310.770073 182.378271 
L 312.44594 22.971699 
L 314.121807 182.378271 
L 315.797674 51.10227 
L 317.473541 60.479127 
L 319.149409 126.117128 
L 320.825276 69.855985 
L 322.501143 201.131986 
L 324.17701 88.609699 
L 325.852877 191.755128 
L 327.528744 88.609699 
L 329.204611 116.740271 
L 330.880478 107.363413 
L 332.556345 32.348556 
L 334.232212 69.855985 
L 335.90808 69.855985 
L 339.259814 32.348556 
L 340.935681 41.725413 
L 342.611548 182.378271 
L 344.287415 144.870842 
L 345.963282 88.609699 
L 347.639149 144.870842 
L 349.315016 60.479127 
L 350.990884 60.479127 
L 352.666751 154.2477 
L 354.342618 60.479127 
L 356.018485 107.363413 
L 357.694352 51.10227 
L 359.370219 97.986556 
L 361.046086 69.855985 
L 362.721953 88.609699 
L 364.39782 144.870842 
L 366.073687 51.10227 
L 367.749555 60.479127 
L 369.425422 32.348556 
L 371.101289 60.479127 
L 372.777156 60.479127 
L 374.453023 69.855985 
L 376.12889 51.10227 
L 377.804757 154.2477 
L 379.480624 79.232842 
L 381.156491 88.609699 
L 382.832359 60.479127 
L 384.508226 154.2477 
L 386.184093 79.232842 
L 387.85996 60.479127 
L 389.535827 173.001414 
L 391.211694 173.001414 
L 392.887561 60.479127 
L 394.563428 163.624557 
L 396.239295 173.001414 
L 397.915162 88.609699 
L 399.59103 144.870842 
L 401.266897 79.232842 
L 402.942764 97.986556 
L 404.618631 69.855985 
L 407.970365 182.378271 
L 409.646232 88.609699 
L 411.322099 135.493985 
L 412.997966 163.624557 
L 414.673834 60.479127 
L 416.349701 79.232842 
L 418.025568 69.855985 
L 419.701435 51.10227 
L 421.377302 163.624557 
L 423.053169 69.855985 
L 424.729036 41.725413 
L 426.404903 191.755128 
L 428.08077 51.10227 
L 429.756637 51.10227 
L 431.432505 79.232842 
L 433.108372 163.624557 
L 434.784239 154.2477 
L 436.460106 60.479127 
L 438.135973 135.493985 
L 439.81184 79.232842 
L 441.487707 97.986556 
L 443.163574 79.232842 
L 444.839441 41.725413 
L 446.515309 107.363413 
L 448.191176 126.117128 
L 449.867043 41.725413 
L 451.54291 97.986556 
L 453.218777 60.479127 
L 454.894644 191.755128 
L 456.570511 144.870842 
L 458.246378 116.740271 
L 459.922245 126.117128 
L 461.598112 107.363413 
L 463.27398 51.10227 
L 464.949847 41.725413 
L 466.625714 69.855985 
L 468.301581 116.740271 
L 469.977448 60.479127 
L 471.653315 22.971699 
L 473.329182 107.363413 
L 475.005049 201.131986 
L 476.680916 107.363413 
L 478.356783 107.363413 
L 480.032651 97.986556 
L 481.708518 79.232842 
L 483.384385 116.740271 
L 485.060252 116.740271 
L 486.736119 51.10227 
L 488.411986 116.740271 
L 490.087853 191.755128 
L 491.76372 144.870842 
L 493.439587 116.740271 
L 495.115455 182.378271 
L 495.115455 182.378271 
" clip-path="url(#paaceb01ff2)" style="fill: none; stroke: #235996; stroke-width: 0.8; stroke-linecap: square"/>
   </g>
   <g id="patch_7">
    <path d="M 56.96 210.04 
L 56.96 14.063684 
" style="fill: none; stroke: #000000; stroke-width: 0.8; stroke-linejoin: miter; stroke-linecap: square"/>
   </g>
   <g id="patch_8">
    <path d="M 515.98 210.04 
L 515.98 14.063684 
" style="fill: none; stroke: #000000; stroke-width: 0.8; stroke-linejoin: miter; stroke-linecap: square"/>
   </g>
   <g id="patch_9">
    <path d="M 56.96 210.04 
L 515.98 210.04 
" style="fill: none; stroke: #000000; stroke-width: 0.8; stroke-linejoin: miter; stroke-linecap: square"/>
   </g>
   <g id="patch_10">
    <path d="M 56.96 14.063684 
L 515.98 14.063684 
" style="fill: none; stroke: #000000; stroke-width: 0.8; stroke-linejoin: miter; stroke-linecap: square"/>
   </g>
   <g id="legend_1">
    <g id="patch_11">
     <path d="M 179.254125 46.720184 
L 393.685875 46.720184 
Q 396.565875 46.720184 396.565875 43.840184 
L 396.565875 24.143684 
Q 396.565875 21.263684 393.685875 21.263684 
L 179.254125 21.263684 
Q 176.374125 21.263684 176.374125 24.143684 
L 176.374125 43.840184 
Q 176.374125 46.720184 179.254125 46.720184 
z
" style="fill: #ffffff; opacity: 0.8; stroke: #000000; stroke-linejoin: miter"/>
    </g>
    <g id="line2d_26">
     <path d="M 182.134125 32.925434 
L 196.534125 32.925434 
L 210.934125 32.925434 
" style="fill: none; stroke: #99004d; stroke-width: 0.8; stroke-linecap: square"/>
    </g>
    <g id="text_27">
     <text style="font: 14.4px 'DejaVu Sans', 'Bitstream Vera Sans', 'Computer Modern Sans Serif', 'Lucida Grande', 'Verdana', 'Geneva', 'Lucid', 'Arial', 'Helvetica', 'Avant Garde', sans-serif; text-anchor: start" x="222.454125" y="37.965434" transform="rotate(-0 222.454125 37.965434)">power</text>
    </g>
    <g id="line2d_27">
     <path d="M 295.763625 32.925434 
L 310.163625 32.925434 
L 324.563625 32.925434 
" style="fill: none; stroke: #235996; stroke-width: 0.8; stroke-linecap: square"/>
    </g>
    <g id="text_28">
     <text style="font: 14.4px 'DejaVu Sans', 'Bitstream Vera Sans', 'Computer Modern Sans Serif', 'Lucida Grande', 'Verdana', 'Geneva', 'Lucid', 'Arial', 'Helvetica', 'Avant Garde', sans-serif; text-anchor: start" x="336.083625" y="37.965434" transform="rotate(-0 336.083625 37.965434)">hw(rs1)</text>
    </g>
   </g>
  </g>
 </g>
 <defs>
  <clipPath id="paaceb01ff2">
   <rect x="56.96" y="14.063684" width="459.02" height="195.976316"/>
  </clipPath>
 </defs>
</svg>
