<?xml version="1.0" encoding="utf-8" standalone="no"?>
<!DOCTYPE svg PUBLIC "-//W3C//DTD SVG 1.1//EN"
  "http://www.w3.org/Graphics/SVG/1.1/DTD/svg11.dtd">
<svg xmlns:xlink="http://www.w3.org/1999/xlink" width="576pt" height="252pt" viewBox="0 0 576 252" xmlns="http://www.w3.org/2000/svg" version="1.1">
 <metadata>
  <rdf:RDF xmlns:dc="http://purl.org/dc/elements/1.1/" xmlns:cc="http://creativecommons.org/ns#" xmlns:rdf="http://www.w3.org/1999/02/22-rdf-syntax-ns#">
   <cc:Work>
    <dc:type rdf:resource="http://purl.org/dc/dcmitype/StillImage"/>
    <dc:date>2023-12-06T16:01:25.428760</dc:date>
    <dc:format>image/svg+xml</dc:format>
    <dc:creator>
     <cc:Agent>
      <dc:title>Matplotlib v3.7.4, https://matplotlib.org/</dc:title>
     </cc:Agent>
    </dc:creator>
   </cc:Work>
  </rdf:RDF>
 </metadata>
 <defs>
  <style type="text/css">*{stroke-linejoin: round; stroke-linecap: butt}</style>
 </defs>
 <g id="figure_1">
  <g id="patch_1">
   <path d="M 0 252 
L 576 252 
L 576 0 
L 0 0 
z
" style="fill: #ffffff"/>
  </g>
  <g id="axes_1">
   <g id="patch_2">
    <path d="M 56.87 210.04 
L 525.43 210.04 
L 525.43 10.8 
L 56.87 10.8 
z
" style="fill: #ffffff"/>
   </g>
   <g id="matplotlib.axis_1">
    <g id="xtick_1">
     <g id="line2d_1">
      <defs>
       <path id="m279ce68524" d="M 0 0 
L 0 3.5 
" style="stroke: #000000; stroke-width: 0.8"/>
      </defs>
      <g>
       <use xlink:href="#m279ce68524" x="78.168182" y="210.04" style="stroke: #000000; stroke-width: 0.8"/>
      </g>
     </g>
     <g id="text_1">
      <text style="font: 10px 'DejaVu Sans', 'Bitstream Vera Sans', 'Computer Modern Sans Serif', 'Lucida Grande', 'Verdana', 'Geneva', 'Lucid', 'Arial', 'Helvetica', 'Avant Garde', sans-serif; text-anchor: middle" x="78.168182" y="224.638438" transform="rotate(-0 78.168182 224.638438)">0</text>
     </g>
    </g>
    <g id="xtick_2">
     <g id="line2d_2">
      <g>
       <use xlink:href="#m279ce68524" x="163.703049" y="210.04" style="stroke: #000000; stroke-width: 0.8"/>
      </g>
     </g>
     <g id="text_2">
      <text style="font: 10px 'DejaVu Sans', 'Bitstream Vera Sans', 'Computer Modern Sans Serif', 'Lucida Grande', 'Verdana', 'Geneva', 'Lucid', 'Arial', 'Helvetica', 'Avant Garde', sans-serif; text-anchor: middle" x="163.703049" y="224.638438" transform="rotate(-0 163.703049 224.638438)">50</text>
     </g>
    </g>
    <g id="xtick_3">
     <g id="line2d_3">
      <g>
       <use xlink:href="#m279ce68524" x="249.237915" y="210.04" style="stroke: #000000; stroke-width: 0.8"/>
      </g>
     </g>
     <g id="text_3">
      <text style="font: 10px 'DejaVu Sans', 'Bitstream Vera Sans', 'Computer Modern Sans Serif', 'Lucida Grande', 'Verdana', 'Geneva', 'Lucid', 'Arial', 'Helvetica', 'Avant Garde', sans-serif; text-anchor: middle" x="249.237915" y="224.638438" transform="rotate(-0 249.237915 224.638438)">100</text>
     </g>
    </g>
    <g id="xtick_4">
     <g id="line2d_4">
      <g>
       <use xlink:href="#m279ce68524" x="334.772782" y="210.04" style="stroke: #000000; stroke-width: 0.8"/>
      </g>
     </g>
     <g id="text_4">
      <text style="font: 10px 'DejaVu Sans', 'Bitstream Vera Sans', 'Computer Modern Sans Serif', 'Lucida Grande', 'Verdana', 'Geneva', 'Lucid', 'Arial', 'Helvetica', 'Avant Garde', sans-serif; text-anchor: middle" x="334.772782" y="224.638438" transform="rotate(-0 334.772782 224.638438)">150</text>
     </g>
    </g>
    <g id="xtick_5">
     <g id="line2d_5">
      <g>
       <use xlink:href="#m279ce68524" x="420.307649" y="210.04" style="stroke: #000000; stroke-width: 0.8"/>
      </g>
     </g>
     <g id="text_5">
      <text style="font: 10px 'DejaVu Sans', 'Bitstream Vera Sans', 'Computer Modern Sans Serif', 'Lucida Grande', 'Verdana', 'Geneva', 'Lucid', 'Arial', 'Helvetica', 'Avant Garde', sans-serif; text-anchor: middle" x="420.307649" y="224.638438" transform="rotate(-0 420.307649 224.638438)">200</text>
     </g>
    </g>
    <g id="xtick_6">
     <g id="line2d_6">
      <g>
       <use xlink:href="#m279ce68524" x="505.842516" y="210.04" style="stroke: #000000; stroke-width: 0.8"/>
      </g>
     </g>
     <g id="text_6">
      <text style="font: 10px 'DejaVu Sans', 'Bitstream Vera Sans', 'Computer Modern Sans Serif', 'Lucida Grande', 'Verdana', 'Geneva', 'Lucid', 'Arial', 'Helvetica', 'Avant Garde', sans-serif; text-anchor: middle" x="505.842516" y="224.638438" transform="rotate(-0 505.842516 224.638438)">250</text>
     </g>
    </g>
    <g id="text_7">
     <text style="font: 10px 'DejaVu Sans', 'Bitstream Vera Sans', 'Computer Modern Sans Serif', 'Lucida Grande', 'Verdana', 'Geneva', 'Lucid', 'Arial', 'Helvetica', 'Avant Garde', sans-serif; text-anchor: middle" x="291.15" y="238.316563" transform="rotate(-0 291.15 238.316563)">Cycles</text>
    </g>
   </g>
   <g id="matplotlib.axis_2">
    <g id="ytick_1">
     <g id="line2d_7">
      <defs>
       <path id="m0b7a8e46b8" d="M 0 0 
L -3.5 0 
" style="stroke: #000000; stroke-width: 0.8"/>
      </defs>
      <g>
       <use xlink:href="#m0b7a8e46b8" x="56.87" y="198.0856" style="stroke: #000000; stroke-width: 0.8"/>
      </g>
     </g>
     <g id="text_8">
      <text style="font: 10px 'DejaVu Sans', 'Bitstream Vera Sans', 'Computer Modern Sans Serif', 'Lucida Grande', 'Verdana', 'Geneva', 'Lucid', 'Arial', 'Helvetica', 'Avant Garde', sans-serif; text-anchor: end" x="49.87" y="201.884819" transform="rotate(-0 49.87 201.884819)">50</text>
     </g>
    </g>
    <g id="ytick_2">
     <g id="line2d_8">
      <g>
       <use xlink:href="#m0b7a8e46b8" x="56.87" y="173.935297" style="stroke: #000000; stroke-width: 0.8"/>
      </g>
     </g>
     <g id="text_9">
      <text style="font: 10px 'DejaVu Sans', 'Bitstream Vera Sans', 'Computer Modern Sans Serif', 'Lucida Grande', 'Verdana', 'Geneva', 'Lucid', 'Arial', 'Helvetica', 'Avant Garde', sans-serif; text-anchor: end" x="49.87" y="177.734516" transform="rotate(-0 49.87 177.734516)">100</text>
     </g>
    </g>
    <g id="ytick_3">
     <g id="line2d_9">
      <g>
       <use xlink:href="#m0b7a8e46b8" x="56.87" y="149.784994" style="stroke: #000000; stroke-width: 0.8"/>
      </g>
     </g>
     <g id="text_10">
      <text style="font: 10px 'DejaVu Sans', 'Bitstream Vera Sans', 'Computer Modern Sans Serif', 'Lucida Grande', 'Verdana', 'Geneva', 'Lucid', 'Arial', 'Helvetica', 'Avant Garde', sans-serif; text-anchor: end" x="49.87" y="153.584213" transform="rotate(-0 49.87 153.584213)">150</text>
     </g>
    </g>
    <g id="ytick_4">
     <g id="line2d_10">
      <g>
       <use xlink:href="#m0b7a8e46b8" x="56.87" y="125.634691" style="stroke: #000000; stroke-width: 0.8"/>
      </g>
     </g>
     <g id="text_11">
      <text style="font: 10px 'DejaVu Sans', 'Bitstream Vera Sans', 'Computer Modern Sans Serif', 'Lucida Grande', 'Verdana', 'Geneva', 'Lucid', 'Arial', 'Helvetica', 'Avant Garde', sans-serif; text-anchor: end" x="49.87" y="129.43391" transform="rotate(-0 49.87 129.43391)">200</text>
     </g>
    </g>
    <g id="ytick_5">
     <g id="line2d_11">
      <g>
       <use xlink:href="#m0b7a8e46b8" x="56.87" y="101.484388" style="stroke: #000000; stroke-width: 0.8"/>
      </g>
     </g>
     <g id="text_12">
      <text style="font: 10px 'DejaVu Sans', 'Bitstream Vera Sans', 'Computer Modern Sans Serif', 'Lucida Grande', 'Verdana', 'Geneva', 'Lucid', 'Arial', 'Helvetica', 'Avant Garde', sans-serif; text-anchor: end" x="49.87" y="105.283607" transform="rotate(-0 49.87 105.283607)">250</text>
     </g>
    </g>
    <g id="ytick_6">
     <g id="line2d_12">
      <g>
       <use xlink:href="#m0b7a8e46b8" x="56.87" y="77.334085" style="stroke: #000000; stroke-width: 0.8"/>
      </g>
     </g>
     <g id="text_13">
      <text style="font: 10px 'DejaVu Sans', 'Bitstream Vera Sans', 'Computer Modern Sans Serif', 'Lucida Grande', 'Verdana', 'Geneva', 'Lucid', 'Arial', 'Helvetica', 'Avant Garde', sans-serif; text-anchor: end" x="49.87" y="81.133304" transform="rotate(-0 49.87 81.133304)">300</text>
     </g>
    </g>
    <g id="ytick_7">
     <g id="line2d_13">
      <g>
       <use xlink:href="#m0b7a8e46b8" x="56.87" y="53.183782" style="stroke: #000000; stroke-width: 0.8"/>
      </g>
     </g>
     <g id="text_14">
      <text style="font: 10px 'DejaVu Sans', 'Bitstream Vera Sans', 'Computer Modern Sans Serif', 'Lucida Grande', 'Verdana', 'Geneva', 'Lucid', 'Arial', 'Helvetica', 'Avant Garde', sans-serif; text-anchor: end" x="49.87" y="56.983001" transform="rotate(-0 49.87 56.983001)">350</text>
     </g>
    </g>
    <g id="ytick_8">
     <g id="line2d_14">
      <g>
       <use xlink:href="#m0b7a8e46b8" x="56.87" y="29.033479" style="stroke: #000000; stroke-width: 0.8"/>
      </g>
     </g>
     <g id="text_15">
      <text style="font: 10px 'DejaVu Sans', 'Bitstream Vera Sans', 'Computer Modern Sans Serif', 'Lucida Grande', 'Verdana', 'Geneva', 'Lucid', 'Arial', 'Helvetica', 'Avant Garde', sans-serif; text-anchor: end" x="49.87" y="32.832698" transform="rotate(-0 49.87 32.832698)">400</text>
     </g>
    </g>
    <g id="text_16">
     <text style="font: 10px 'DejaVu Sans', 'Bitstream Vera Sans', 'Computer Modern Sans Serif', 'Lucida Grande', 'Verdana', 'Geneva', 'Lucid', 'Arial', 'Helvetica', 'Avant Garde', sans-serif; text-anchor: middle" x="18.702813" y="110.42" transform="rotate(-90 18.702813 110.42)">power (uW)</text>
    </g>
   </g>
   <g id="line2d_15">
    <path d="M 78.168182 63.809915 
L 79.878879 66.707952 
L 81.589576 65.741939 
L 83.300274 81.681139 
L 85.010971 44.489673 
L 86.721668 42.557648 
L 88.432366 95.205309 
L 90.143063 59.462861 
L 91.85376 45.938691 
L 93.564458 66.707952 
L 95.275155 96.171321 
L 96.985853 53.666788 
L 98.69655 47.387709 
L 100.407247 109.695491 
L 102.117945 84.579176 
L 103.828642 57.04783 
L 105.539339 62.360897 
L 107.250037 30.482497 
L 108.960734 74.436048 
L 110.671431 44.006667 
L 112.382129 29.516485 
L 114.092826 95.688315 
L 115.803523 35.312558 
L 117.514221 72.504024 
L 119.224918 64.292921 
L 122.646313 64.292921 
L 124.35701 45.938691 
L 126.067707 64.775927 
L 127.778405 38.210594 
L 129.489102 56.564824 
L 131.199799 44.006667 
L 132.910497 169.105236 
L 134.621194 58.979855 
L 136.331891 76.368073 
L 138.042589 46.421697 
L 139.753286 44.006667 
L 141.463983 79.749115 
L 143.174681 34.346545 
L 144.885378 69.122982 
L 146.596075 58.496848 
L 148.306773 35.312558 
L 150.01747 34.346545 
L 151.728167 44.972679 
L 153.438865 43.523661 
L 155.149562 117.906594 
L 156.860259 56.564824 
L 158.570957 45.938691 
L 160.281654 87.960218 
L 161.992351 86.994206 
L 163.703049 84.09617 
L 165.413746 73.953042 
L 167.124443 56.564824 
L 168.835141 111.144509 
L 170.545838 61.394885 
L 172.256535 48.836727 
L 173.967233 55.598812 
L 175.67793 84.579176 
L 177.388627 24.686424 
L 179.099325 20.822376 
L 180.810022 117.906594 
L 182.520719 131.430764 
L 184.231417 163.309164 
L 185.942114 47.870715 
L 187.652811 79.266109 
L 189.363509 182.629406 
L 191.074206 21.788388 
L 192.784903 70.572 
L 194.495601 67.190958 
L 196.206298 59.462861 
L 197.916995 37.727588 
L 199.627693 48.836727 
L 201.33839 41.591636 
L 203.049087 64.775927 
L 204.759785 50.285745 
L 206.470482 54.6328 
L 208.181179 24.203418 
L 211.602574 89.409236 
L 213.313271 22.7544 
L 215.023969 78.300097 
L 216.734666 108.729479 
L 218.445363 86.028194 
L 220.156061 49.802739 
L 221.866758 44.972679 
L 223.577455 33.380533 
L 225.288153 72.021018 
L 226.99885 150.751006 
L 228.709547 57.530836 
L 230.420245 66.707952 
L 232.130942 63.809915 
L 233.841639 103.416412 
L 235.552337 78.783103 
L 237.263034 94.239297 
L 238.973731 99.552364 
L 240.684429 94.239297 
L 242.395126 198.0856 
L 244.105823 70.088994 
L 245.816521 97.620339 
L 247.527218 68.15697 
L 249.237915 91.341261 
L 250.948613 49.802739 
L 252.65931 77.817091 
L 254.370007 69.605988 
L 256.080705 113.559539 
L 257.791402 49.802739 
L 259.502099 53.666788 
L 261.212797 46.904703 
L 262.923494 93.273285 
L 264.634191 22.7544 
L 266.344889 53.666788 
L 268.055586 80.232121 
L 269.766283 62.360897 
L 271.476981 20.822376 
L 274.898375 83.130158 
L 276.609073 44.006667 
L 278.31977 61.877891 
L 280.030467 51.734764 
L 281.741165 72.504024 
L 283.451862 50.768752 
L 285.162559 58.496848 
L 286.873257 78.300097 
L 288.583954 79.266109 
L 290.294651 54.149794 
L 292.005349 34.346545 
L 293.716046 33.380533 
L 295.426743 106.314448 
L 297.137441 72.021018 
L 298.848138 50.768752 
L 300.558835 167.173212 
L 302.269533 54.6328 
L 303.98023 150.751006 
L 305.690927 56.564824 
L 307.401625 112.110521 
L 309.112322 103.416412 
L 310.823019 145.920945 
L 312.533717 68.15697 
L 314.244414 110.178497 
L 315.955111 112.593527 
L 317.665809 133.362788 
L 319.376506 89.409236 
L 321.087203 87.960218 
L 322.797901 61.877891 
L 324.508598 78.783103 
L 326.219295 76.368073 
L 327.929993 91.341261 
L 329.64069 136.260824 
L 331.351387 140.607879 
L 333.062085 52.21777 
L 334.772782 21.788388 
L 336.483479 62.360897 
L 338.194177 74.436048 
L 339.904874 70.572 
L 341.615571 22.7544 
L 343.326269 38.6936 
L 345.036966 80.715127 
L 346.747663 49.319733 
L 348.458361 44.972679 
L 350.169058 129.015733 
L 351.879755 122.736655 
L 353.590453 60.428873 
L 355.30115 67.190958 
L 357.011847 100.518376 
L 358.722545 52.700776 
L 360.433242 76.851079 
L 362.143939 78.783103 
L 363.854637 73.953042 
L 365.565334 84.09617 
L 367.276031 40.625624 
L 368.986729 84.579176 
L 370.697426 76.851079 
L 372.408123 107.763467 
L 374.118821 36.27857 
L 375.829518 99.552364 
L 377.540215 103.416412 
L 379.250913 76.368073 
L 380.96161 69.605988 
L 382.672307 183.595418 
L 384.383005 100.518376 
L 386.093702 157.513091 
L 387.804399 122.736655 
L 389.515097 81.198133 
L 391.225794 46.904703 
L 392.936491 33.380533 
L 394.647189 49.802739 
L 396.357886 54.6328 
L 398.068583 65.741939 
L 399.779281 60.428873 
L 401.489978 48.836727 
L 403.200675 121.770642 
L 404.911373 96.654327 
L 406.62207 65.741939 
L 408.332767 66.707952 
L 410.043465 51.734764 
L 411.754162 58.979855 
L 413.464859 106.797455 
L 415.175557 48.353721 
L 416.886254 86.028194 
L 418.596951 53.666788 
L 420.307649 58.013842 
L 422.018346 43.523661 
L 425.439741 200.983636 
L 427.150438 29.516485 
L 428.861135 95.688315 
L 430.571833 73.470036 
L 432.28253 155.581067 
L 433.993227 58.979855 
L 435.703925 66.224945 
L 437.414622 96.171321 
L 439.125319 180.697382 
L 440.836017 52.21777 
L 442.546714 60.428873 
L 444.257411 52.21777 
L 445.968109 92.790279 
L 447.678806 53.666788 
L 449.389503 166.2072 
L 451.100201 139.158861 
L 452.810898 89.892242 
L 454.521595 100.518376 
L 456.232293 19.856364 
L 457.94299 141.090885 
L 459.653687 53.183782 
L 461.364385 48.353721 
L 463.075082 174.901309 
L 464.785779 60.911879 
L 466.496477 166.2072 
L 468.207174 63.809915 
L 469.917871 42.074642 
L 471.628569 53.666788 
L 473.339266 162.343152 
L 475.049963 95.688315 
L 476.760661 60.428873 
L 478.471358 93.756291 
L 480.182055 94.239297 
L 481.892753 47.870715 
L 483.60345 44.006667 
L 485.314147 90.858255 
L 487.024845 66.707952 
L 488.735542 76.368073 
L 490.44624 53.183782 
L 492.156937 42.074642 
L 493.867634 74.919055 
L 495.578332 51.734764 
L 497.289029 80.715127 
L 498.999726 87.477212 
L 500.710424 128.532727 
L 502.421121 96.654327 
L 504.131818 185.527442 
L 504.131818 185.527442 
" clip-path="url(#pfb12b312d2)" style="fill: none; stroke: #99004d; stroke-width: 0.8; stroke-linecap: square"/>
   </g>
   <g id="patch_3">
    <path d="M 56.87 210.04 
L 56.87 10.8 
" style="fill: none; stroke: #000000; stroke-width: 0.8; stroke-linejoin: miter; stroke-linecap: square"/>
   </g>
   <g id="patch_4">
    <path d="M 525.43 210.04 
L 525.43 10.8 
" style="fill: none; stroke: #000000; stroke-width: 0.8; stroke-linejoin: miter; stroke-linecap: square"/>
   </g>
   <g id="patch_5">
    <path d="M 56.87 210.04 
L 525.43 210.04 
" style="fill: none; stroke: #000000; stroke-width: 0.8; stroke-linejoin: miter; stroke-linecap: square"/>
   </g>
   <g id="patch_6">
    <path d="M 56.87 10.8 
L 525.43 10.8 
" style="fill: none; stroke: #000000; stroke-width: 0.8; stroke-linejoin: miter; stroke-linecap: square"/>
   </g>
  </g>
  <g id="axes_2">
   <g id="matplotlib.axis_3">
    <g id="ytick_9">
     <g id="line2d_16">
      <defs>
       <path id="m5ca477652b" d="M 0 0 
L 3.5 0 
" style="stroke: #000000; stroke-width: 0.8"/>
      </defs>
      <g>
       <use xlink:href="#m5ca477652b" x="525.43" y="189.663182" style="stroke: #000000; stroke-width: 0.8"/>
      </g>
     </g>
     <g id="text_17">
      <text style="font: 10px 'DejaVu Sans', 'Bitstream Vera Sans', 'Computer Modern Sans Serif', 'Lucida Grande', 'Verdana', 'Geneva', 'Lucid', 'Arial', 'Helvetica', 'Avant Garde', sans-serif; text-anchor: start" x="532.43" y="193.462401" transform="rotate(-0 532.43 193.462401)">10</text>
     </g>
    </g>
    <g id="ytick_10">
     <g id="line2d_17">
      <g>
       <use xlink:href="#m5ca477652b" x="525.43" y="161.362045" style="stroke: #000000; stroke-width: 0.8"/>
      </g>
     </g>
     <g id="text_18">
      <text style="font: 10px 'DejaVu Sans', 'Bitstream Vera Sans', 'Computer Modern Sans Serif', 'Lucida Grande', 'Verdana', 'Geneva', 'Lucid', 'Arial', 'Helvetica', 'Avant Garde', sans-serif; text-anchor: start" x="532.43" y="165.161264" transform="rotate(-0 532.43 165.161264)">20</text>
     </g>
    </g>
    <g id="ytick_11">
     <g id="line2d_18">
      <g>
       <use xlink:href="#m5ca477652b" x="525.43" y="133.060909" style="stroke: #000000; stroke-width: 0.8"/>
      </g>
     </g>
     <g id="text_19">
      <text style="font: 10px 'DejaVu Sans', 'Bitstream Vera Sans', 'Computer Modern Sans Serif', 'Lucida Grande', 'Verdana', 'Geneva', 'Lucid', 'Arial', 'Helvetica', 'Avant Garde', sans-serif; text-anchor: start" x="532.43" y="136.860128" transform="rotate(-0 532.43 136.860128)">30</text>
     </g>
    </g>
    <g id="ytick_12">
     <g id="line2d_19">
      <g>
       <use xlink:href="#m5ca477652b" x="525.43" y="104.759773" style="stroke: #000000; stroke-width: 0.8"/>
      </g>
     </g>
     <g id="text_20">
      <text style="font: 10px 'DejaVu Sans', 'Bitstream Vera Sans', 'Computer Modern Sans Serif', 'Lucida Grande', 'Verdana', 'Geneva', 'Lucid', 'Arial', 'Helvetica', 'Avant Garde', sans-serif; text-anchor: start" x="532.43" y="108.558991" transform="rotate(-0 532.43 108.558991)">40</text>
     </g>
    </g>
    <g id="ytick_13">
     <g id="line2d_20">
      <g>
       <use xlink:href="#m5ca477652b" x="525.43" y="76.458636" style="stroke: #000000; stroke-width: 0.8"/>
      </g>
     </g>
     <g id="text_21">
      <text style="font: 10px 'DejaVu Sans', 'Bitstream Vera Sans', 'Computer Modern Sans Serif', 'Lucida Grande', 'Verdana', 'Geneva', 'Lucid', 'Arial', 'Helvetica', 'Avant Garde', sans-serif; text-anchor: start" x="532.43" y="80.257855" transform="rotate(-0 532.43 80.257855)">50</text>
     </g>
    </g>
    <g id="ytick_14">
     <g id="line2d_21">
      <g>
       <use xlink:href="#m5ca477652b" x="525.43" y="48.1575" style="stroke: #000000; stroke-width: 0.8"/>
      </g>
     </g>
     <g id="text_22">
      <text style="font: 10px 'DejaVu Sans', 'Bitstream Vera Sans', 'Computer Modern Sans Serif', 'Lucida Grande', 'Verdana', 'Geneva', 'Lucid', 'Arial', 'Helvetica', 'Avant Garde', sans-serif; text-anchor: start" x="532.43" y="51.956719" transform="rotate(-0 532.43 51.956719)">60</text>
     </g>
    </g>
    <g id="ytick_15">
     <g id="line2d_22">
      <g>
       <use xlink:href="#m5ca477652b" x="525.43" y="19.856364" style="stroke: #000000; stroke-width: 0.8"/>
      </g>
     </g>
     <g id="text_23">
      <text style="font: 10px 'DejaVu Sans', 'Bitstream Vera Sans', 'Computer Modern Sans Serif', 'Lucida Grande', 'Verdana', 'Geneva', 'Lucid', 'Arial', 'Helvetica', 'Avant Garde', sans-serif; text-anchor: start" x="532.43" y="23.655582" transform="rotate(-0 532.43 23.655582)">70</text>
     </g>
    </g>
    <g id="text_24">
     <text style="font: 10px 'DejaVu Sans', 'Bitstream Vera Sans', 'Computer Modern Sans Serif', 'Lucida Grande', 'Verdana', 'Geneva', 'Lucid', 'Arial', 'Helvetica', 'Avant Garde', sans-serif; text-anchor: middle" x="562.753438" y="110.42" transform="rotate(-90 562.753438 110.42)">hw(data)</text>
    </g>
   </g>
   <g id="line2d_23">
    <path d="M 78.168182 121.740455 
L 79.878879 107.589886 
L 81.589576 59.477955 
L 83.300274 116.080227 
L 85.010971 50.987614 
L 86.721668 59.477955 
L 88.432366 45.327386 
L 90.143063 90.609205 
L 91.85376 67.968295 
L 93.564458 87.779091 
L 95.275155 133.060909 
L 96.985853 45.327386 
L 98.69655 53.817727 
L 100.407247 101.929659 
L 102.117945 144.381364 
L 105.539339 93.439318 
L 107.250037 56.647841 
L 108.960734 124.570568 
L 110.671431 67.968295 
L 112.382129 22.686477 
L 114.092826 70.798409 
L 115.803523 36.837045 
L 117.514221 73.628523 
L 119.224918 48.1575 
L 120.935615 59.477955 
L 122.646313 121.740455 
L 124.35701 90.609205 
L 126.067707 107.589886 
L 127.778405 59.477955 
L 129.489102 90.609205 
L 131.199799 48.1575 
L 132.910497 184.002955 
L 134.621194 42.497273 
L 136.331891 116.080227 
L 138.042589 67.968295 
L 139.753286 67.968295 
L 141.463983 107.589886 
L 143.174681 45.327386 
L 144.885378 50.987614 
L 146.596075 70.798409 
L 148.306773 56.647841 
L 150.01747 76.458636 
L 151.728167 65.138182 
L 153.438865 93.439318 
L 155.149562 110.42 
L 156.860259 59.477955 
L 158.570957 84.948977 
L 160.281654 141.55125 
L 161.992351 99.099545 
L 163.703049 110.42 
L 165.413746 130.230795 
L 167.124443 62.308068 
L 168.835141 118.910341 
L 170.545838 90.609205 
L 172.256535 56.647841 
L 173.967233 34.006932 
L 175.67793 82.118864 
L 177.388627 34.006932 
L 179.099325 34.006932 
L 180.810022 110.42 
L 182.520719 161.362045 
L 184.231417 124.570568 
L 185.942114 56.647841 
L 187.652811 84.948977 
L 189.363509 147.211477 
L 191.074206 36.837045 
L 192.784903 76.458636 
L 194.495601 90.609205 
L 196.206298 59.477955 
L 197.916995 87.779091 
L 199.627693 65.138182 
L 201.33839 56.647841 
L 203.049087 118.910341 
L 204.759785 76.458636 
L 206.470482 36.837045 
L 208.181179 19.856364 
L 209.891877 34.006932 
L 211.602574 96.269432 
L 213.313271 22.686477 
L 215.023969 90.609205 
L 216.734666 93.439318 
L 218.445363 113.250114 
L 220.156061 79.28875 
L 221.866758 67.968295 
L 223.577455 48.1575 
L 225.288153 124.570568 
L 226.99885 167.022273 
L 228.709547 116.080227 
L 230.420245 130.230795 
L 232.130942 79.28875 
L 233.841639 107.589886 
L 235.552337 56.647841 
L 237.263034 48.1575 
L 238.973731 90.609205 
L 240.684429 73.628523 
L 242.395126 184.002955 
L 244.105823 45.327386 
L 245.816521 99.099545 
L 247.527218 133.060909 
L 250.948613 45.327386 
L 252.65931 73.628523 
L 254.370007 110.42 
L 256.080705 175.512614 
L 257.791402 79.28875 
L 259.502099 76.458636 
L 261.212797 56.647841 
L 262.923494 96.269432 
L 264.634191 28.346705 
L 266.344889 118.910341 
L 268.055586 99.099545 
L 269.766283 87.779091 
L 271.476981 36.837045 
L 273.187678 104.759773 
L 274.898375 116.080227 
L 276.609073 53.817727 
L 278.31977 101.929659 
L 280.030467 73.628523 
L 281.741165 87.779091 
L 283.451862 34.006932 
L 285.162559 116.080227 
L 286.873257 164.192159 
L 288.583954 73.628523 
L 290.294651 84.948977 
L 292.005349 34.006932 
L 293.716046 36.837045 
L 295.426743 101.929659 
L 297.137441 73.628523 
L 298.848138 116.080227 
L 300.558835 121.740455 
L 302.269533 76.458636 
L 303.98023 130.230795 
L 305.690927 70.798409 
L 307.401625 138.721136 
L 309.112322 110.42 
L 310.823019 124.570568 
L 312.533717 65.138182 
L 314.244414 67.968295 
L 315.955111 133.060909 
L 317.665809 181.172841 
L 319.376506 39.667159 
L 321.087203 79.28875 
L 322.797901 101.929659 
L 324.508598 101.929659 
L 326.219295 107.589886 
L 327.929993 93.439318 
L 329.64069 118.910341 
L 331.351387 167.022273 
L 333.062085 62.308068 
L 334.772782 28.346705 
L 336.483479 87.779091 
L 338.194177 158.531932 
L 339.904874 96.269432 
L 341.615571 42.497273 
L 343.326269 56.647841 
L 345.036966 138.721136 
L 346.747663 62.308068 
L 348.458361 62.308068 
L 350.169058 135.891023 
L 351.879755 147.211477 
L 353.590453 104.759773 
L 355.30115 56.647841 
L 357.011847 158.531932 
L 358.722545 82.118864 
L 360.433242 93.439318 
L 362.143939 121.740455 
L 363.854637 70.798409 
L 365.565334 124.570568 
L 367.276031 73.628523 
L 368.986729 101.929659 
L 370.697426 73.628523 
L 372.408123 82.118864 
L 374.118821 22.686477 
L 375.829518 93.439318 
L 377.540215 124.570568 
L 379.250913 133.060909 
L 380.96161 116.080227 
L 382.672307 181.172841 
L 384.383005 116.080227 
L 386.093702 161.362045 
L 387.804399 101.929659 
L 389.515097 110.42 
L 391.225794 59.477955 
L 392.936491 42.497273 
L 394.647189 42.497273 
L 396.357886 87.779091 
L 398.068583 101.929659 
L 399.779281 90.609205 
L 401.489978 107.589886 
L 403.200675 118.910341 
L 404.911373 101.929659 
L 406.62207 50.987614 
L 408.332767 59.477955 
L 410.043465 79.28875 
L 411.754162 73.628523 
L 413.464859 76.458636 
L 415.175557 62.308068 
L 416.886254 82.118864 
L 418.596951 70.798409 
L 420.307649 82.118864 
L 422.018346 70.798409 
L 423.729043 144.381364 
L 425.439741 186.833068 
L 427.150438 48.1575 
L 428.861135 130.230795 
L 430.571833 82.118864 
L 432.28253 118.910341 
L 433.993227 62.308068 
L 435.703925 124.570568 
L 437.414622 133.060909 
L 439.125319 121.740455 
L 440.836017 93.439318 
L 444.257411 70.798409 
L 445.968109 110.42 
L 447.678806 99.099545 
L 449.389503 124.570568 
L 451.100201 118.910341 
L 452.810898 121.740455 
L 454.521595 116.080227 
L 456.232293 22.686477 
L 457.94299 135.891023 
L 459.653687 99.099545 
L 461.364385 65.138182 
L 463.075082 135.891023 
L 464.785779 82.118864 
L 466.496477 152.871705 
L 468.207174 62.308068 
L 469.917871 62.308068 
L 471.628569 65.138182 
L 473.339266 116.080227 
L 475.049963 135.891023 
L 476.760661 116.080227 
L 478.471358 141.55125 
L 480.182055 116.080227 
L 481.892753 67.968295 
L 483.60345 34.006932 
L 485.314147 113.250114 
L 487.024845 90.609205 
L 488.735542 101.929659 
L 490.44624 82.118864 
L 492.156937 53.817727 
L 493.867634 141.55125 
L 495.578332 70.798409 
L 497.289029 138.721136 
L 498.999726 121.740455 
L 500.710424 158.531932 
L 502.421121 116.080227 
L 504.131818 200.983636 
L 504.131818 200.983636 
" clip-path="url(#pfb12b312d2)" style="fill: none; stroke: #235996; stroke-width: 0.8; stroke-linecap: square"/>
   </g>
   <g id="patch_7">
    <path d="M 56.87 210.04 
L 56.87 10.8 
" style="fill: none; stroke: #000000; stroke-width: 0.8; stroke-linejoin: miter; stroke-linecap: square"/>
   </g>
   <g id="patch_8">
    <path d="M 525.43 210.04 
L 525.43 10.8 
" style="fill: none; stroke: #000000; stroke-width: 0.8; stroke-linejoin: miter; stroke-linecap: square"/>
   </g>
   <g id="patch_9">
    <path d="M 56.87 210.04 
L 525.43 210.04 
" style="fill: none; stroke: #000000; stroke-width: 0.8; stroke-linejoin: miter; stroke-linecap: square"/>
   </g>
   <g id="patch_10">
    <path d="M 56.87 10.8 
L 525.43 10.8 
" style="fill: none; stroke: #000000; stroke-width: 0.8; stroke-linejoin: miter; stroke-linecap: square"/>
   </g>
   <g id="legend_1">
    <g id="patch_11">
     <path d="M 150.539625 43.4565 
L 431.760375 43.4565 
Q 434.640375 43.4565 434.640375 40.5765 
L 434.640375 20.88 
Q 434.640375 18 431.760375 18 
L 150.539625 18 
Q 147.659625 18 147.659625 20.88 
L 147.659625 40.5765 
Q 147.659625 43.4565 150.539625 43.4565 
z
" style="fill: #ffffff; opacity: 0.8; stroke: #000000; stroke-linejoin: miter"/>
    </g>
    <g id="line2d_24">
     <path d="M 153.419625 29.66175 
L 167.819625 29.66175 
L 182.219625 29.66175 
" style="fill: none; stroke: #99004d; stroke-width: 0.8; stroke-linecap: square"/>
    </g>
    <g id="text_25">
     <text style="font: 14.4px 'DejaVu Sans', 'Bitstream Vera Sans', 'Computer Modern Sans Serif', 'Lucida Grande', 'Verdana', 'Geneva', 'Lucid', 'Arial', 'Helvetica', 'Avant Garde', sans-serif; text-anchor: start" x="193.739625" y="34.70175" transform="rotate(-0 193.739625 34.70175)">power</text>
    </g>
    <g id="line2d_25">
     <path d="M 267.049125 29.66175 
L 281.449125 29.66175 
L 295.849125 29.66175 
" style="fill: none; stroke: #235996; stroke-width: 0.8; stroke-linecap: square"/>
    </g>
    <g id="text_26">
     <text style="font: 14.4px 'DejaVu Sans', 'Bitstream Vera Sans', 'Computer Modern Sans Serif', 'Lucida Grande', 'Verdana', 'Geneva', 'Lucid', 'Arial', 'Helvetica', 'Avant Garde', sans-serif; text-anchor: start" x="307.369125" y="34.70175" transform="rotate(-0 307.369125 34.70175)">hw(rs1)+hw(rs2)</text>
    </g>
   </g>
  </g>
 </g>
 <defs>
  <clipPath id="pfb12b312d2">
   <rect x="56.87" y="10.8" width="468.56" height="199.24"/>
  </clipPath>
 </defs>
</svg>
